<svg xmlns="http://www.w3.org/2000/svg" xmlns:ev="http://www.w3.org/2001/xml-events" xmlns:xlink="http://www.w3.org/1999/xlink" width="1122.518" height="793.701" class="st45" color-interpolation-filters="sRGB" viewBox="0 0 841.89 595.276" xml:space="preserve"><title>Schéma Réseau</title><style type="text/css">.st1{fill:#fff;stroke:none;stroke-width:.75}.st1,.st2,.st3,.st4{stroke-linecap:round;stroke-linejoin:round}.st2{fill:none;stroke:none;stroke-width:.75}.st3{stroke:#a5a5a5;stroke-width:1.5}.st4{fill:#f0f;fill-opacity:0;stroke:#000;stroke-opacity:0;stroke-width:.72}.st5{fill:url(#grad30-35)}.st6{stroke:#fff;stroke-linecap:round;stroke-linejoin:round;stroke-width:.36}.st7{fill:url(#grad32-40)}.st8{fill:url(#grad31-47);stroke:#fff;stroke-linecap:round;stroke-linejoin:round;stroke-width:.36}.st9{stroke-width:1}.st10,.st11,.st12,.st9{stroke:#000;stroke-linecap:round;stroke-linejoin:round}.st10{fill:url(#grad31-56);stroke-width:.36}.st11{stroke-width:.6}.st12{fill:#000;stroke-width:.36}.st13,.st14{stroke-width:.12}.st13{fill:url(#grad34-72);stroke:#fff;stroke-linecap:round;stroke-linejoin:round}.st14{fill:url(#grad35-77);stroke:none}.st14,.st15,.st16{stroke-linecap:round;stroke-linejoin:round}.st15{fill:#000;stroke:none;stroke-width:.24}.st16{stroke:#000;stroke-width:.36}.st17{fill:#000;font-family:Calibri;font-size:1.00001em}.st18{font-size:.666659em}.st19{fill:#f0f;fill-opacity:0}.st20{stroke:#000;stroke-linecap:round;stroke-linejoin:round;stroke-opacity:0;stroke-width:.72}.st21{fill:url(#grad32-154)}.st22{fill:url(#grad32-161)}.st23{stroke:#d0bc9d;stroke-linecap:round;stroke-linejoin:round;stroke-width:.72}.st24{fill:#fff;stroke-width:.75}.st24,.st25,.st26{stroke:none;stroke-linecap:butt}.st25{fill:url(#grad31-276);stroke-width:.75}.st26{fill:#39749f}.st26,.st27,.st28{stroke-width:.75}.st27{fill:none;stroke:#000;stroke-linecap:round;stroke-linejoin:round}.st28{fill:url(#grad28-288);stroke:none;stroke-linecap:butt}.st29{fill:url(#grad30-315);stroke:#fff;stroke-linecap:round;stroke-linejoin:round;stroke-width:.72}.st30{fill:url(#grad32-319)}.st31,.st32{stroke:#000;stroke-linecap:round;stroke-linejoin:round;stroke-width:.72}.st32{stroke-width:1.5}.st33{fill:url(#grad36-375)}.st34{stroke:#000;stroke-linecap:round;stroke-linejoin:round;stroke-width:.72;visibility:hidden}.st35{fill:#0f0;fill-opacity:.7}.st36{fill:#000;visibility:hidden}.st37{fill:#9a9a9a;stroke-linecap:round;stroke-linejoin:round}.st37,.st38,.st39,.st40{stroke:#000;stroke-width:.24}.st38,.st39,.st40,.st41,.st42{stroke-linecap:round;stroke-linejoin:round}.st38{fill:url(#grad36-455)}.st39{fill:url(#grad36-459)}.st40{fill:url(#grad31-470)}.st41,.st42{fill:url(#grad30-930);stroke:#4e8ec2;stroke-width:.72}.st42{fill:url(#grad26-934);stroke-width:.24}.st43{fill:url(#grad26-1021)}.st44{stroke:#e7e4cd;stroke-linecap:round;stroke-linejoin:round;stroke-width:.36}.st45{fill:none;fill-rule:evenodd;font-size:12px;overflow:visible;stroke-linecap:square;stroke-miterlimit:3}</style><defs id="Patterns_And_Gradients"><linearGradient id="grad30-35" x1="0" x2="0" y1="1" y2="0"><stop offset="0" stop-color="#fff" stop-opacity="1"/><stop offset="1" stop-color="#e1d8c1" stop-opacity="1"/></linearGradient><pattern id="grad32-40" width="1" height="1" x="0" y="0" patternContentUnits="objectBoundingBox"><path fill="url(#grad27-41)" d="M 0 1 L 0 0 L 1 0 z"/><path fill="url(#grad28-42)" d="M 0 1 L 1 1 L 1 0 z"/></pattern><linearGradient id="grad27-41" x1="1" x2="0" y1="0" y2="0"><stop offset="0" stop-color="#fff" stop-opacity="1"/><stop offset="1" stop-color="#c9ba96" stop-opacity="1"/></linearGradient><linearGradient id="grad28-42" x1="0" x2="0" y1="0" y2="1"><stop offset="0" stop-color="#fff" stop-opacity="1"/><stop offset="1" stop-color="#c9ba96" stop-opacity="1"/></linearGradient><pattern id="grad31-47" width="1" height="1" x="0" y="0" patternContentUnits="objectBoundingBox"><path fill="url(#grad28-48)" d="M 0 0 L 0 1 L 1 1 z"/><path fill="url(#grad25-49)" d="M 0 0 L 1 0 L 1 1 z"/></pattern><linearGradient id="grad28-48" x1="0" x2="0" y1="0" y2="1"><stop offset="0" stop-color="#fff" stop-opacity="1"/><stop offset="1" stop-color="#b6a06d" stop-opacity="1"/></linearGradient><linearGradient id="grad25-49" x1="0" x2="1" y1="0" y2="0"><stop offset="0" stop-color="#fff" stop-opacity="1"/><stop offset="1" stop-color="#b6a06d" stop-opacity="1"/></linearGradient><pattern id="grad31-56" width="1" height="1" x="0" y="0" patternContentUnits="objectBoundingBox"><path fill="url(#grad28-57)" d="M 0 0 L 0 1 L 1 1 z"/><path fill="url(#grad25-58)" d="M 0 0 L 1 0 L 1 1 z"/></pattern><linearGradient id="grad28-57" x1="0" x2="0" y1="0" y2="1"><stop offset="0" stop-color="#fff" stop-opacity="1"/><stop offset="1" stop-color="#396" stop-opacity="1"/></linearGradient><linearGradient id="grad25-58" x1="0" x2="1" y1="0" y2="0"><stop offset="0" stop-color="#fff" stop-opacity="1"/><stop offset="1" stop-color="#396" stop-opacity="1"/></linearGradient><linearGradient id="grad30-62" x1="0" x2="0" y1="1" y2="0"><stop offset="0" stop-color="#fff" stop-opacity="1"/><stop offset="1" stop-color="#e7e4cd" stop-opacity="1"/></linearGradient><pattern id="grad34-72" width="1" height="1" x="0" y="0" patternContentUnits="objectBoundingBox"><path fill="url(#grad30-62)" d="M 0 0 L 1 0 L 1 1 z"/><path fill="url(#grad27-73)" d="M 0 0 L 0 1 L 1 1 z"/></pattern><linearGradient id="grad27-73" x1="1" x2="0" y1="0" y2="0"><stop offset="0" stop-color="#fff" stop-opacity="1"/><stop offset="1" stop-color="#e7e4cd" stop-opacity="1"/></linearGradient><pattern id="grad35-77" width="1" height="1" x="0" y="0" patternContentUnits="objectBoundingBox"><path fill="url(#grad27-78)" d="M 0.5 0.5 L 0 0 L 0 1 z"/><path fill="url(#grad25-79)" d="M 0.5 0.5 L 1 0 L 1 1 z"/><path fill="url(#grad30-80)" d="M 0.5 0.5 L 0 0 L 1 0 z"/><path fill="url(#grad28-81)" d="M 0.5 0.5 L 0 1 L 1 1 z"/></pattern><linearGradient id="grad27-78" x1="1" x2="0" y1="0" y2="0"><stop offset="0" stop-color="#000" stop-opacity=".4"/><stop offset="1" stop-color="#e7e4cd" stop-opacity=".4"/></linearGradient><linearGradient id="grad25-79" x1="0" x2="1" y1="0" y2="0"><stop offset="0" stop-color="#000" stop-opacity=".4"/><stop offset="1" stop-color="#e7e4cd" stop-opacity=".4"/></linearGradient><linearGradient id="grad30-80" x1="0" x2="0" y1="1" y2="0"><stop offset="0" stop-color="#000" stop-opacity=".4"/><stop offset="1" stop-color="#e7e4cd" stop-opacity=".4"/></linearGradient><linearGradient id="grad28-81" x1="0" x2="0" y1="0" y2="1"><stop offset="0" stop-color="#000" stop-opacity=".4"/><stop offset="1" stop-color="#e7e4cd" stop-opacity=".4"/></linearGradient><pattern id="grad32-154" width="1" height="1" x="0" y="0" patternContentUnits="objectBoundingBox"><path fill="url(#grad27-155)" d="M 0 1 L 0 0 L 1 0 z"/><path fill="url(#grad28-156)" d="M 0 1 L 1 1 L 1 0 z"/></pattern><linearGradient id="grad27-155" x1="1" x2="0" y1="0" y2="0"><stop offset="0" stop-color="#fff" stop-opacity="1"/><stop offset="1" stop-color="#f0daac" stop-opacity="1"/></linearGradient><linearGradient id="grad28-156" x1="0" x2="0" y1="0" y2="1"><stop offset="0" stop-color="#fff" stop-opacity="1"/><stop offset="1" stop-color="#f0daac" stop-opacity="1"/></linearGradient><pattern id="grad32-161" width="1" height="1" x="0" y="0" patternContentUnits="objectBoundingBox"><path fill="url(#grad27-162)" d="M 0 1 L 0 0 L 1 0 z"/><path fill="url(#grad28-163)" d="M 0 1 L 1 1 L 1 0 z"/></pattern><linearGradient id="grad27-162" x1="1" x2="0" y1="0" y2="0"><stop offset="0" stop-color="#fff" stop-opacity="1"/><stop offset="1" stop-color="#f3e2c0" stop-opacity="1"/></linearGradient><linearGradient id="grad28-163" x1="0" x2="0" y1="0" y2="1"><stop offset="0" stop-color="#fff" stop-opacity="1"/><stop offset="1" stop-color="#f3e2c0" stop-opacity="1"/></linearGradient><pattern id="grad31-276" width="1" height="1" x="0" y="0" patternContentUnits="objectBoundingBox"><path fill="url(#grad28-277)" d="M 0 0 L 0 1 L 1 1 z"/><path fill="url(#grad25-278)" d="M 0 0 L 1 0 L 1 1 z"/></pattern><linearGradient id="grad28-277" x1="0" x2="0" y1="0" y2="1"><stop offset="0" stop-color="#fff" stop-opacity="1"/><stop offset="1" stop-color="#9ecded" stop-opacity="1"/></linearGradient><linearGradient id="grad25-278" x1="0" x2="1" y1="0" y2="0"><stop offset="0" stop-color="#fff" stop-opacity="1"/><stop offset="1" stop-color="#9ecded" stop-opacity="1"/></linearGradient><linearGradient id="grad28-288" x1="0" x2="0" y1="0" y2="1"><stop offset="0" stop-color="#9fdef2" stop-opacity="1"/><stop offset="1" stop-color="#146bc2" stop-opacity="1"/></linearGradient><linearGradient id="grad30-315" x1="0" x2="0" y1="1" y2="0"><stop offset="0" stop-color="#fff" stop-opacity="1"/><stop offset="1" stop-color="#dfdfdf" stop-opacity="1"/></linearGradient><pattern id="grad32-319" width="1" height="1" x="0" y="0" patternContentUnits="objectBoundingBox"><path fill="url(#grad27-320)" d="M 0 1 L 0 0 L 1 0 z"/><path fill="url(#grad28-321)" d="M 0 1 L 1 1 L 1 0 z"/></pattern><linearGradient id="grad27-320" x1="1" x2="0" y1="0" y2="0"><stop offset="0" stop-color="#fff" stop-opacity="1"/><stop offset="1" stop-color="silver" stop-opacity="1"/></linearGradient><linearGradient id="grad28-321" x1="0" x2="0" y1="0" y2="1"><stop offset="0" stop-color="#fff" stop-opacity="1"/><stop offset="1" stop-color="silver" stop-opacity="1"/></linearGradient><radialGradient id="grad36-375" cx="0" cy="0" r="1"><stop offset="0" stop-color="#fff" stop-opacity="1"/><stop offset="1" stop-color="#00f" stop-opacity="1"/></radialGradient><radialGradient id="grad36-455" cx="0" cy="0" r="1"><stop offset="0" stop-color="#000" stop-opacity="1"/><stop offset="1" stop-color="#fff" stop-opacity="1"/></radialGradient><radialGradient id="grad36-459" cx="0" cy="0" r="1"><stop offset="0" stop-color="#fff" stop-opacity="1"/><stop offset="1" stop-color="#9a9a9a" stop-opacity="1"/></radialGradient><pattern id="grad31-470" width="1" height="1" x="0" y="0" patternContentUnits="objectBoundingBox"><path fill="url(#grad28-471)" d="M 0 0 L 0 1 L 1 1 z"/><path fill="url(#grad25-472)" d="M 0 0 L 1 0 L 1 1 z"/></pattern><linearGradient id="grad28-471" x1="0" x2="0" y1="0" y2="1"><stop offset="0" stop-color="#fff" stop-opacity="1"/><stop offset="1" stop-color="#fc0" stop-opacity="1"/></linearGradient><linearGradient id="grad25-472" x1="0" x2="1" y1="0" y2="0"><stop offset="0" stop-color="#fff" stop-opacity="1"/><stop offset="1" stop-color="#fc0" stop-opacity="1"/></linearGradient><linearGradient id="grad30-930" x1="0" x2="0" y1="1" y2="0"><stop offset="0" stop-color="#fff" stop-opacity="1"/><stop offset="1" stop-color="#4e8ec2" stop-opacity="1"/></linearGradient><linearGradient id="grad26-934" x1="0" x2="1" y1="0" y2="0"><stop offset="0" stop-color="#4e8ec2" stop-opacity="1"/><stop offset=".5" stop-color="#fff" stop-opacity="1"/><stop offset="1" stop-color="#4e8ec2" stop-opacity="1"/></linearGradient><linearGradient id="grad26-1021" x1="0" x2="1" y1="0" y2="0"><stop offset="0" stop-color="#f60" stop-opacity="1"/><stop offset=".5" stop-color="#e7e4cd" stop-opacity="1"/><stop offset="1" stop-color="#f60" stop-opacity="1"/></linearGradient></defs><g><title>VBackground-1</title><g id="shape1-1"><title>Solid</title><rect width="841.89" height="595.276" x="0" y="0" class="st1"/></g><g id="shape13-3" transform="translate(18,-18)"><title>None</title><rect width="805.89" height="559.276" x="0" y="36" class="st2"/></g></g><g><title>Page-1</title><g id="shape526-5" transform="translate(179.345,359.098) rotate(-120)"><title>Oblique connector.466</title><path d="M0 224.97 L0 282 L-104.12 342.11 L-104.12 595.28" class="st3"/></g><g id="shape527-8" transform="translate(184.757,368.472) rotate(-120)"><title>Oblique connector.527</title><path d="M0 402.02 L0 476.6 L-93.3 530.47 L-93.3 595.28" class="st3"/></g><g id="shape528-11" transform="translate(253.565,487.651) rotate(-120)"><title>Oblique connector.528</title><path d="M0 473.13 L0 535.37 L44.32 509.78 L44.32 595.28" class="st3"/></g><g id="shape529-14" transform="translate(326.034,613.171) rotate(-120)"><title>Oblique connector.529</title><path d="M0 412.36 L0 380.49 L189.26 271.22 L189.26 595.28" class="st3"/></g><g id="shape530-17" transform="translate(270.966,517.789) rotate(-120)"><title>Oblique connector.530</title><path d="M0 40.62 L0 100.54 L79.12 54.86 L79.12 595.28" class="st3"/></g><g id="shape531-20" transform="translate(181.349,362.569) rotate(-120)"><title>Oblique connector.531</title><path d="M0 58.99 L0 102.65 L-100.11 160.45 L-100.11 595.28" class="st3"/></g><g id="shape532-23" transform="translate(269.342,514.977) rotate(-120)"><title>Oblique connector.532</title><path d="M0 215.97 L0 269.71 L75.87 225.91 L75.87 595.28" class="st3"/></g><g id="shape533-26" transform="translate(201.063,396.714) rotate(-120)"><title>Oblique connector.533</title><path d="M0 -88.15 L0 -22.74 L-60.69 12.3 L-60.69 595.28" class="st3"/></g><g id="group1-29" transform="translate(206.926,-226.769)"><title>Server.1</title><desc>NOVA-VOLUME --volume_driver=nova.volume.driver.SheepdogDriver</desc><g id="shape2-30"><title>Sheet.2</title><path d="M51.02 534.92 L31.4 524.41 L0 541.52 L0.01 585.45 A33.0369 30.8521 -180 0 0 19.37 595.28 L51.02 578.17 L51.02 534.92 ZM8.71 548.36 A34.0948 31.84 -180 0 0 19.37 552.15 A33.7139 31.4843 0 0 1 8.71 548.36 Z" class="st4"/></g><g id="shape3-32" transform="translate(0,-43.1295)"><title>Sheet.3</title><path d="M19.36 595.27 L51.02 578.05 L31.4 567.54 L0 584.65 A34.0948 31.84 -180 0 0 19.37 595.28 L19.36 595.27 Z" class="st5"/><path d="M19.36 595.27 L51.02 578.05 L31.4 567.54 L0 584.65 A34.0948 31.84 -180 0 0 19.37 595.28" class="st6"/></g><g id="shape4-37" transform="translate(0.0115937,0)"><title>Sheet.4</title><path d="M19.36 552.15 A33.7139 31.4843 0 0 1 0 541.47 L0 585.45 A33.0369 30.8521 -180 0 0 19.36 595.28 L19.35 552.15 L19.36 552.15 Z" class="st7"/><path d="M19.36 552.15 A33.7139 31.4843 0 0 1 0 541.47 L0 585.45 A33.0369 30.8521 -180 0 0 19.36 595.28 L19.35 552.15" class="st6"/></g><g id="shape5-44" transform="translate(19.3628,-0.0487457)"><title>Sheet.5</title><path d="M0 552.19 L0 595.28 L31.66 578.22 L31.66 534.97 L0 552.19 Z" class="st8"/></g><g id="shape6-50" transform="translate(3.19744E-014,-0.00156214)"><title>Sheet.6</title><path d="M51.02 534.92 L31.4 524.41 L0 541.52 L0.01 585.45 A33.0369 30.8521 -180 0 0 19.37 595.28 L51.02 578.17 L51.02 534.92" class="st9"/></g><g id="shape7-53" transform="translate(-195.389,13.1183) rotate(-20)"><title>Sheet.7</title><ellipse cx="1.482" cy="593.257" class="st10" rx="1.482" ry="2.018"/></g><g id="shape8-59" transform="translate(3.13992,-6.23262)"><title>Sheet.8</title><path d="M-0 583.3 A37.8205 34.5426 -96.44 0 0 13.08 590.02" class="st11"/><path d="M0 585.93 A37.8205 34.5426 -96.44 0 0 13.08 592.65" class="st11"/><path d="M0 588.56 A37.8205 34.5426 -96.44 0 0 13.08 595.28" class="st11"/></g><g id="group9-66" transform="translate(2.6166,-30.546)"><title>Sheet.9</title><g id="shape10-67" transform="translate(0,-7.06961)"><title>Sheet.10</title><path d="M0.47 588.56 A32.9981 30.8159 -180 0 0 13.55 595.28 a0.670503 0.62616 -180 0 0 3.01981E-014 -1.22178 A32.1003 29.9774 0 0 1 0.73 587.53 a0.434387 0.40566 -180 0 0 -0.725202 0.344859 a0.946727 0.884117 -180 0 0 0.463543 0.681433 Z" class="st12"/></g><g id="shape11-69" transform="translate(4.16081,-8.60965)"><title>Sheet.11</title><path d="M4.02 595.23 A4.90309 2.98481 -90.9 0 0 0.1 593.27 A3.22599 1.60837 -180 0 0 4.02 595.23 Z" class="st13"/></g><g id="shape12-74" transform="translate(0.523319,-0.0610888)"><title>Sheet.12</title><path d="M0 585.13 L0 588.56 A35.496 33.1485 -180 0 0 13.08 595.28 L13.08 591.85 A36.6577 34.2334 0 0 1 -0 585.13 Z" class="st14"/></g><g id="shape13-82" transform="translate(0.523319,-1.95484)"><title>Sheet.13</title><path d="M0 588.56 A32.1279 30.0032 -180 0 0 13.08 595.28 L13.08 594.42 A35.5103 33.1619 0 0 1 0 587.7 L0 588.56 Z" class="st15"/></g><g id="shape14-84" transform="translate(0.523319,-0.122178)"><title>Sheet.14</title><path d="M0 585.13 L0 588.56 A35.496 33.1485 -180 0 0 13.08 595.28" class="st6"/></g><g id="shape15-87" transform="translate(0.523319,0)"><title>Sheet.15</title><path d="M13.08 595.28 L13.08 591.85 A36.6577 34.2334 0 0 1 0 585.13" class="st16"/></g></g><g id="shape1-91"><text x="-62.32" y="608.28" class="st17">NOVA-VOLUME<tspan x="-62.32" class="st18" dy="1.125em">--</tspan><tspan class="st18">volume</tspan><tspan class="st18">_</tspan><tspan class="st18">driver</tspan><tspan class="st18">=</tspan><tspan class="st18">nova</tspan><tspan class="st18">.</tspan><tspan class="st18">volume</tspan><tspan class="st18">.</tspan><tspan class="st18">driver</tspan><tspan class="st18">.</tspan><tspan class="st18">SheepdogDriver</tspan></text></g></g><g id="group505-105" transform="translate(430.866,-155.906)"><title>File server.505</title><desc>GLANCE --image_service=nova.image.glance.GlanceImageService -...</desc><g id="shape506-106" transform="translate(0,4.25197)"><title>Sheet.506</title><path d="M39.37 595.21 L39.39 580.52 L39.39 595.18 L39.37 595.21 ZM39.39 595.18 A2.38346 2.24998 -180 0 0 42.46 592.77 L42.46 579.97 L41.07 579.18 L51.02 573.82 L51.02 530.57 L31.4 520.06 L0 537.16 L0.01 581.1 A33.0369 30.8521 -180 0 0 19.37 590.92 L25.55 587.54 L39.37 595.21 L39.39 595.18 ZM8.71 544.01 A34.0948 31.84 -180 0 0 19.37 547.79 A33.7139 31.4843 0 0 1 8.71 544.01 Z" class="st19"/><path d="M39.37 595.21 L39.39 580.52 L39.39 595.18M39.39 595.18 A2.38346 2.24998 -180 0 0 42.46 592.77 L42.46 579.97 L41.07 579.18 L51.02 573.82 L51.02 530.57 L31.4 520.06 L0 537.16 L0.01 581.1 A33.0369 30.8521 -180 0 0 19.37 590.92 L25.55 587.54 L39.37 595.21M8.71 544.01 A34.0948 31.84 -180 0 0 19.37 547.79 A33.7139 31.4843 0 0 1 8.71 544.01" class="st20"/></g><g id="shape507-109" transform="translate(0,-43.1295)"><title>Sheet.507</title><path d="M19.36 595.27 L51.02 578.05 L31.4 567.54 L0 584.65 A34.0948 31.84 -180 0 0 19.37 595.28 L19.36 595.27 Z" class="st5"/><path d="M19.36 595.27 L51.02 578.05 L31.4 567.54 L0 584.65 A34.0948 31.84 -180 0 0 19.37 595.28" class="st6"/></g><g id="shape508-113" transform="translate(0.0115937,0)"><title>Sheet.508</title><path d="M19.36 552.15 A33.7139 31.4843 0 0 1 0 541.47 L0 585.45 A33.0369 30.8521 -180 0 0 19.36 595.28 L19.35 552.15 L19.36 552.15 Z" class="st7"/><path d="M19.36 552.15 A33.7139 31.4843 0 0 1 0 541.47 L0 585.45 A33.0369 30.8521 -180 0 0 19.36 595.28 L19.35 552.15" class="st6"/></g><g id="shape509-117" transform="translate(19.3628,-0.0487457)"><title>Sheet.509</title><path d="M0 552.19 L0 595.28 L31.66 578.22 L31.66 534.97 L0 552.19 Z" class="st8"/></g><g id="shape510-120" transform="translate(3.19744E-014,-0.00156214)"><title>Sheet.510</title><path d="M51.02 534.92 L31.4 524.41 L0 541.52 L0.01 585.45 A33.0369 30.8521 -180 0 0 19.37 595.28 L51.02 578.17 L51.02 534.92" class="st9"/></g><g id="shape511-123" transform="translate(-195.389,13.1183) rotate(-20)"><title>Sheet.511</title><ellipse cx="1.482" cy="593.257" class="st10" rx="1.482" ry="2.018"/></g><g id="shape512-126" transform="translate(3.13992,-6.23262)"><title>Sheet.512</title><path d="M-0 583.3 A37.8205 34.5426 -96.44 0 0 13.08 590.02" class="st11"/><path d="M0 585.93 A37.8205 34.5426 -96.44 0 0 13.08 592.65" class="st11"/><path d="M0 588.56 A37.8205 34.5426 -96.44 0 0 13.08 595.28" class="st11"/></g><g id="group513-132" transform="translate(2.6166,-30.546)"><title>Sheet.513</title><g id="shape514-133" transform="translate(0,-7.06961)"><title>Sheet.514</title><path d="M0.47 588.56 A32.9981 30.8159 -180 0 0 13.55 595.28 a0.670503 0.62616 -180 0 0 3.01981E-014 -1.22178 A32.1003 29.9774 0 0 1 0.73 587.53 a0.434387 0.40566 -180 0 0 -0.725202 0.344859 a0.946727 0.884117 -180 0 0 0.463543 0.681433 Z" class="st12"/></g><g id="shape515-135" transform="translate(4.16081,-8.60965)"><title>Sheet.515</title><path d="M4.02 595.23 A4.90309 2.98481 -90.9 0 0 0.1 593.27 A3.22599 1.60837 -180 0 0 4.02 595.23 Z" class="st13"/></g><g id="shape516-138" transform="translate(0.523319,-0.0610888)"><title>Sheet.516</title><path d="M0 585.13 L0 588.56 A35.496 33.1485 -180 0 0 13.08 595.28 L13.08 591.85 A36.6577 34.2334 0 0 1 -0 585.13 Z" class="st14"/></g><g id="shape517-141" transform="translate(0.523319,-1.95484)"><title>Sheet.517</title><path d="M0 588.56 A32.1279 30.0032 -180 0 0 13.08 595.28 L13.08 594.42 A35.5103 33.1619 0 0 1 0 587.7 L0 588.56 Z" class="st15"/></g><g id="shape518-143" transform="translate(0.523319,-0.122178)"><title>Sheet.518</title><path d="M0 585.13 L0 588.56 A35.496 33.1485 -180 0 0 13.08 595.28" class="st6"/></g><g id="shape519-146" transform="translate(0.523319,0)"><title>Sheet.519</title><path d="M13.08 595.28 L13.08 591.85 A36.6577 34.2334 0 0 1 0 585.13" class="st16"/></g></g><g id="group520-150" transform="translate(25.5118,4.25197)"><title>Sheet.520</title><g id="shape521-151" transform="translate(0,0.10033)"><title>Sheet.521</title><path d="M13.88 580.57 L13.88 595.18 A2.38346 2.24998 -180 0 0 16.95 592.77 L16.95 579.97 L8.91 575.38 L8.51 573.64 L1.7 570.37 L1.66 573.62 A3.25736 3.07494 0 0 0 -0 572.97 L13.88 580.57 Z" class="st21"/></g><g id="shape522-158" transform="translate(0,0.0298451)"><title>Sheet.522</title><path d="M0 587.59 L13.86 595.28 L13.88 580.59 L0.01 573 L0 587.59 Z" class="st22"/></g><g id="shape523-165" transform="translate(1.29254,-0.24003)"><title>Sheet.523</title><path d="M0 573.51 L13.12 580.71 L13.09 595.28" class="st23"/></g><g id="shape524-168" transform="translate(-2.9976E-015,-0.0400051)"><title>Sheet.524</title><path d="M0 573.11 L13.88 580.71 L13.86 595.28" class="st6"/></g><g id="shape525-171" transform="translate(0,0.100861)"><title>Sheet.525</title><path d="M0 587.57 L13.88 595.17 A2.38208 2.24868 0 0 0 16.95 592.77 L16.95 579.97 L8.91 575.38 L8.53 573.64 L1.7 570.37 L1.63 573.68 A5.1499 4.86149 -180 0 0 0 572.97 L0 587.57" class="st9"/></g></g><g id="shape505-174"><text x="-67.21" y="608.28" class="st17">GLANCE<tspan x="-67.21" class="st18" dy="1.125em">--</tspan><tspan class="st18">image</tspan><tspan class="st18">_</tspan><tspan class="st18">service</tspan><tspan class="st18">=</tspan><tspan class="st18">nova</tspan><tspan class="st18">.</tspan><tspan class="st18">image</tspan><tspan class="st18">.</tspan><tspan class="st18">glance</tspan><tspan class="st18">.</tspan><tspan class="st18">GlanceImageService</tspan><tspan x="-67.21" class="st18" dy="1em">--</tspan><tspan class="st18">glance</tspan><tspan class="st18">_</tspan><tspan class="st18">api</tspan><tspan class="st18">_</tspan><tspan class="st18">servers</tspan><tspan class="st18">=</tspan><tspan class="st18">$</tspan><tspan class="st18">nova</tspan><tspan class="st18">_</tspan><tspan class="st18">glance</tspan><tspan class="st18">_</tspan><tspan class="st18">host</tspan><tspan x="-67.21" class="st18" dy="1.375em">--</tspan><tspan class="st18">s</tspan><tspan class="st18">3</tspan><tspan class="st18">_</tspan><tspan class="st18">host</tspan><tspan class="st18">=</tspan><tspan class="st18">$</tspan><tspan class="st18">nova</tspan><tspan class="st18">_</tspan><tspan class="st18">glance</tspan><tspan class="st18">_</tspan><tspan class="st18">host</tspan></text></g></g><g id="group51-213" transform="translate(280.63,-62.3622)"><title>Server.51</title><desc>NOVA-SCHEDULER --rabbit_host=$nova_rabbit_host</desc><g id="shape52-214"><title>Sheet.52</title><path d="M51.02 534.92 L31.4 524.41 L0 541.52 L0.01 585.45 A33.0369 30.8521 -180 0 0 19.37 595.28 L51.02 578.17 L51.02 534.92 ZM8.71 548.36 A34.0948 31.84 -180 0 0 19.37 552.15 A33.7139 31.4843 0 0 1 8.71 548.36 Z" class="st4"/></g><g id="shape54-216" transform="translate(0,-43.1295)"><title>Sheet.54</title><path d="M19.36 595.27 L51.02 578.05 L31.4 567.54 L0 584.65 A34.0948 31.84 -180 0 0 19.37 595.28 L19.36 595.27 Z" class="st5"/><path d="M19.36 595.27 L51.02 578.05 L31.4 567.54 L0 584.65 A34.0948 31.84 -180 0 0 19.37 595.28" class="st6"/></g><g id="shape56-220" transform="translate(0.0115937,0)"><title>Sheet.56</title><path d="M19.36 552.15 A33.7139 31.4843 0 0 1 0 541.47 L0 585.45 A33.0369 30.8521 -180 0 0 19.36 595.28 L19.35 552.15 L19.36 552.15 Z" class="st7"/><path d="M19.36 552.15 A33.7139 31.4843 0 0 1 0 541.47 L0 585.45 A33.0369 30.8521 -180 0 0 19.36 595.28 L19.35 552.15" class="st6"/></g><g id="shape89-224" transform="translate(19.3628,-0.0487457)"><title>Sheet.89</title><path d="M0 552.19 L0 595.28 L31.66 578.22 L31.66 534.97 L0 552.19 Z" class="st8"/></g><g id="shape90-227" transform="translate(3.19744E-014,-0.00156214)"><title>Sheet.90</title><path d="M51.02 534.92 L31.4 524.41 L0 541.52 L0.01 585.45 A33.0369 30.8521 -180 0 0 19.37 595.28 L51.02 578.17 L51.02 534.92" class="st9"/></g><g id="shape91-230" transform="translate(-195.389,13.1183) rotate(-20)"><title>Sheet.91</title><ellipse cx="1.482" cy="593.257" class="st10" rx="1.482" ry="2.018"/></g><g id="shape92-233" transform="translate(3.13992,-6.23262)"><title>Sheet.92</title><path d="M-0 583.3 A37.8205 34.5426 -96.44 0 0 13.08 590.02" class="st11"/><path d="M0 585.93 A37.8205 34.5426 -96.44 0 0 13.08 592.65" class="st11"/><path d="M0 588.56 A37.8205 34.5426 -96.44 0 0 13.08 595.28" class="st11"/></g><g id="group93-239" transform="translate(2.6166,-30.546)"><title>Sheet.93</title><g id="shape94-240" transform="translate(0,-7.06961)"><title>Sheet.94</title><path d="M0.47 588.56 A32.9981 30.8159 -180 0 0 13.55 595.28 a0.670503 0.62616 -180 0 0 3.01981E-014 -1.22178 A32.1003 29.9774 0 0 1 0.73 587.53 a0.434387 0.40566 -180 0 0 -0.725202 0.344859 a0.946727 0.884117 -180 0 0 0.463543 0.681433 Z" class="st12"/></g><g id="shape95-242" transform="translate(4.16081,-8.60965)"><title>Sheet.95</title><path d="M4.02 595.23 A4.90309 2.98481 -90.9 0 0 0.1 593.27 A3.22599 1.60837 -180 0 0 4.02 595.23 Z" class="st13"/></g><g id="shape96-245" transform="translate(0.523319,-0.0610888)"><title>Sheet.96</title><path d="M0 585.13 L0 588.56 A35.496 33.1485 -180 0 0 13.08 595.28 L13.08 591.85 A36.6577 34.2334 0 0 1 -0 585.13 Z" class="st14"/></g><g id="shape97-248" transform="translate(0.523319,-1.95484)"><title>Sheet.97</title><path d="M0 588.56 A32.1279 30.0032 -180 0 0 13.08 595.28 L13.08 594.42 A35.5103 33.1619 0 0 1 0 587.7 L0 588.56 Z" class="st15"/></g><g id="shape98-250" transform="translate(0.523319,-0.122178)"><title>Sheet.98</title><path d="M0 585.13 L0 588.56 A35.496 33.1485 -180 0 0 13.08 595.28" class="st6"/></g><g id="shape99-253" transform="translate(0.523319,0)"><title>Sheet.99</title><path d="M13.08 595.28 L13.08 591.85 A36.6577 34.2334 0 0 1 0 585.13" class="st16"/></g></g><g id="shape51-257"><text x="-29.55" y="608.28" class="st17">NOVA-SCHEDULER<tspan x="-29.55" class="st18" dy="1.125em">--</tspan><tspan class="st18">rabbit</tspan><tspan class="st18">_</tspan><tspan class="st18">host</tspan><tspan class="st18">=</tspan><tspan class="st18">$</tspan><tspan class="st18">nova</tspan><tspan class="st18">_</tspan><tspan class="st18">rabbit</tspan><tspan class="st18">_</tspan><tspan class="st18">host</tspan></text></g></g><g id="group23-270" transform="translate(725.669,-411.024)"><title>Document</title><desc>Nova.conf</desc><g id="shape24-271" transform="translate(3.63208,-6.13307)"><title>Sheet.24</title><path d="M49.43 549.04 L36.8 536.66 L0 536.68 L0 595.28 L49.41 595.28 L49.41 550.87 L49.43 550.87 L49.43 549.04 Z" class="st24"/></g><g id="shape25-273" transform="translate(3.68158,-6.1122)"><title>Sheet.25</title><path d="M36.75 536.7 L0 536.7 L0 595.28 L49.32 595.28 L49.32 549.02 L36.75 536.7 Z" class="st25"/></g><g id="shape26-279" transform="translate(39.5908,-51.9709)"><title>Sheet.26</title><path d="M13.41 594.88 L0.84 582.56 L0 582.56 L0 595.28 L13.41 595.27 L13.41 594.88 Z" class="st26"/></g><g id="shape27-281" transform="translate(40.3041,-52.6834)"><title>Sheet.27</title><path d="M0 595.28 L11.95 595.27 L0 583.68 L0 595.28 Z" class="st24"/></g><g id="shape28-283" transform="translate(3.63208,-6.13695)"><title>Sheet.28</title><path d="M49.43 549.04 L36.8 536.66 L0 536.68 L0 595.28 L49.41 595.28 L49.41 550.87 L49.43 550.87 L49.43 549.04 Z" class="st27"/></g><g id="shape29-285" transform="translate(8.57608,-50.4657)"><title>Sheet.29</title><rect width="22.888" height=".535" x="0" y="594.741" class="st28"/></g><g id="shape30-289" transform="translate(8.57608,-44.2594)"><title>Sheet.30</title><rect width="37.629" height=".535" x="0" y="594.741" class="st28"/></g><g id="shape31-292" transform="translate(8.57608,-38.4402)"><title>Sheet.31</title><rect width="37.629" height=".534" x="0" y="594.742" class="st28"/></g><g id="shape32-295" transform="translate(8.57608,-32.6209)"><title>Sheet.32</title><rect width="37.629" height=".535" x="0" y="594.741" class="st28"/></g><g id="shape33-298" transform="translate(8.57608,-26.8017)"><title>Sheet.33</title><rect width="37.629" height=".535" x="0" y="594.741" class="st28"/></g><g id="shape34-301" transform="translate(8.57608,-20.9832)"><title>Sheet.34</title><rect width="37.629" height=".535" x="0" y="594.741" class="st28"/></g><g id="shape35-304" transform="translate(8.57608,-15.1647)"><title>Sheet.35</title><rect width="37.629" height=".534" x="0" y="594.742" class="st28"/></g><g id="shape23-307"><text x="3.53" y="610.08" class="st17">Nova.conf</text></g></g><g id="group37-309" transform="translate(243.78,-236.693)"><title>Data</title><g id="shape38-310" transform="translate(0,0.000575512)"><title>Sheet.38</title><path d="M25.47 577.16 A12.7332 7.39846 0.18 0 1 25.16 578.8 A12.7332 7.39846 -179.82 0 0 25.47 577.16 ZM25.47 577.16 A12.7332 7.39846 -179.82 0 0 0 577.16 L0 587.88 A12.7332 7.39849 -179.82 0 0 25.47 587.88 L25.51 587.88 L25.51 577.16 L25.47 577.16 Z" class="st4"/></g><g id="shape39-312" transform="translate(-1.29896E-013,-10.7148)"><title>Sheet.39</title><path d="M0 587.84 A12.7332 7.39846 -179.82 1 1 25.47 587.92 A12.7332 7.39846 -179.82 1 1 0 587.84 Z" class="st29"/></g><g id="shape40-316"><title>Sheet.40</title><path d="M0 577.16 L0 587.84 L0 587.88 A12.7332 7.39849 -179.82 0 0 25.47 587.88 L25.51 587.88 L25.51 577.16 L25.47 577.16 A12.7332 7.39846 0.18 0 1 0 577.16 L0 577.16 Z" class="st30"/><path d="M0 577.16 L0 587.84 L0 587.88 A12.7332 7.39849 -179.82 0 0 25.47 587.88 L25.51 587.88 L25.51 577.16 L25.47 577.16 A12.7332 7.39846 0.18 0 1 0 577.16" class="st31"/></g><g id="shape41-323" transform="translate(0,0.000207184)"><title>Sheet.41</title><path d="M25.47 577.16 A12.7332 7.39846 -179.82 1 0 0 577.16 L0 587.88 A12.7332 7.39849 -179.82 0 0 25.47 587.88 L25.51 587.88 L25.51 577.16 L25.47 577.16" class="st32"/></g></g><g id="group36-326" transform="translate(507.402,-395.433)"><title>Web server</title><desc>NOVA-API --ec2_url=http://$nova_api_host:8773/services/Cloud</desc><g id="shape42-327"><title>Sheet.42</title><path d="M45.44 583.66 A6.43747 6.08752 -178.74 0 0 45.27 582.12 A9.9584 9.68178 -180 0 0 45.09 581.37 L51.02 578.17 L51.02 534.92 L31.4 524.41 L0 541.52 L0.01 585.45 A33.0369 30.8521 -180 0 0 19.37 595.28 L28.15 590.49 A9.9584 9.68178 -180 0 0 43.23 590.03 A9.9584 9.68178 -180 0 0 44.26 588.52 A9.78912 9.25704 -1.36 0 0 45.44 583.66 ZM8.71 548.36 A34.0948 31.84 -180 0 0 19.37 552.15 A33.7139 31.4843 0 0 1 8.71 548.36 Z" class="st4"/></g><g id="shape43-329" transform="translate(0,-43.1295)"><title>Sheet.43</title><path d="M19.36 595.27 L51.02 578.05 L31.4 567.54 L0 584.65 A34.0948 31.84 -180 0 0 19.37 595.28 L19.36 595.27 Z" class="st5"/><path d="M19.36 595.27 L51.02 578.05 L31.4 567.54 L0 584.65 A34.0948 31.84 -180 0 0 19.37 595.28" class="st6"/></g><g id="shape44-333" transform="translate(0.0115937,0)"><title>Sheet.44</title><path d="M19.36 552.15 A33.7139 31.4843 0 0 1 0 541.47 L0 585.45 A33.0369 30.8521 -180 0 0 19.36 595.28 L19.35 552.15 L19.36 552.15 Z" class="st7"/><path d="M19.36 552.15 A33.7139 31.4843 0 0 1 0 541.47 L0 585.45 A33.0369 30.8521 -180 0 0 19.36 595.28 L19.35 552.15" class="st6"/></g><g id="shape45-337" transform="translate(19.3628,-0.0487457)"><title>Sheet.45</title><path d="M0 552.19 L0 595.28 L31.66 578.22 L31.66 534.97 L0 552.19 Z" class="st8"/></g><g id="shape46-340" transform="translate(3.19744E-014,-0.00156214)"><title>Sheet.46</title><path d="M51.02 534.92 L31.4 524.41 L0 541.52 L0.01 585.45 A33.0369 30.8521 -180 0 0 19.37 595.28 L51.02 578.17 L51.02 534.92" class="st9"/></g><g id="shape47-343" transform="translate(-195.389,13.1183) rotate(-20)"><title>Sheet.47</title><ellipse cx="1.482" cy="593.257" class="st10" rx="1.482" ry="2.018"/></g><g id="shape48-346" transform="translate(3.13992,-6.23262)"><title>Sheet.48</title><path d="M-0 583.3 A37.8205 34.5426 -96.44 0 0 13.08 590.02" class="st11"/><path d="M0 585.93 A37.8205 34.5426 -96.44 0 0 13.08 592.65" class="st11"/><path d="M0 588.56 A37.8205 34.5426 -96.44 0 0 13.08 595.28" class="st11"/></g><g id="group49-352" transform="translate(2.6166,-30.546)"><title>Sheet.49</title><g id="shape50-353" transform="translate(0,-7.06961)"><title>Sheet.50</title><path d="M0.47 588.56 A32.9981 30.8159 -180 0 0 13.55 595.28 a0.670503 0.62616 -180 0 0 3.01981E-014 -1.22178 A32.1003 29.9774 0 0 1 0.73 587.53 a0.434387 0.40566 -180 0 0 -0.725202 0.344859 a0.946727 0.884117 -180 0 0 0.463543 0.681433 Z" class="st12"/></g><g id="shape53-355" transform="translate(4.16081,-8.60965)"><title>Sheet.53</title><path d="M4.02 595.23 A4.90309 2.98481 -90.9 0 0 0.1 593.27 A3.22599 1.60837 -180 0 0 4.02 595.23 Z" class="st13"/></g><g id="shape55-358" transform="translate(0.523319,-0.0610888)"><title>Sheet.55</title><path d="M0 585.13 L0 588.56 A35.496 33.1485 -180 0 0 13.08 595.28 L13.08 591.85 A36.6577 34.2334 0 0 1 -0 585.13 Z" class="st14"/></g><g id="shape57-361" transform="translate(0.523319,-1.95484)"><title>Sheet.57</title><path d="M0 588.56 A32.1279 30.0032 -180 0 0 13.08 595.28 L13.08 594.42 A35.5103 33.1619 0 0 1 0 587.7 L0 588.56 Z" class="st15"/></g><g id="shape58-363" transform="translate(0.523319,-0.122178)"><title>Sheet.58</title><path d="M0 585.13 L0 588.56 A35.496 33.1485 -180 0 0 13.08 595.28" class="st6"/></g><g id="shape59-366" transform="translate(0.523319,0)"><title>Sheet.59</title><path d="M13.08 595.28 L13.08 591.85 A36.6577 34.2334 0 0 1 0 585.13" class="st16"/></g></g><g id="group60-370" transform="translate(25.5273,-1.65118)"><title>Sheet.60</title><g id="group61-371" transform="translate(0,-0.00513694)"><title>Sheet.61</title><g id="shape62-372"><title>Sheet.62</title><ellipse cx="9.958" cy="585.594" class="st33" rx="9.958" ry="9.682"/><ellipse cx="9.958" cy="585.594" class="st34" rx="9.958" ry="9.682"/></g><g id="shape63-377" transform="translate(0.828324,-0.217214)"><title>Sheet.63</title><path d="M7.89 595.28 L9.04 592.31 A5.25009 4.96708 -3.94 0 0 10.94 589.28 A2.41598 2.28452 -180 0 0 9.08 587.45 A2.60577 2.46398 -180 0 0 7.22 588.53 L6.76 587.81 A1.97644 1.92154 -180 0 0 8.08 586.32 A3.70546 3.50383 0 0 1 6.59 585.22 L8.24 583.9 L8.66 582.15 L7.42 581.37 L8.21 580.43 L6.74 579.42 L7.14 578.31 L9.44 578.95 L9.34 580.78 L10.25 581.05 L11.48 580.49 L12.46 581.27 L13.65 583.94 L13.28 585.41 L12.45 585.94 L12.81 586.94 A1.6741 1.58301 -180 0 0 15.32 587.95 A1.91881 1.8144 0 0 1 16.41 589.64 L16.84 591.88 A9.78912 9.25704 -1.36 0 0 19.08 585.53 A6.43747 6.08752 -178.74 0 0 17.99 582 A7.01114 6.62964 -180 0 0 16.29 579.6 A1.91105 1.80706 -180 0 0 14.89 580.89 L15.31 582.19 A1.26932 1.20025 0 0 1 13.78 582.11 L13.57 584.04 A15.502 14.6585 -180 0 0 12.53 581.52 L13.82 581.02 L13.33 580.3 L12.46 580.11 L12.49 579.53 L12.9 577.28 L10.75 576.68 L9.67 577.25 L8.96 576.52 L7.7 576.41 L5 577.86 L6.25 578.62 L5.33 580.01 A1.32913 1.25681 0 0 1 6.5 581.44 a0.501467 0.474181 0 0 1 -0.700995 0.544022 a0.792588 0.74946 0 0 1 -1.08397 -0.803087 L5.08 579.66 L4.64 578.18 L2.71 578.48 L2.76 579.41 L2.31 579.81 L1.4 579.72 A7.82272 7.60542 -180 0 0 -0 581.98 L1.08 582.38 A3.73445 3.53125 0 0 1 1.9 584.9 A3.4823 3.29282 -180 0 0 5.22 586.65 A2.48634 2.35105 0 0 1 6.94 588.81 A1.35335 1.27971 -180 0 0 6.68 590.47 L7.86 591.03 A1.58292 1.49678 0 0 1 7.22 592.4 A4.29519 4.06147 -180 0 0 7.89 595.28 Z" class="st35"/></g></g><g id="shape64-380" transform="translate(0.00268587,0)"><title>Sheet.64</title><ellipse cx="9.959" cy="585.595" class="st36" rx="9.959" ry="9.68"/><ellipse cx="9.959" cy="585.595" class="st9" rx="9.959" ry="9.68"/></g></g><g id="shape36-383"><text x="-63.54" y="608.28" class="st17">NOVA-API<tspan x="-63.54" class="st18" dy="1.125em">--</tspan><tspan class="st18">ec</tspan><tspan class="st18">2</tspan><tspan class="st18">_</tspan><tspan class="st18">url</tspan><tspan class="st18">=</tspan><tspan class="st18">http</tspan><tspan class="st18">://</tspan><tspan class="st18">$</tspan><tspan class="st18">nova</tspan><tspan class="st18">_</tspan><tspan class="st18">api</tspan><tspan class="st18">_</tspan><tspan class="st18">host</tspan><tspan class="st18">:</tspan><tspan class="st18">8773</tspan><tspan class="st18">/</tspan><tspan class="st18">services</tspan><tspan class="st18">/</tspan><tspan class="st18">Cloud</tspan></text></g></g><g id="group65-405" transform="translate(657.638,-155.907)"><title>Directory server</title><desc>NOVA-LDAP --auth_driver=nova.auth.ldapdriver.LdapDriver --lda...</desc><g id="shape66-406" transform="translate(0,8.85827)"><title>Sheet.66</title><path d="M44.5 572.83 L51.02 569.31 L51.02 526.06 L31.4 515.55 L0 532.66 L0.01 576.59 A33.0369 30.8521 -180 0 0 19.37 586.42 L23.39 584.2 A9.60302 9.33627 -180 0 0 23.69 588.19 L36.31 595.28 L53.67 585.53 A5.01815 4.87875 0 0 1 53.67 580.22 L44.82 575.25 L55.13 569.46 A32.7612 31.8511 0 0 1 44.5 572.83 ZM8.71 539.5 A34.0948 31.84 -180 0 0 19.37 543.29 A33.7139 31.4843 0 0 1 8.71 539.5 Z" class="st4"/></g><g id="shape67-408" transform="translate(0,-43.1295)"><title>Sheet.67</title><path d="M19.36 595.27 L51.02 578.05 L31.4 567.54 L0 584.65 A34.0948 31.84 -180 0 0 19.37 595.28 L19.36 595.27 Z" class="st5"/><path d="M19.36 595.27 L51.02 578.05 L31.4 567.54 L0 584.65 A34.0948 31.84 -180 0 0 19.37 595.28" class="st6"/></g><g id="shape68-412" transform="translate(0.0115937,0)"><title>Sheet.68</title><path d="M19.36 552.15 A33.7139 31.4843 0 0 1 0 541.47 L0 585.45 A33.0369 30.8521 -180 0 0 19.36 595.28 L19.35 552.15 L19.36 552.15 Z" class="st7"/><path d="M19.36 552.15 A33.7139 31.4843 0 0 1 0 541.47 L0 585.45 A33.0369 30.8521 -180 0 0 19.36 595.28 L19.35 552.15" class="st6"/></g><g id="shape69-416" transform="translate(19.3628,-0.0487457)"><title>Sheet.69</title><path d="M0 552.19 L0 595.28 L31.66 578.22 L31.66 534.97 L0 552.19 Z" class="st8"/></g><g id="shape70-419" transform="translate(3.19744E-014,-0.00156214)"><title>Sheet.70</title><path d="M51.02 534.92 L31.4 524.41 L0 541.52 L0.01 585.45 A33.0369 30.8521 -180 0 0 19.37 595.28 L51.02 578.17 L51.02 534.92" class="st9"/></g><g id="shape71-422" transform="translate(-195.389,13.1183) rotate(-20)"><title>Sheet.71</title><ellipse cx="1.482" cy="593.257" class="st10" rx="1.482" ry="2.018"/></g><g id="shape72-425" transform="translate(3.13992,-6.23262)"><title>Sheet.72</title><path d="M-0 583.3 A37.8205 34.5426 -96.44 0 0 13.08 590.02" class="st11"/><path d="M0 585.93 A37.8205 34.5426 -96.44 0 0 13.08 592.65" class="st11"/><path d="M0 588.56 A37.8205 34.5426 -96.44 0 0 13.08 595.28" class="st11"/></g><g id="group73-431" transform="translate(2.6166,-30.546)"><title>Sheet.73</title><g id="shape74-432" transform="translate(0,-7.06961)"><title>Sheet.74</title><path d="M0.47 588.56 A32.9981 30.8159 -180 0 0 13.55 595.28 a0.670503 0.62616 -180 0 0 3.01981E-014 -1.22178 A32.1003 29.9774 0 0 1 0.73 587.53 a0.434387 0.40566 -180 0 0 -0.725202 0.344859 a0.946727 0.884117 -180 0 0 0.463543 0.681433 Z" class="st12"/></g><g id="shape75-434" transform="translate(4.16081,-8.60965)"><title>Sheet.75</title><path d="M4.02 595.23 A4.90309 2.98481 -90.9 0 0 0.1 593.27 A3.22599 1.60837 -180 0 0 4.02 595.23 Z" class="st13"/></g><g id="shape76-437" transform="translate(0.523319,-0.0610888)"><title>Sheet.76</title><path d="M0 585.13 L0 588.56 A35.496 33.1485 -180 0 0 13.08 595.28 L13.08 591.85 A36.6577 34.2334 0 0 1 -0 585.13 Z" class="st14"/></g><g id="shape77-440" transform="translate(0.523319,-1.95484)"><title>Sheet.77</title><path d="M0 588.56 A32.1279 30.0032 -180 0 0 13.08 595.28 L13.08 594.42 A35.5103 33.1619 0 0 1 0 587.7 L0 588.56 Z" class="st15"/></g><g id="shape78-442" transform="translate(0.523319,-0.122178)"><title>Sheet.78</title><path d="M0 585.13 L0 588.56 A35.496 33.1485 -180 0 0 13.08 595.28" class="st6"/></g><g id="shape79-445" transform="translate(0.523319,0)"><title>Sheet.79</title><path d="M13.08 595.28 L13.08 591.85 A36.6577 34.2334 0 0 1 0 585.13" class="st16"/></g></g><g id="group80-449" transform="translate(23.2923,8.85827)"><title>Sheet.80</title><g id="shape81-450" transform="translate(12.2125,0)"><title>Sheet.81</title><path d="M0.81 595.28 L18.17 585.53 A5.01815 4.87875 0 0 1 18.17 580.22 L0.81 589.96 A5.01815 4.87875 -180 0 0 0.81 595.28 Z" class="st37"/></g><g id="shape82-452" transform="translate(0.397235,-5.31496)"><title>Sheet.82</title><path d="M12.63 595.28 L29.98 585.53 L17.36 578.44 L0 588.19 L12.63 595.28 Z" class="st38"/></g><g id="shape83-456"><title>Sheet.83</title><path d="M0.4 588.19 L13.02 595.28 A5.01815 4.87875 0 0 1 13.02 589.96 L0.4 582.87 A9.60302 9.33627 -180 0 0 0.4 588.19 Z" class="st39"/></g><g id="shape84-460" transform="translate(6.95742,-8.32677)"><title>Sheet.84</title><path d="M7.89 595.28 L0 590.85" class="st31"/><path d="M2.58 589.4 L10.47 593.83" class="st31"/><path d="M5.17 587.95 L13.06 592.38" class="st31"/><path d="M7.75 586.5 L15.64 590.93" class="st31"/><path d="M10.33 585.05 L18.22 589.48" class="st31"/></g><g id="shape85-467" transform="translate(0.397235,-12.4016)"><title>Sheet.85</title><path d="M14.08 591.61 L31.44 581.86 A32.7612 31.8511 0 0 1 17.36 585.53 L0 595.28 A32.7612 31.8511 -180 0 0 14.08 591.61 Z" class="st40"/></g><g id="shape86-473" transform="translate(18.8088,-5.01969)"><title>Sheet.86</title><path d="M2.68 593.77 L0 595.28" class="st31"/><path d="M3.47 592.44 L6.15 590.94" class="st31"/><path d="M6.94 589.61 L9.63 588.1" class="st31"/></g><g id="shape87-478"><title>Sheet.87</title><path d="M0.4 588.19 L13.02 595.28 L30.38 585.53 A5.01815 4.87875 0 0 1 30.38 580.22 L21.54 575.26 L31.84 569.46 A32.7612 31.8511 0 0 1 17.76 573.13 L0.4 582.87 A9.60302 9.33627 -180 0 0 0.4 588.19" class="st9"/></g></g><g id="shape65-481"><text x="-88.63" y="608.28" class="st17">NOVA-LDAP<tspan x="-88.63" class="st18" dy="1.125em">--</tspan><tspan class="st18">auth</tspan><tspan class="st18">_</tspan><tspan class="st18">driver</tspan><tspan class="st18">=</tspan><tspan class="st18">nova</tspan><tspan class="st18">.</tspan><tspan class="st18">auth</tspan><tspan class="st18">.</tspan><tspan class="st18">ldapdriver</tspan><tspan class="st18">.</tspan><tspan class="st18">LdapDriver</tspan><tspan x="-88.63" class="st18" dy="1em">--</tspan><tspan class="st18">ldap</tspan><tspan class="st18">_</tspan><tspan class="st18">url</tspan><tspan class="st18">=</tspan><tspan class="st18">ldap</tspan><tspan class="st18">://</tspan><tspan class="st18">$</tspan><tspan class="st18">nova</tspan><tspan class="st18">_</tspan><tspan class="st18">ldap</tspan><tspan class="st18">_</tspan><tspan class="st18">host</tspan><tspan x="-88.63" class="st18" dy="1em">--</tspan><tspan class="st18">ldap</tspan><tspan class="st18">_</tspan><tspan class="st18">password</tspan><tspan class="st18">=</tspan><tspan class="st18">$</tspan><tspan class="st18">nova</tspan><tspan class="st18">_</tspan><tspan class="st18">ldap</tspan><tspan class="st18">_</tspan><tspan class="st18">user</tspan><tspan class="st18">_</tspan><tspan class="st18">pass</tspan><tspan x="-88.63" class="st18" dy="1em">--</tspan><tspan class="st18">ldap</tspan><tspan class="st18">_</tspan><tspan class="st18">user</tspan><tspan class="st18">_</tspan><tspan class="st18">dn</tspan><tspan class="st18">=</tspan><tspan class="st18">$</tspan><tspan class="st18">nova</tspan><tspan class="st18">_</tspan><tspan class="st18">ldap</tspan><tspan class="st18">_</tspan><tspan class="st18">user</tspan><tspan class="st18">_</tspan><tspan class="st18">dn</tspan><tspan x="-88.63" class="st18" dy="1em">--</tspan><tspan class="st18">ldap</tspan><tspan class="st18">_</tspan><tspan class="st18">user</tspan><tspan class="st18">_</tspan><tspan class="st18">unit</tspan><tspan class="st18">=</tspan><tspan class="st18">people</tspan><tspan x="-88.63" class="st18" dy="1em">--</tspan><tspan class="st18">ldap</tspan><tspan class="st18">_</tspan><tspan class="st18">user</tspan><tspan class="st18">_</tspan><tspan class="st18">subtree</tspan><tspan class="st18">=</tspan><tspan class="st18">ou</tspan><tspan class="st18">=</tspan><tspan class="st18">people</tspan><tspan class="st18">,$</tspan><tspan class="st18">nova</tspan><tspan class="st18">_</tspan><tspan class="st18">ldap</tspan><tspan class="st18">_</tspan><tspan class="st18">base</tspan><tspan class="st18">_</tspan><tspan class="st18">dn</tspan><tspan x="-88.63" class="st18" dy="1em">--</tspan><tspan class="st18">ldap</tspan><tspan class="st18">_</tspan><tspan class="st18">project</tspan><tspan class="st18">_</tspan><tspan class="st18">subtree</tspan><tspan class="st18">=</tspan><tspan class="st18">ou</tspan><tspan class="st18">=</tspan><tspan class="st18">groups</tspan><tspan class="st18">,$</tspan><tspan class="st18">nova</tspan><tspan class="st18">_</tspan><tspan class="st18">ldap</tspan><tspan class="st18">_</tspan><tspan class="st18">base</tspan><tspan class="st18">_</tspan><tspan class="st18">dn</tspan><tspan x="-88.63" class="st18" dy="1em">--</tspan><tspan class="st18">role</tspan><tspan class="st18">_</tspan><tspan class="st18">project</tspan><tspan class="st18">_</tspan><tspan class="st18">subtree</tspan><tspan class="st18">=</tspan><tspan class="st18">ou</tspan><tspan class="st18">=</tspan><tspan class="st18">groups</tspan><tspan class="st18">,$</tspan><tspan class="st18">nova</tspan><tspan class="st18">_</tspan><tspan class="st18">ldap</tspan><tspan class="st18">_</tspan><tspan class="st18">base</tspan><tspan class="st18">_</tspan><tspan class="st18">dn</tspan><tspan x="-88.63" class="st18" dy="1em">--</tspan><tspan class="st18">ldap</tspan><tspan class="st18">_</tspan><tspan class="st18">cloudadmin</tspan><tspan class="st18">=</tspan><tspan class="st18">cn</tspan><tspan class="st18">=</tspan><tspan class="st18">cloudadmins</tspan><tspan class="st18">,</tspan><tspan class="st18">ou</tspan><tspan class="st18">=</tspan><tspan class="st18">groups</tspan><tspan class="st18">,$</tspan><tspan class="st18">nova</tspan><tspan class="st18">_</tspan><tspan class="st18">ldap</tspan><tspan class="st18">_</tspan><tspan class="st18">base</tspan><tspan class="st18">_</tspan><tspan class="st18">dn</tspan><tspan x="-88.63" class="st18" dy="1em">--</tspan><tspan class="st18">ldap</tspan><tspan class="st18">_</tspan><tspan class="st18">itsec</tspan><tspan class="st18">=</tspan><tspan class="st18">cn</tspan><tspan class="st18">=</tspan><tspan class="st18">itsec</tspan><tspan class="st18">,</tspan><tspan class="st18">ou</tspan><tspan class="st18">=</tspan><tspan class="st18">groups</tspan><tspan class="st18">,$</tspan><tspan class="st18">nova</tspan><tspan class="st18">_</tspan><tspan class="st18">ldap</tspan><tspan class="st18">_</tspan><tspan class="st18">base</tspan><tspan class="st18">_</tspan><tspan class="st18">dn</tspan><tspan x="-88.63" class="st18" dy="1em">--</tspan><tspan class="st18">ldap</tspan><tspan class="st18">_</tspan><tspan class="st18">sysadmin</tspan><tspan class="st18">=</tspan><tspan class="st18">cn</tspan><tspan class="st18">=</tspan><tspan class="st18">sysadmins</tspan><tspan class="st18">,$</tspan><tspan class="st18">nova</tspan><tspan class="st18">_</tspan><tspan class="st18">ldap</tspan><tspan class="st18">_</tspan><tspan class="st18">base</tspan><tspan class="st18">_</tspan><tspan class="st18">dn</tspan><tspan x="-88.63" class="st18" dy="1em">--</tspan><tspan class="st18">ldap</tspan><tspan class="st18">_</tspan><tspan class="st18">netadmin</tspan><tspan class="st18">=</tspan><tspan class="st18">cn</tspan><tspan class="st18">=</tspan><tspan class="st18">netadmins</tspan><tspan class="st18">,$</tspan><tspan class="st18">nova</tspan><tspan class="st18">_</tspan><tspan class="st18">ldap</tspan><tspan class="st18">_</tspan><tspan class="st18">base</tspan><tspan class="st18">_</tspan><tspan class="st18">dn</tspan><tspan x="-88.63" class="st18" dy="1em">--</tspan><tspan class="st18">ldap</tspan><tspan class="st18">_</tspan><tspan class="st18">developer</tspan><tspan class="st18">=</tspan><tspan class="st18">cn</tspan><tspan class="st18">=</tspan><tspan class="st18">developers</tspan><tspan class="st18">,$</tspan><tspan class="st18">nova</tspan><tspan class="st18">_</tspan><tspan class="st18">ldap</tspan><tspan class="st18">_</tspan><tspan class="st18">base</tspan><tspan class="st18">_</tspan><tspan class="st18">dn</tspan></text></g></g><g id="group17-686" transform="translate(354.331,-311.811)"><title>Application server.57</title><desc>NOVA-COMPUTE --libvirt_type=kvm --ajax_console_proxy_url=$nov...</desc><g id="shape88-687"><title>Sheet.88</title><path d="M39.69 534.24 L29 528.28 L27.78 528.97 L27.78 527.54 L17.1 521.58 L0 531.28 L0.01 556.2 A17.9868 17.5015 -180 0 0 1.22 557.39 L0 558.08 L0.01 583 A17.9868 17.5015 -180 0 0 10.55 588.58 L11.91 587.78 L11.91 589.7 A17.9868 17.5015 -180 0 0 22.45 595.28 L39.69 585.57 L39.69 561.04 L37.66 559.91 L39.69 558.77 L39.69 534.24 ZM4.74 535.16 A18.5627 18.0619 -180 0 0 10.55 537.31 A18.3554 17.8602 0 0 1 4.74 535.16 ZM4.74 561.96 A18.5627 18.0619 -180 0 0 10.55 564.11 A18.3554 17.8602 0 0 1 4.74 561.96 Z" class="st4"/></g><g id="group104-689" transform="translate(0,-6.70007)"><title>Sheet.104</title><g id="shape105-690" transform="translate(0,-24.4662)"><title>Sheet.105</title><path d="M10.54 595.28 L27.78 585.5 L17.1 579.54 L0 589.25 A18.5627 18.0619 -180 0 0 10.55 595.28 L10.54 595.28 Z" class="st5"/><path d="M10.54 595.28 L27.78 585.5 L17.1 579.54 L0 589.25 A18.5627 18.0619 -180 0 0 10.55 595.28" class="st6"/></g><g id="shape106-694" transform="translate(0.00631215,0)"><title>Sheet.106</title><path d="M10.54 570.81 A18.3554 17.8602 0 0 1 -0 564.75 L0 589.7 A17.9868 17.5015 -180 0 0 10.54 595.28 L10.54 570.81 L10.54 570.81 Z" class="st7"/><path d="M10.54 570.81 A18.3554 17.8602 0 0 1 -0 564.75 L0 589.7 A17.9868 17.5015 -180 0 0 10.54 595.28 L10.54 570.81" class="st6"/></g><g id="shape107-698" transform="translate(10.542,-0.0276521)"><title>Sheet.107</title><path d="M0 570.84 L0 595.28 L17.24 585.6 L17.24 561.06 L0 570.84 Z" class="st8"/></g><g id="shape119-701" transform="translate(2.19824E-014,-0.000886157)"><title>Sheet.119</title><path d="M27.78 561.04 L17.1 555.08 L0 564.78 L0.01 589.7 A17.9868 17.5015 -180 0 0 10.55 595.28 L27.78 585.57 L27.78 561.04" class="st9"/></g><g id="shape120-704" transform="translate(-199.117,22.9607) rotate(-20)"><title>Sheet.120</title><ellipse cx=".811" cy="594.136" class="st10" rx=".811" ry="1.139"/></g><g id="shape121-707" transform="translate(1.70951,-3.5356)"><title>Sheet.121</title><path d="M0 588.48 A21.4469 18.8132 -94.43 0 0 7.12 592.3" class="st11"/><path d="M0 589.97 A21.4469 18.8132 -94.43 0 0 7.12 593.79" class="st11"/><path d="M0 591.46 A21.4469 18.8132 -94.43 0 0 7.12 595.28" class="st11"/></g><g id="group122-713" transform="translate(1.42459,-17.3279)"><title>Sheet.122</title><g id="shape123-714" transform="translate(0,-4.0104)"><title>Sheet.123</title><path d="M0.25 591.46 A17.9656 17.481 -180 0 0 7.38 595.28 a0.365051 0.355204 -180 0 0 1.24345E-014 -0.69308 A17.4768 17.0054 0 0 1 0.4 590.88 a0.2365 0.23012 -180 0 0 -0.394832 0.195629 a0.51544 0.501535 -180 0 0 0.252373 0.386559 Z" class="st12"/></g><g id="shape124-716" transform="translate(2.26533,-4.88402)"><title>Sheet.124</title><path d="M2.19 595.25 A2.78136 1.62508 -90.83 0 0 0.05 594.14 a1.75637 0.912383 -180 0 0 2.13689 1.10893 Z" class="st13"/></g><g id="shape125-719" transform="translate(0.284918,-0.034654)"><title>Sheet.125</title><path d="M0 589.52 L0 591.46 A19.3256 18.8043 -180 0 0 7.12 595.28 L7.12 593.33 A19.9581 19.4197 0 0 1 -0 589.52 Z" class="st14"/></g><g id="shape126-722" transform="translate(0.284918,-1.10893)"><title>Sheet.126</title><path d="M0 591.46 A17.4919 17.02 -180 0 0 7.12 595.28 L7.12 594.79 A19.3334 18.8118 0 0 1 0 590.98 L0 591.46 Z" class="st15"/></g><g id="shape127-724" transform="translate(0.284918,-0.069308)"><title>Sheet.127</title><path d="M0 589.52 L0 591.46 A19.3256 18.8043 -180 0 0 7.12 595.28" class="st6"/></g><g id="shape128-727" transform="translate(0.284918,0)"><title>Sheet.128</title><path d="M7.12 595.28 L7.12 593.33 A19.9581 19.4197 0 0 1 0 589.52" class="st16"/></g></g></g><g id="group129-731" transform="translate(0,-33.5004)"><title>Sheet.129</title><g id="shape130-732" transform="translate(0,-24.4662)"><title>Sheet.130</title><path d="M10.54 595.28 L27.78 585.5 L17.1 579.54 L0 589.25 A18.5627 18.0619 -180 0 0 10.55 595.28 L10.54 595.28 Z" class="st5"/><path d="M10.54 595.28 L27.78 585.5 L17.1 579.54 L0 589.25 A18.5627 18.0619 -180 0 0 10.55 595.28" class="st6"/></g><g id="shape131-736" transform="translate(0.00631215,0)"><title>Sheet.131</title><path d="M10.54 570.81 A18.3554 17.8602 0 0 1 -0 564.75 L0 589.7 A17.9868 17.5015 -180 0 0 10.54 595.28 L10.54 570.81 L10.54 570.81 Z" class="st7"/><path d="M10.54 570.81 A18.3554 17.8602 0 0 1 -0 564.75 L0 589.7 A17.9868 17.5015 -180 0 0 10.54 595.28 L10.54 570.81" class="st6"/></g><g id="shape132-740" transform="translate(10.542,-0.0276521)"><title>Sheet.132</title><path d="M0 570.84 L0 595.28 L17.24 585.6 L17.24 561.06 L0 570.84 Z" class="st8"/></g><g id="shape133-743" transform="translate(2.19824E-014,-0.000886157)"><title>Sheet.133</title><path d="M27.78 561.04 L17.1 555.08 L0 564.78 L0.01 589.7 A17.9868 17.5015 -180 0 0 10.55 595.28 L27.78 585.57 L27.78 561.04" class="st9"/></g><g id="shape134-746" transform="translate(-199.117,22.9607) rotate(-20)"><title>Sheet.134</title><ellipse cx=".811" cy="594.136" class="st10" rx=".811" ry="1.139"/></g><g id="shape135-749" transform="translate(1.70951,-3.5356)"><title>Sheet.135</title><path d="M0 588.48 A21.4469 18.8132 -94.43 0 0 7.12 592.3" class="st11"/><path d="M0 589.97 A21.4469 18.8132 -94.43 0 0 7.12 593.79" class="st11"/><path d="M0 591.46 A21.4469 18.8132 -94.43 0 0 7.12 595.28" class="st11"/></g><g id="group136-755" transform="translate(1.42459,-17.3279)"><title>Sheet.136</title><g id="shape137-756" transform="translate(0,-4.0104)"><title>Sheet.137</title><path d="M0.25 591.46 A17.9656 17.481 -180 0 0 7.38 595.28 a0.365051 0.355204 -180 0 0 1.24345E-014 -0.69308 A17.4768 17.0054 0 0 1 0.4 590.88 a0.2365 0.23012 -180 0 0 -0.394832 0.195629 a0.51544 0.501535 -180 0 0 0.252373 0.386559 Z" class="st12"/></g><g id="shape138-758" transform="translate(2.26533,-4.88402)"><title>Sheet.138</title><path d="M2.19 595.25 A2.78136 1.62508 -90.83 0 0 0.05 594.14 a1.75637 0.912383 -180 0 0 2.13689 1.10893 Z" class="st13"/></g><g id="shape139-761" transform="translate(0.284918,-0.034654)"><title>Sheet.139</title><path d="M0 589.52 L0 591.46 A19.3256 18.8043 -180 0 0 7.12 595.28 L7.12 593.33 A19.9581 19.4197 0 0 1 -0 589.52 Z" class="st14"/></g><g id="shape140-764" transform="translate(0.284918,-1.10893)"><title>Sheet.140</title><path d="M0 591.46 A17.4919 17.02 -180 0 0 7.12 595.28 L7.12 594.79 A19.3334 18.8118 0 0 1 0 590.98 L0 591.46 Z" class="st15"/></g><g id="shape141-766" transform="translate(0.284918,-0.069308)"><title>Sheet.141</title><path d="M0 589.52 L0 591.46 A19.3256 18.8043 -180 0 0 7.12 595.28" class="st6"/></g><g id="shape142-769" transform="translate(0.284918,0)"><title>Sheet.142</title><path d="M7.12 595.28 L7.12 593.33 A19.9581 19.4197 0 0 1 0 589.52" class="st16"/></g></g></g><g id="group143-773" transform="translate(11.9055,0)"><title>Sheet.143</title><g id="shape144-774" transform="translate(0,-24.4662)"><title>Sheet.144</title><path d="M10.54 595.28 L27.78 585.5 L17.1 579.54 L0 589.25 A18.5627 18.0619 -180 0 0 10.55 595.28 L10.54 595.28 Z" class="st5"/><path d="M10.54 595.28 L27.78 585.5 L17.1 579.54 L0 589.25 A18.5627 18.0619 -180 0 0 10.55 595.28" class="st6"/></g><g id="shape145-778" transform="translate(0.00631215,0)"><title>Sheet.145</title><path d="M10.54 570.81 A18.3554 17.8602 0 0 1 -0 564.75 L0 589.7 A17.9868 17.5015 -180 0 0 10.54 595.28 L10.54 570.81 L10.54 570.81 Z" class="st7"/><path d="M10.54 570.81 A18.3554 17.8602 0 0 1 -0 564.75 L0 589.7 A17.9868 17.5015 -180 0 0 10.54 595.28 L10.54 570.81" class="st6"/></g><g id="shape146-782" transform="translate(10.542,-0.0276521)"><title>Sheet.146</title><path d="M0 570.84 L0 595.28 L17.24 585.6 L17.24 561.06 L0 570.84 Z" class="st8"/></g><g id="shape147-785" transform="translate(2.19824E-014,-0.000886157)"><title>Sheet.147</title><path d="M27.78 561.04 L17.1 555.08 L0 564.78 L0.01 589.7 A17.9868 17.5015 -180 0 0 10.55 595.28 L27.78 585.57 L27.78 561.04" class="st9"/></g><g id="shape148-788" transform="translate(-199.117,22.9607) rotate(-20)"><title>Sheet.148</title><ellipse cx=".811" cy="594.136" class="st10" rx=".811" ry="1.139"/></g><g id="shape149-791" transform="translate(1.70951,-3.5356)"><title>Sheet.149</title><path d="M0 588.48 A21.4469 18.8132 -94.43 0 0 7.12 592.3" class="st11"/><path d="M0 589.97 A21.4469 18.8132 -94.43 0 0 7.12 593.79" class="st11"/><path d="M0 591.46 A21.4469 18.8132 -94.43 0 0 7.12 595.28" class="st11"/></g><g id="group150-797" transform="translate(1.42459,-17.3279)"><title>Sheet.150</title><g id="shape151-798" transform="translate(0,-4.0104)"><title>Sheet.151</title><path d="M0.25 591.46 A17.9656 17.481 -180 0 0 7.38 595.28 a0.365051 0.355204 -180 0 0 1.24345E-014 -0.69308 A17.4768 17.0054 0 0 1 0.4 590.88 a0.2365 0.23012 -180 0 0 -0.394832 0.195629 a0.51544 0.501535 -180 0 0 0.252373 0.386559 Z" class="st12"/></g><g id="shape152-800" transform="translate(2.26533,-4.88402)"><title>Sheet.152</title><path d="M2.19 595.25 A2.78136 1.62508 -90.83 0 0 0.05 594.14 a1.75637 0.912383 -180 0 0 2.13689 1.10893 Z" class="st13"/></g><g id="shape153-803" transform="translate(0.284918,-0.034654)"><title>Sheet.153</title><path d="M0 589.52 L0 591.46 A19.3256 18.8043 -180 0 0 7.12 595.28 L7.12 593.33 A19.9581 19.4197 0 0 1 -0 589.52 Z" class="st14"/></g><g id="shape154-806" transform="translate(0.284918,-1.10893)"><title>Sheet.154</title><path d="M0 591.46 A17.4919 17.02 -180 0 0 7.12 595.28 L7.12 594.79 A19.3334 18.8118 0 0 1 0 590.98 L0 591.46 Z" class="st15"/></g><g id="shape155-808" transform="translate(0.284918,-0.069308)"><title>Sheet.155</title><path d="M0 589.52 L0 591.46 A19.3256 18.8043 -180 0 0 7.12 595.28" class="st6"/></g><g id="shape156-811" transform="translate(0.284918,0)"><title>Sheet.156</title><path d="M7.12 595.28 L7.12 593.33 A19.9581 19.4197 0 0 1 0 589.52" class="st16"/></g></g></g><g id="group157-815" transform="translate(11.9055,-26.8003)"><title>Sheet.157</title><g id="shape158-816" transform="translate(0,-24.4662)"><title>Sheet.158</title><path d="M10.54 595.28 L27.78 585.5 L17.1 579.54 L0 589.25 A18.5627 18.0619 -180 0 0 10.55 595.28 L10.54 595.28 Z" class="st5"/><path d="M10.54 595.28 L27.78 585.5 L17.1 579.54 L0 589.25 A18.5627 18.0619 -180 0 0 10.55 595.28" class="st6"/></g><g id="shape159-820" transform="translate(0.00631215,0)"><title>Sheet.159</title><path d="M10.54 570.81 A18.3554 17.8602 0 0 1 -0 564.75 L0 589.7 A17.9868 17.5015 -180 0 0 10.54 595.28 L10.54 570.81 L10.54 570.81 Z" class="st7"/><path d="M10.54 570.81 A18.3554 17.8602 0 0 1 -0 564.75 L0 589.7 A17.9868 17.5015 -180 0 0 10.54 595.28 L10.54 570.81" class="st6"/></g><g id="shape160-824" transform="translate(10.542,-0.0276521)"><title>Sheet.160</title><path d="M0 570.84 L0 595.28 L17.24 585.6 L17.24 561.06 L0 570.84 Z" class="st8"/></g><g id="shape161-827" transform="translate(2.19824E-014,-0.000886157)"><title>Sheet.161</title><path d="M27.78 561.04 L17.1 555.08 L0 564.78 L0.01 589.7 A17.9868 17.5015 -180 0 0 10.55 595.28 L27.78 585.57 L27.78 561.04" class="st9"/></g><g id="shape162-830" transform="translate(-199.117,22.9607) rotate(-20)"><title>Sheet.162</title><ellipse cx=".811" cy="594.136" class="st10" rx=".811" ry="1.139"/></g><g id="shape163-833" transform="translate(1.70951,-3.5356)"><title>Sheet.163</title><path d="M0 588.48 A21.4469 18.8132 -94.43 0 0 7.12 592.3" class="st11"/><path d="M0 589.97 A21.4469 18.8132 -94.43 0 0 7.12 593.79" class="st11"/><path d="M0 591.46 A21.4469 18.8132 -94.43 0 0 7.12 595.28" class="st11"/></g><g id="group164-839" transform="translate(1.42459,-17.3279)"><title>Sheet.164</title><g id="shape165-840" transform="translate(0,-4.0104)"><title>Sheet.165</title><path d="M0.25 591.46 A17.9656 17.481 -180 0 0 7.38 595.28 a0.365051 0.355204 -180 0 0 1.24345E-014 -0.69308 A17.4768 17.0054 0 0 1 0.4 590.88 a0.2365 0.23012 -180 0 0 -0.394832 0.195629 a0.51544 0.501535 -180 0 0 0.252373 0.386559 Z" class="st12"/></g><g id="shape166-842" transform="translate(2.26533,-4.88402)"><title>Sheet.166</title><path d="M2.19 595.25 A2.78136 1.62508 -90.83 0 0 0.05 594.14 a1.75637 0.912383 -180 0 0 2.13689 1.10893 Z" class="st13"/></g><g id="shape167-845" transform="translate(0.284918,-0.034654)"><title>Sheet.167</title><path d="M0 589.52 L0 591.46 A19.3256 18.8043 -180 0 0 7.12 595.28 L7.12 593.33 A19.9581 19.4197 0 0 1 -0 589.52 Z" class="st14"/></g><g id="shape168-848" transform="translate(0.284918,-1.10893)"><title>Sheet.168</title><path d="M0 591.46 A17.4919 17.02 -180 0 0 7.12 595.28 L7.12 594.79 A19.3334 18.8118 0 0 1 0 590.98 L0 591.46 Z" class="st15"/></g><g id="shape169-850" transform="translate(0.284918,-0.069308)"><title>Sheet.169</title><path d="M0 589.52 L0 591.46 A19.3256 18.8043 -180 0 0 7.12 595.28" class="st6"/></g><g id="shape170-853" transform="translate(0.284918,0)"><title>Sheet.170</title><path d="M7.12 595.28 L7.12 593.33 A19.9581 19.4197 0 0 1 0 589.52" class="st16"/></g></g></g><g id="shape17-857"><text x="-60.52" y="608.28" class="st17">NOVA-COMPUTE<tspan x="-60.52" class="st18" dy="1.125em">--</tspan><tspan class="st18">libvirt</tspan><tspan class="st18">_</tspan><tspan class="st18">type</tspan><tspan class="st18">=</tspan><tspan class="st18">kvm</tspan><tspan x="-60.52" class="st18" dy="1.375em">--</tspan><tspan class="st18">ajax</tspan><tspan class="st18">_</tspan><tspan class="st18">console</tspan><tspan class="st18">_</tspan><tspan class="st18">proxy</tspan><tspan class="st18">_</tspan><tspan class="st18">url</tspan><tspan class="st18">=</tspan><tspan class="st18">$</tspan><tspan class="st18">nova</tspan><tspan class="st18">_</tspan><tspan class="st18">ajax</tspan><tspan class="st18">_</tspan><tspan class="st18">proxy</tspan><tspan class="st18">_</tspan><tspan class="st18">url</tspan></text></g></g><g id="group171-882" transform="translate(637.795,-311.811)"><title>Database server</title><desc>MySQL --sql_connection=mysql://$nova_db_user:$nova_db_pass@$n...</desc><g id="shape172-883"><title>Sheet.172</title><path d="M43.52 582.21 L51.02 578.17 L51.02 534.92 L31.4 524.41 L0 541.52 L0.01 585.45 A33.0369 30.8521 -180 0 0 19.37 595.28 L26.18 591.56 A8.76628 4.03675 -180 0 0 43.51 590.95 L43.52 582.21 ZM8.71 548.36 A34.0948 31.84 -180 0 0 19.37 552.15 A33.7139 31.4843 0 0 1 8.71 548.36 Z" class="st4"/></g><g id="shape173-885" transform="translate(0,-43.1295)"><title>Sheet.173</title><path d="M19.36 595.27 L51.02 578.05 L31.4 567.54 L0 584.65 A34.0948 31.84 -180 0 0 19.37 595.28 L19.36 595.27 Z" class="st5"/><path d="M19.36 595.27 L51.02 578.05 L31.4 567.54 L0 584.65 A34.0948 31.84 -180 0 0 19.37 595.28" class="st6"/></g><g id="shape174-889" transform="translate(0.0115937,0)"><title>Sheet.174</title><path d="M19.36 552.15 A33.7139 31.4843 0 0 1 0 541.47 L0 585.45 A33.0369 30.8521 -180 0 0 19.36 595.28 L19.35 552.15 L19.36 552.15 Z" class="st7"/><path d="M19.36 552.15 A33.7139 31.4843 0 0 1 0 541.47 L0 585.45 A33.0369 30.8521 -180 0 0 19.36 595.28 L19.35 552.15" class="st6"/></g><g id="shape175-893" transform="translate(19.3628,-0.0487457)"><title>Sheet.175</title><path d="M0 552.19 L0 595.28 L31.66 578.22 L31.66 534.97 L0 552.19 Z" class="st8"/></g><g id="shape176-896" transform="translate(3.19744E-014,-0.00156214)"><title>Sheet.176</title><path d="M51.02 534.92 L31.4 524.41 L0 541.52 L0.01 585.45 A33.0369 30.8521 -180 0 0 19.37 595.28 L51.02 578.17 L51.02 534.92" class="st9"/></g><g id="shape177-899" transform="translate(-195.389,13.1183) rotate(-20)"><title>Sheet.177</title><ellipse cx="1.482" cy="593.257" class="st10" rx="1.482" ry="2.018"/></g><g id="shape178-902" transform="translate(3.13992,-6.23262)"><title>Sheet.178</title><path d="M-0 583.3 A37.8205 34.5426 -96.44 0 0 13.08 590.02" class="st11"/><path d="M0 585.93 A37.8205 34.5426 -96.44 0 0 13.08 592.65" class="st11"/><path d="M0 588.56 A37.8205 34.5426 -96.44 0 0 13.08 595.28" class="st11"/></g><g id="group179-908" transform="translate(2.6166,-30.546)"><title>Sheet.179</title><g id="shape180-909" transform="translate(0,-7.06961)"><title>Sheet.180</title><path d="M0.47 588.56 A32.9981 30.8159 -180 0 0 13.55 595.28 a0.670503 0.62616 -180 0 0 3.01981E-014 -1.22178 A32.1003 29.9774 0 0 1 0.73 587.53 a0.434387 0.40566 -180 0 0 -0.725202 0.344859 a0.946727 0.884117 -180 0 0 0.463543 0.681433 Z" class="st12"/></g><g id="shape181-911" transform="translate(4.16081,-8.60965)"><title>Sheet.181</title><path d="M4.02 595.23 A4.90309 2.98481 -90.9 0 0 0.1 593.27 A3.22599 1.60837 -180 0 0 4.02 595.23 Z" class="st13"/></g><g id="shape182-914" transform="translate(0.523319,-0.0610888)"><title>Sheet.182</title><path d="M0 585.13 L0 588.56 A35.496 33.1485 -180 0 0 13.08 595.28 L13.08 591.85 A36.6577 34.2334 0 0 1 -0 585.13 Z" class="st14"/></g><g id="shape183-917" transform="translate(0.523319,-1.95484)"><title>Sheet.183</title><path d="M0 588.56 A32.1279 30.0032 -180 0 0 13.08 595.28 L13.08 594.42 A35.5103 33.1619 0 0 1 0 587.7 L0 588.56 Z" class="st15"/></g><g id="shape184-919" transform="translate(0.523319,-0.122178)"><title>Sheet.184</title><path d="M0 585.13 L0 588.56 A35.496 33.1485 -180 0 0 13.08 595.28" class="st6"/></g><g id="shape185-922" transform="translate(0.523319,0)"><title>Sheet.185</title><path d="M13.08 595.28 L13.08 591.85 A36.6577 34.2334 0 0 1 0 585.13" class="st16"/></g></g><g id="group186-926" transform="translate(25.5118,0)"><title>Sheet.186</title><g id="shape187-927" transform="translate(0.487352,-16.002)"><title>Sheet.187</title><ellipse cx="8.762" cy="591.275" class="st41" rx="8.762" ry="4.001"/></g><g id="shape188-931" transform="translate(0.486609,-0.500196)"><title>Sheet.188</title><path d="M0 575.77 L0 591.38 A8.76628 4.03675 -180 0 0 17.52 591.45 L17.52 575.77 A8.76211 4.03483 0 1 1 0 575.77 Z" class="st42"/></g><g id="shape189-935" transform="translate(0.52973,-0.550136)"><title>Sheet.189</title><path d="M17.38 575.77 A8.68758 4.00051 -180 1 0 0 575.81 L0 591.38 A8.69171 4.03675 -180 0 0 17.37 591.45 L17.37 575.77" class="st9"/></g></g><g id="shape171-938"><text x="-127.62" y="608.28" class="st17">MySQL<tspan x="-127.62" class="st18" dy="1.125em">--</tspan><tspan class="st18">sql</tspan><tspan class="st18">_</tspan><tspan class="st18">connection</tspan><tspan class="st18">=</tspan><tspan class="st18">mysql</tspan><tspan class="st18">://</tspan><tspan class="st18">$</tspan><tspan class="st18">nova</tspan><tspan class="st18">_</tspan><tspan class="st18">db</tspan><tspan class="st18">_</tspan><tspan class="st18">user</tspan><tspan class="st18">:</tspan><tspan class="st18">$</tspan><tspan class="st18">nova</tspan><tspan class="st18">_</tspan><tspan class="st18">db</tspan><tspan class="st18">_</tspan><tspan class="st18">pass</tspan><tspan class="st18">@$</tspan><tspan class="st18">nova</tspan><tspan class="st18">_</tspan><tspan class="st18">db</tspan><tspan class="st18">_</tspan><tspan class="st18">host</tspan><tspan class="st18">/</tspan><tspan class="st18">$</tspan><tspan class="st18">nova</tspan><tspan class="st18">_</tspan><tspan class="st18">db</tspan><tspan class="st18">_</tspan><tspan class="st18">name</tspan></text></g></g><g id="group190-973" transform="translate(99.2126,-119.055)"><title>Proxy server</title><desc>NOVA-NETWORK --network_host=$nova_network_host --dhcpbridge=/...</desc><g id="shape191-974" transform="translate(0,5.31496)"><title>Sheet.191</title><path d="M41.81 577.82 L51.02 572.85 L51.02 529.6 L31.4 519.1 L0 536.2 L0.01 580.14 A33.0369 30.8521 -180 0 0 19.37 589.96 L23.69 587.58 L23.69 587.67 L37.57 595.28 L41.91 592.88 L41.91 577.87 L41.81 577.82 ZM8.71 543.04 A34.0948 31.84 -180 0 0 19.37 546.83 A33.7139 31.4843 0 0 1 8.71 543.04 Z" class="st4"/></g><g id="shape192-976" transform="translate(0,-43.1295)"><title>Sheet.192</title><path d="M19.36 595.27 L51.02 578.05 L31.4 567.54 L0 584.65 A34.0948 31.84 -180 0 0 19.37 595.28 L19.36 595.27 Z" class="st5"/><path d="M19.36 595.27 L51.02 578.05 L31.4 567.54 L0 584.65 A34.0948 31.84 -180 0 0 19.37 595.28" class="st6"/></g><g id="shape193-980" transform="translate(0.0115937,0)"><title>Sheet.193</title><path d="M19.36 552.15 A33.7139 31.4843 0 0 1 0 541.47 L0 585.45 A33.0369 30.8521 -180 0 0 19.36 595.28 L19.35 552.15 L19.36 552.15 Z" class="st7"/><path d="M19.36 552.15 A33.7139 31.4843 0 0 1 0 541.47 L0 585.45 A33.0369 30.8521 -180 0 0 19.36 595.28 L19.35 552.15" class="st6"/></g><g id="shape194-984" transform="translate(19.3628,-0.0487457)"><title>Sheet.194</title><path d="M0 552.19 L0 595.28 L31.66 578.22 L31.66 534.97 L0 552.19 Z" class="st8"/></g><g id="shape195-987" transform="translate(3.19744E-014,-0.00156214)"><title>Sheet.195</title><path d="M51.02 534.92 L31.4 524.41 L0 541.52 L0.01 585.45 A33.0369 30.8521 -180 0 0 19.37 595.28 L51.02 578.17 L51.02 534.92" class="st9"/></g><g id="shape196-990" transform="translate(-195.389,13.1183) rotate(-20)"><title>Sheet.196</title><ellipse cx="1.482" cy="593.257" class="st10" rx="1.482" ry="2.018"/></g><g id="shape197-993" transform="translate(3.13992,-6.23262)"><title>Sheet.197</title><path d="M-0 583.3 A37.8205 34.5426 -96.44 0 0 13.08 590.02" class="st11"/><path d="M0 585.93 A37.8205 34.5426 -96.44 0 0 13.08 592.65" class="st11"/><path d="M0 588.56 A37.8205 34.5426 -96.44 0 0 13.08 595.28" class="st11"/></g><g id="group198-999" transform="translate(2.6166,-30.546)"><title>Sheet.198</title><g id="shape199-1000" transform="translate(0,-7.06961)"><title>Sheet.199</title><path d="M0.47 588.56 A32.9981 30.8159 -180 0 0 13.55 595.28 a0.670503 0.62616 -180 0 0 3.01981E-014 -1.22178 A32.1003 29.9774 0 0 1 0.73 587.53 a0.434387 0.40566 -180 0 0 -0.725202 0.344859 a0.946727 0.884117 -180 0 0 0.463543 0.681433 Z" class="st12"/></g><g id="shape200-1002" transform="translate(4.16081,-8.60965)"><title>Sheet.200</title><path d="M4.02 595.23 A4.90309 2.98481 -90.9 0 0 0.1 593.27 A3.22599 1.60837 -180 0 0 4.02 595.23 Z" class="st13"/></g><g id="shape201-1005" transform="translate(0.523319,-0.0610888)"><title>Sheet.201</title><path d="M0 585.13 L0 588.56 A35.496 33.1485 -180 0 0 13.08 595.28 L13.08 591.85 A36.6577 34.2334 0 0 1 -0 585.13 Z" class="st14"/></g><g id="shape202-1008" transform="translate(0.523319,-1.95484)"><title>Sheet.202</title><path d="M0 588.56 A32.1279 30.0032 -180 0 0 13.08 595.28 L13.08 594.42 A35.5103 33.1619 0 0 1 0 587.7 L0 588.56 Z" class="st15"/></g><g id="shape203-1010" transform="translate(0.523319,-0.122178)"><title>Sheet.203</title><path d="M0 585.13 L0 588.56 A35.496 33.1485 -180 0 0 13.08 595.28" class="st6"/></g><g id="shape204-1013" transform="translate(0.523319,0)"><title>Sheet.204</title><path d="M13.08 595.28 L13.08 591.85 A36.6577 34.2334 0 0 1 0 585.13" class="st16"/></g></g><g id="group205-1017" transform="translate(23.6895,5.31496)"><title>Sheet.205</title><g id="shape206-1018"><title>Sheet.206</title><path d="M0 587.67 L13.88 595.28 L18.22 592.88 L18.22 577.87 L4.66 570.47 L0 573.07 L0 587.67 Z" class="st43"/></g><g id="shape207-1023" transform="translate(1.05946,-1.04013)"><title>Sheet.207</title><path d="M0 574.71 L12.82 581.71 L16.1 579.91" class="st44"/><path d="M12.82 581.71 L12.82 595.28" class="st44"/><path d="M0 576.91 L12.82 583.91" class="st44"/><path d="M0 579.26 L12.82 586.26" class="st44"/><path d="M0 581.61 L12.82 588.61" class="st44"/><path d="M0 583.96 L12.82 590.97" class="st44"/><path d="M0 586.31 L12.82 593.32" class="st44"/><path d="M6.57 590.11 L6.57 591.72" class="st44"/><path d="M1.91 587.51 L1.91 589.11" class="st44"/><path d="M4.24 586.51 L4.24 588.11" class="st44"/><path d="M6.57 585.51 L6.57 587.11" class="st44"/><path d="M1.91 582.91 L1.91 584.51" class="st44"/><path d="M4.24 581.91 L4.24 583.51" class="st44"/><path d="M1.91 578.31 L1.91 579.91" class="st44"/></g><g id="shape208-1039"><title>Sheet.208</title><path d="M0 587.67 L13.88 595.28 L18.22 592.88 L18.22 577.87 L4.66 570.47 L0 573.07 L0 587.67" class="st9"/></g></g><g id="shape190-1042"><text x="-78.59" y="608.28" class="st17">NOVA-NETWORK<tspan x="-78.59" class="st18" dy="1.125em">--</tspan><tspan class="st18">network</tspan><tspan class="st18">_</tspan><tspan class="st18">host</tspan><tspan class="st18">=</tspan><tspan class="st18">$</tspan><tspan class="st18">nova</tspan><tspan class="st18">_</tspan><tspan class="st18">network</tspan><tspan class="st18">_</tspan><tspan class="st18">host</tspan><tspan x="-78.59" class="st18" dy="1em">--</tspan><tspan class="st18">dhcpbridge</tspan><tspan class="st18">=/</tspan><tspan class="st18">usr</tspan><tspan class="st18">/</tspan><tspan class="st18">bin</tspan><tspan class="st18">/</tspan><tspan class="st18">nova</tspan><tspan class="st18">-</tspan><tspan class="st18">dhcpbridge</tspan><tspan x="-78.59" class="st18" dy="1em">--</tspan><tspan class="st18">flat</tspan><tspan class="st18">_</tspan><tspan class="st18">network</tspan><tspan class="st18">_</tspan><tspan class="st18">bridge</tspan><tspan class="st18">=</tspan><tspan class="st18">br</tspan><tspan class="st18">100</tspan><tspan x="-78.59" class="st18" dy="1em">--</tspan><tspan class="st18">network</tspan><tspan class="st18">_</tspan><tspan class="st18">manager</tspan><tspan class="st18">=</tspan><tspan class="st18">nova</tspan><tspan class="st18">.</tspan><tspan class="st18">network</tspan><tspan class="st18">.</tspan><tspan class="st18">manager</tspan><tspan class="st18">.</tspan><tspan class="st18">FlatDHCPManager</tspan><tspan x="-78.59" class="st18" dy="1em">--</tspan><tspan class="st18">flat</tspan><tspan class="st18">_</tspan><tspan class="st18">interface</tspan><tspan class="st18">=</tspan><tspan class="st18">$</tspan><tspan class="st18">nova</tspan><tspan class="st18">_</tspan><tspan class="st18">network</tspan><tspan class="st18">_</tspan><tspan class="st18">flat</tspan><tspan class="st18">_</tspan><tspan class="st18">interface</tspan><tspan x="-78.59" class="st18" dy="1em">--</tspan><tspan class="st18">public</tspan><tspan class="st18">_</tspan><tspan class="st18">interface</tspan><tspan class="st18">=</tspan><tspan class="st18">$</tspan><tspan class="st18">nova</tspan><tspan class="st18">_</tspan><tspan class="st18">network</tspan><tspan class="st18">_</tspan><tspan class="st18">public</tspan><tspan class="st18">_</tspan><tspan class="st18">interface</tspan><tspan x="-78.59" class="st18" dy="1.375em">--</tspan><tspan class="st18">routing</tspan><tspan class="st18">_</tspan><tspan class="st18">source</tspan><tspan class="st18">_</tspan><tspan class="st18">ip</tspan><tspan class="st18">=</tspan><tspan class="st18">$</tspan><tspan class="st18">nova</tspan><tspan class="st18">_</tspan><tspan class="st18">network</tspan><tspan class="st18">_</tspan><tspan class="st18">public</tspan><tspan class="st18">_</tspan><tspan class="st18">ip</tspan></text></g></g></g></svg>