<svg xmlns="http://www.w3.org/2000/svg" xmlns:osb="http://www.openswatchbook.org/uri/2009/osb" xmlns:svg="http://www.w3.org/2000/svg" xmlns:xlink="http://www.w3.org/1999/xlink" id="svg2" width="1122.518" height="793.701" class="st23" color-interpolation-filters="sRGB" version="1.1" viewBox="0 0 841.89 595.276" xml:space="preserve"><metadata id="metadata873"/><title id="title4">Schéma Réseau</title><style id="style6" type="text/css">.st1,.st2{fill:#fff;stroke:none;stroke-linecap:round;stroke-linejoin:round;stroke-width:.75}.st2{fill:none}.st3{fill:url(#grad30-8)}.st4{stroke:none;stroke-linecap:round;stroke-linejoin:round;stroke-width:.75;visibility:hidden}.st5{fill:#fff;font-family:Calibri;font-size:.666664em}.st6{marker-end:url(#mrkr13-51);stroke-linecap:round;stroke-linejoin:round;stroke-width:1.5}.st6,.st7,.st8{stroke:#595959}.st7{fill:#595959;fill-opacity:1;stroke-opacity:1;stroke-width:.37313432835821}.st8{fill:#fff;stroke-linecap:round;stroke-linejoin:round;stroke-width:.25}.st9{fill:#3f3f3f;font-family:Calibri;font-size:.666664em}.st10{fill:#f0f;fill-opacity:0}.st11{stroke:#595959;stroke-linecap:round;stroke-linejoin:round;stroke-opacity:0;stroke-width:.72}.st12,.st13{fill:url(#grad32-73)}.st12{stroke:#595959;stroke-linecap:round;stroke-linejoin:round;stroke-width:.72}.st13{visibility:hidden}.st14{stroke:#595959;stroke-linecap:round;stroke-linejoin:round;stroke-width:.72}.st15{fill:#595959;stroke:none;stroke-linecap:butt;stroke-width:.75}.st16{stroke:#000;stroke-linecap:round;stroke-linejoin:round;stroke-width:.25}.st17{fill:#3f3f3f;font-family:Calibri;font-size:1.99999em}.st19,.st21,.st22{stroke:#595959;stroke-linecap:round;stroke-linejoin:round}.st19{fill:#fff;stroke-width:.75}.st21,.st22{stroke-width:1.5}.st22{marker-start:url(#mrkr13-385)}.st23{fill:none;fill-rule:evenodd;font-size:12;overflow:visible;stroke-linecap:square;stroke-miterlimit:3}</style><defs id="Patterns_And_Gradients"><linearGradient id="linearGradient4892" osb:paint="solid"><stop id="stop4894" offset="0" stop-color="#000" stop-opacity="1"/></linearGradient><marker id="Arrow2Lend" orient="auto" overflow="visible" refX="0" refY="0"><path id="path4283" fill-rule="evenodd" stroke-linejoin="round" stroke-width=".625" d="M 8.7185878,4.0337352 L -2.2072895,0.016013256 L 8.7185884,-4.0017078 C 6.9730900,-1.6296469 6.9831476,1.6157441 8.7185878,4.0337352 z" transform="scale(1.1) rotate(180) translate(1,0)"/></marker><marker id="Arrow1Lend" orient="auto" overflow="visible" refX="0" refY="0"><path id="path4265" fill-rule="evenodd" stroke="#000" stroke-width="1pt" d="M 0.0,0.0 L 5.0,-5.0 L -12.5,0.0 L 5.0,5.0 L 0.0,0.0 z" transform="scale(0.8) rotate(180) translate(12.5,0)"/></marker><linearGradient id="grad30-8" x1="0" x2="0" y1="1" y2="0"><stop id="stop10" offset="0" stop-color="#419cc9" stop-opacity="1"/><stop id="stop12" offset="1" stop-color="#2e7ca1" stop-opacity="1"/></linearGradient><pattern id="grad32-73" width="1" height="1" x="0" y="0" patternContentUnits="objectBoundingBox"><path id="path15" fill="url(#grad27-74)" d="M 0 1 L 0 0 L 1 0 z"/><path id="path17" fill="url(#grad28-75)" d="M 0 1 L 1 1 L 1 0 z"/></pattern><linearGradient id="grad27-74" x1="1" x2="0" y1="0" y2="0"><stop id="stop20" offset="0" stop-color="#fff" stop-opacity="1"/><stop id="stop22" offset="1" stop-color="#fff" stop-opacity="1"/></linearGradient><linearGradient id="grad28-75" x1="0" x2="0" y1="0" y2="1"><stop id="stop25" offset="0" stop-color="#fff" stop-opacity="1"/><stop id="stop27" offset="1" stop-color="#fff" stop-opacity="1"/></linearGradient><linearGradient id="linearGradient4916" x1="0" x2="0" y1="1104.005" y2="1072.462" gradientTransform="scale(1.8546099,0.53919694)" gradientUnits="userSpaceOnUse" xlink:href="#grad30-8"/><linearGradient id="linearGradient4918" x1="0" x2="0" y1="1104.005" y2="1072.462" gradientTransform="scale(1.8546099,0.53919694)" gradientUnits="userSpaceOnUse" xlink:href="#grad30-8"/><linearGradient id="linearGradient4920" x1="0" x2="0" y1="1104.005" y2="1072.462" gradientTransform="scale(1.8546099,0.53919694)" gradientUnits="userSpaceOnUse" xlink:href="#grad30-8"/><linearGradient id="linearGradient4922" x1="0" x2="0" y1="1104.005" y2="1072.462" gradientTransform="scale(1.8546099,0.53919694)" gradientUnits="userSpaceOnUse" xlink:href="#grad30-8"/><linearGradient id="linearGradient4924" x1="0" x2="0" y1="1104.005" y2="1072.462" gradientTransform="scale(1.8546099,0.53919694)" gradientUnits="userSpaceOnUse" xlink:href="#grad30-8"/><linearGradient id="linearGradient4926" x1="0" x2="0" y1="1104.005" y2="1072.462" gradientTransform="scale(1.8546099,0.53919694)" gradientUnits="userSpaceOnUse" xlink:href="#grad30-8"/><linearGradient id="linearGradient4928" x1="0" x2="0" y1="1104.005" y2="1072.462" gradientTransform="scale(1.8546099,0.53919694)" gradientUnits="userSpaceOnUse" xlink:href="#grad30-8"/><linearGradient id="linearGradient4930" x1="0" x2="0" y1="1104.005" y2="1072.462" gradientTransform="scale(1.8546099,0.53919694)" gradientUnits="userSpaceOnUse" xlink:href="#grad30-8"/><linearGradient id="linearGradient4932" x1="0" x2="0" y1="1104.005" y2="1072.462" gradientTransform="scale(1.8546099,0.53919694)" gradientUnits="userSpaceOnUse" xlink:href="#grad30-8"/></defs><defs id="Markers"><g id="lend13"><path id="path31" stroke="none" d="M 3 1 L -0 0 L 3 -1 L 3 1"/></g><marker id="mrkr13-51" class="st7" markerUnits="strokeWidth" orient="auto" refX="-8.04"><use id="use34" href="#lend13" transform="scale(-2.68,-2.68)"/></marker><marker id="mrkr13-385" class="st7" markerUnits="strokeWidth" orient="auto" refX="7.8"><use id="use37" href="#lend13" transform="scale(2.68)"/></marker></defs><g id="g39" transform="translate(-68.965867,-48.928831)"><title id="title41">VBackground-1</title><g id="shape1-1"><title id="title44">Solid</title><rect id="rect46" width="841.89" height="595.276" x="0" y="0" fill="#fff" stroke="none" class="st1"/></g><g id="shape13-3" transform="translate(18,-18)"><title id="title49">None</title><rect id="rect51" width="805.89" height="559.276" x="0" y="36" fill="none" stroke="none" class="st2"/></g></g><g id="shape7-5" transform="translate(402.20637,-493.35742)"><title id="title58">Status bar item.7</title><desc id="desc60">Keystone</desc><rect id="rect62" width="58.5" height="17.008" x="0" y="578.268" fill="url(#linearGradient4916)" class="st3"/><rect id="rect64" width="58.5" height="17.008" x="0" y="578.268" stroke="none" class="st4" visibility="hidden"/><text id="text66" x="7.87" y="589.17" fill="#fff" class="st5" font-family="Calibri">Keystone</text></g><g id="shape19-11" transform="translate(700.03937,-261.80142)"><title id="title69">Status bar item.19</title><desc id="desc71">Endpoint</desc><rect id="rect73" width="58.5" height="17.008" x="0" y="578.268" fill="url(#linearGradient4918)" class="st3"/><rect id="rect75" width="58.5" height="17.008" x="0" y="578.268" stroke="none" class="st4" visibility="hidden"/><text id="text77" x="8.12" y="589.17" fill="#fff" class="st5" font-family="Calibri">Endpoint</text></g><g id="shape46-16" transform="translate(402.91537,-96.506418)"><title id="title80">Status bar item.46</title><desc id="desc82">Service</desc><rect id="rect84" width="58.5" height="17.008" x="0" y="578.268" fill="url(#linearGradient4920)" class="st3"/><rect id="rect86" width="58.5" height="17.008" x="0" y="578.268" stroke="none" class="st4" visibility="hidden"/><text id="text88" x="12.82" y="589.17" fill="#fff" class="st5" font-family="Calibri">Service</text></g><g id="shape5-21" transform="translate(58.310584,-493.35742)"><title id="title91">Status bar item</title><desc id="desc93">User/ API</desc><rect id="rect95" width="58.5" height="17.008" x="0" y="578.268" fill="url(#linearGradient4922)" class="st3"/><rect id="rect97" width="58.5" height="17.008" x="0" y="578.268" stroke="none" class="st4" visibility="hidden"/><text id="text99" x="7.5" y="589.17" fill="#fff" class="st5" font-family="Calibri">User/ API</text></g><g id="shape89-26" transform="translate(58.983784,-261.80142)"><title id="title102">Status bar item.89</title><desc id="desc104">Service</desc><rect id="rect106" width="58.5" height="17.008" x="0" y="578.268" fill="url(#linearGradient4924)" class="st3"/><rect id="rect108" width="58.5" height="17.008" x="0" y="578.268" stroke="none" class="st4" visibility="hidden"/><text id="text110" x="11.22" y="589.17" fill="#fff" class="st5" font-family="Calibri">Service</text></g><g id="shape22-31" transform="translate(700.03937,-96.506418)"><title id="title113">Status bar item.22</title><desc id="desc115">User/ API</desc><rect id="rect117" width="58.5" height="17.008" x="0" y="578.268" fill="url(#linearGradient4926)" class="st3"/><rect id="rect119" width="58.5" height="17.008" x="0" y="578.268" stroke="none" class="st4" visibility="hidden"/><text id="text121" x="7.5" y="589.17" fill="#fff" class="st5" font-family="Calibri">User/ API</text></g><g id="shape104-36" transform="translate(700.03937,-493.35742)"><title id="title124">Status bar item.104</title><desc id="desc126">User/ API</desc><rect id="rect128" width="58.5" height="17.008" x="0" y="578.268" fill="url(#linearGradient4928)" class="st3"/><rect id="rect130" width="58.5" height="17.008" x="0" y="578.268" stroke="none" class="st4" visibility="hidden"/><text id="text132" x="7.5" y="589.17" fill="#fff" class="st5" font-family="Calibri">User/ API</text></g><g id="shape13-41" transform="translate(402.40137,-261.62442)"><title id="title135">Status bar item.13</title><desc id="desc137">Keystone</desc><rect id="rect139" width="58.5" height="17.008" x="0" y="578.268" fill="url(#linearGradient4930)" class="st3"/><rect id="rect141" width="58.5" height="17.008" x="0" y="578.268" stroke="none" class="st4" visibility="hidden"/><text id="text143" x="7.87" y="589.17" fill="#fff" class="st5" font-family="Calibri">Keystone</text></g><g id="shape91-46" transform="translate(452.13637,-42.648318)"><title id="title146">Sheet.91</title><path id="path148" stroke="#595959" stroke-linecap="round" stroke-linejoin="round" stroke-width="1.5" marker-end="url(#mrkr13-51)" d="m 0,595.28 238.68,0" class="st6"/></g><g id="shape26-52" transform="matrix(0.9757176,0,0,1,468.60157,-344.01642)"><title id="title151">Sheet.26</title><path id="path153" stroke="#595959" stroke-linecap="round" stroke-linejoin="round" stroke-width="1.5" marker-end="url(#mrkr13-51)" d="m 0,595.28 127.3,0 89.12,-50.28" class="st6"/></g><g id="shape116-57" transform="matrix(1.026747,0,0,-0.89763772,107.6535,732.45038)"><title id="title156">Sheet.116</title><path id="path158" stroke="#595959" stroke-linecap="round" stroke-linejoin="round" stroke-width="1.5" marker-end="url(#mrkr13-51)" d="m 0,595.28 64.54,-37.62 209.42,0" class="st6"/></g><g id="group54-62" transform="translate(170.09537,-357.29442)"><title id="title161">Sheet.54</title><g id="shape57-63"><title id="title164">Sheet.57</title><desc id="desc166">The Temporary Token is provided along the request</desc><rect id="rect168" width="177.05" height="11.842" x="0" y="583.433" fill="#fff" stroke="#595959" stroke-linecap="round" stroke-linejoin="round" stroke-width=".25" class="st8"/><text id="text170" x="4" y="591.75" fill="#3f3f3f" class="st9" font-family="Calibri"><tspan id="tspan3860" font-size="8">The Temporary Token is provided along the request</tspan></text></g><g id="group58-66" transform="translate(172.644,-3.69223)"><title id="title173">Key</title><g id="shape70-67"><title id="title176">Sheet.70</title><path id="path178" fill="#f0f" fill-opacity="0" d="m 2.32,595.09 0.03,0.01 a 0.0297876,0.0293596 90 0 1 -0.029706,-0.0178 z m 0.03,0.01 a 1.28122,1.2999 -180 0 0 1.38,-0.07 4.47192,4.53711 -180 0 0 1.12,-1.06 11.3412,11.5066 -180 0 0 1.22,-3.15 l 2.9,-1.68 1.08,-2.27 3.27,-1.91 0.85,-1.73 0,-1.53 -1.04,-0.6 -7.3,4.31 A 1.636,1.65985 -180 0 0 5.6,584.98 1.40699,1.4275 -180 0 0 4.97,584.41 1.40699,1.4275 -180 0 0 3.93,584.36 1.37726,1.35747 90 0 1 4.97,584.4 L 4.42,584.06 A 1.79068,1.76495 -90 0 0 2.7,583.85 5.08375,5.01071 -90 0 0 1.02,586.1 12.4348,12.2561 -90 0 0 0,590.76 a 6.66072,6.56502 -90 0 0 1.04,3.59 l 1.3,0.76 0.01,-0.01 z m -1.31,-3.75 a 12.5985,12.4175 90 0 1 0.76,-4.05 13.9024,14.105 -180 0 0 -0.76,4.05 6.599,6.6952 -180 0 0 0.42,2.37 5.2261,5.15101 90 0 1 -0.42,-2.37 z" class="st10"/><path id="path180" stroke="#595959" stroke-linecap="round" stroke-linejoin="round" stroke-opacity="0" stroke-width=".72" d="m 2.32,595.09 0.03,0.01 A 0.0297876,0.0293596 90 0 1 2.320294,595.0822 M 2.35,595.1 a 1.28122,1.2999 -180 0 0 1.38,-0.07 4.47192,4.53711 -180 0 0 1.12,-1.06 11.3412,11.5066 -180 0 0 1.22,-3.15 l 2.9,-1.68 1.08,-2.27 3.27,-1.91 0.85,-1.73 0,-1.53 -1.04,-0.6 -7.3,4.31 A 1.636,1.65985 -180 0 0 5.6,584.98 1.40699,1.4275 -180 0 0 4.97,584.41 1.40699,1.4275 -180 0 0 3.93,584.36 1.37726,1.35747 90 0 1 4.97,584.4 L 4.42,584.06 A 1.79068,1.76495 -90 0 0 2.7,583.85 5.08375,5.01071 -90 0 0 1.02,586.1 12.4348,12.2561 -90 0 0 0,590.76 a 6.66072,6.56502 -90 0 0 1.04,3.59 l 1.3,0.76 m -1.3,-3.76 a 12.5985,12.4175 90 0 1 0.76,-4.05 13.9024,14.105 -180 0 0 -0.76,4.05 6.599,6.6952 -180 0 0 0.42,2.37 5.2261,5.15101 90 0 1 -0.42,-2.37" class="st11"/></g><g id="shape71-70" transform="translate(1.04314,0)"><title id="title183">Sheet.71</title><path id="path185" fill="url(#grad32-73)" stroke="#595959" stroke-linecap="round" stroke-linejoin="round" stroke-width=".72" d="m 13.13,581.7 0,1.53 -0.85,1.73 -3.28,1.91 -1.07,2.27 -2.91,1.68 a 11.3412,11.5066 0 0 1 -1.22,3.15 4.47192,4.53711 0 0 1 -1.11,1.06 1.28122,1.2999 0 0 1 -1.88,-0.45 6.599,6.6952 0 0 1 -0.81,-3.23 13.9024,14.105 0 0 1 0.8,-4.16 5.88781,5.97364 0 0 1 1.89,-2.74 1.40699,1.4275 0 0 1 1.87,0.53 3.74301,3.79758 0 0 1 0.59,1.4 l 7.98,-4.68 z" class="st12"/></g><g id="shape72-76" transform="matrix(0.98480775,0.17364818,-0.17364818,0.98480775,105.047,5.45962)"><title id="title188">Sheet.72</title><ellipse id="ellipse190" cx=".79" cy="593.718" fill="url(#grad32-73)" d="m 1.5809079,593.71802 c 0,0.86048 -0.3538983,1.55804 -0.79045393,1.55804 C 0.3538983,595.27606 0,594.5785 0,593.71802 c 0,-0.86048 0.3538983,-1.55804 0.79045397,-1.55804 0.43655563,0 0.79045393,0.69756 0.79045393,1.55804 z" class="st13" rx=".79" ry="1.558" visibility="hidden"/><ellipse id="ellipse192" cx=".79" cy="593.718" stroke="#595959" stroke-linecap="round" stroke-linejoin="round" stroke-width=".72" d="m 1.5809079,593.71802 c 0,0.86048 -0.3538983,1.55804 -0.79045393,1.55804 C 0.3538983,595.27606 0,594.5785 0,593.71802 c 0,-0.86048 0.3538983,-1.55804 0.79045397,-1.55804 0.43655563,0 0.79045393,0.69756 0.79045393,1.55804 z" class="st14" rx=".79" ry="1.558"/></g><g id="shape73-80" transform="translate(5.83241,-8.89318)"><title id="title195">Sheet.73</title><path id="path197" fill="url(#grad32-73)" stroke="#595959" stroke-linecap="round" stroke-linejoin="round" stroke-width=".72" d="m 0,594.31 0.36,0.97 7.98,-4.69 L 7.3,590 0,594.31 z" class="st12"/></g><g id="shape74-83" transform="translate(0,-0.162045)"><title id="title200">Sheet.74</title><path id="path202" fill="url(#grad32-73)" stroke="#595959" stroke-linecap="round" stroke-linejoin="round" stroke-width=".72" d="m 2.34,595.28 a 5.15101,5.2261 0 0 1 -1.3,-3.77 12.4175,12.5985 0 0 1 0.81,-4.16 6.59861,6.6948 0 0 1 1.89,-2.73 1.35747,1.37726 0 0 1 1.23,-0.05 l -0.55,-0.35 a 1.76495,1.79068 -180 0 0 -1.72,-0.21 5.01071,5.08375 -180 0 0 -1.68,2.25 12.2561,12.4348 -180 0 0 -1.02,4.66 6.56502,6.66072 -180 0 0 1.04,3.59 l 1.3,0.77 z" class="st12"/></g><g id="shape75-86" transform="translate(2.05835,-3.44709)"><title id="title205">Sheet.75</title><path id="path207" fill="url(#grad32-73)" stroke="#595959" stroke-linecap="round" stroke-linejoin="round" stroke-width=".72" d="M 0.61,593.05 A 2.84025,2.88165 0 0 1 0,594.9 0.505371,0.512738 -180 0 0 0.762967,595.19427 1.49432,1.51611 -180 0 0 1.31,594.39 2.93625,2.97905 -180 0 0 1.44,592.83 0.715957,0.726394 -180 0 0 0.921271,592.20092 0.754058,0.76505 -180 0 0 0.441341,592.39763 2.64996,2.68859 0 0 1 0.61,593.05 z" class="st12"/></g></g></g><g id="shape1-89" transform="translate(390.35437,-411.62442)"><title id="title210">Contact</title><path id="path212" fill="#595959" stroke="none" d="m 30.6,563.01 -1.44,0.77 -3.78,7.13 -3.77,-7.13 -1.44,-0.77 a 13.9194,13.3626 -180 0 0 -7.99,12.97 10.5472,10.1253 -180 0 0 13.2,7.6 10.5472,10.1253 -180 0 0 13.21,-7.6 13.923,13.3661 -180 0 0 -7.99,-12.97 z m 2.71,-7.31 a 7.925,7.607998 -180 1 0 -15.85,0 7.925,7.607998 -180 1 0 15.85,0 z m 10.54,18.53 21.92,0 0,-2.34 -21.92,0 0,2.34 z m 0,-9.36 21.92,0 0,-2.33 -21.92,0 0,2.33 z m 0,-9.35 21.92,0 0,-2.34 -21.92,0 0,2.34 z M 0,536.81 l 0,58.47 77.95,0 0,-58.47 -77.95,0 z m 73.08,53.6 -68.21,0 0,-49 68.21,0 0,49 z" class="st15"/></g><g id="shape10-91" transform="translate(58.558584,-382.80542)"><title id="title215">User.50</title><path id="path217" fill="#595959" stroke="none" d="m 29.61,560.79 a 15.037,14.8002 0 0 1 -2.31,1.25 l -6.06,11.74 -6.06,-11.74 a 14.8596,14.6256 0 0 1 -2.32,-1.25 22.3471,21.9952 -180 0 0 -12.81,21.33 16.9272,16.6607 -180 0 0 21.19,12.52 16.9272,16.6607 -180 0 0 21.19,-12.52 22.3471,21.9952 -180 0 0 -12.82,-21.33 z m -8.37,29.68 a 14.8173,14.584 0 0 1 -16.96,-8.35 18.6389,18.3454 0 0 1 8.15,-16.19 l 8.81,17.06 8.8,-17.06 a 18.6357,18.3422 0 0 1 8.15,16.19 14.8173,14.584 0 0 1 -16.95,8.35 z m 0,-54.23 A 12.7159,12.5157 -180 0 0 8.52,548.75 12.7159,12.5157 -180 0 0 21.24,561.27 12.7159,12.5157 -180 0 0 33.95,548.75 12.7159,12.5157 -180 0 0 21.24,536.24 z m 0,20.86 a 8.48454,8.35092 0 0 1 -8.48,-8.35 8.48454,8.35092 0 0 1 8.48,-8.34 8.48454,8.35092 0 0 1 8.47,8.34 8.48454,8.35092 0 0 1 -8.47,8.35 z" class="st15"/></g><g id="group8-93" transform="translate(164.14937,-426.93142)"><title id="title220">Add list item permissions</title></g><g id="shape14-94" transform="translate(700.03937,-175.34542)"><title id="title223">Network</title><path id="path225" fill="#595959" stroke="none" d="m 11.12,546.04 0,20.06 29.64,0 0,-20.06 -29.64,0 z m -1.86,21.88 0,-23.7 33.35,0 0,23.7 -33.35,0 z m 38.91,21.89 0,-3.65 -12.97,0 0,3.65 12.97,0 z m -16.68,1.82 0,-7.3 -11.11,0 0,7.3 11.11,0 z m -3.7,-16.41 -3.71,0 0,5.47 3.71,0 0,-5.47 z m -22.23,-3.65 40.76,0 0,-31 -40.76,0 0,31 z m 11.11,18.24 0,-3.65 -12.96,0 0,3.65 12.96,0 z m 33.04,-7.3 c 1.2,0 2.16,0.95 2.16,2.13 l 0,6.68 c 0,1.18 -0.96,2.13 -2.16,2.13 l -14.57,0 c -0.16,1.03 -1.02,1.83 -2.1,1.83 l -14.2,0 c -1.09,0 -1.95,-0.8 -2.1,-1.83 l -14.58,0 C 0.97,593.45 0,592.5 0,591.32 l 0,-6.68 c 0,-1.18 0.97,-2.13 2.16,-2.13 l 14.58,0 c 0.15,-1.02 1.01,-1.82 2.1,-1.82 l 1.54,0 0,-5.47 -16.36,0 c -1.2,0 -2.17,-0.95 -2.17,-2.13 l 0,-34.04 c 0,-1.17 0.97,-2.13 2.17,-2.13 l 43.84,0 c 1.19,0 2.16,0.96 2.16,2.13 l 0,34.04 c 0,1.18 -0.97,2.13 -2.16,2.13 l -16.37,0 0,5.47 1.55,0 c 1.08,0 1.94,0.79 2.1,1.82 l 14.57,0 z" class="st15"/></g><g id="shape67-96" transform="matrix(-0.97861244,0,0,-1,386.90214,752.05858)"><title id="title228">Sheet.67</title><path id="path230" stroke="#595959" stroke-linecap="round" stroke-linejoin="round" stroke-width="1.5" marker-end="url(#mrkr13-51)" d="m 0,595.28 260.77,0" class="st6"/></g><g id="shape3-101" transform="translate(23.930785,-493.35742)"><title id="title233">Sheet.3</title><path id="path235" stroke="#000" stroke-linecap="round" stroke-linejoin="round" stroke-width=".25" d="m 0,595.28 810.75,0" class="st16"/></g><g id="shape38-104" transform="matrix(0,0.93736738,-1,0,1323.4354,191.29055)"><title id="title238">Sheet.38</title><path id="path240" stroke="#595959" stroke-linecap="round" stroke-linejoin="round" stroke-width="1.5" marker-end="url(#mrkr13-51)" d="m 0,595.28 114.08,0" class="st6"/></g><g id="shape17-109" transform="translate(467.95237,-489.10542)"><title id="title243">Sheet.17</title><desc id="desc245">3- Keystone provides Alice with a list of services</desc><rect id="rect247" width="226.063" height="14.173" x="0" y="581.102" fill="#fff" stroke="none" class="st1"/><text id="text249" x=".29" y="595.39" fill="#3f3f3f" class="st17" font-family="Calibri"><tspan style="-inkscape-font-specification:Calibri Bold" id="tspan3880" font-size="11.2" font-weight="bold">3. Keystone provides user with a list of services</tspan></text></g><g id="shape79-115" transform="matrix(-1,0,0,-1,704.02837,972.62458)"><title id="title258">Sheet.79</title><path id="path260" stroke="#595959" stroke-linecap="round" stroke-linejoin="round" stroke-width="1.5" marker-end="url(#mrkr13-51)" d="m 0,595.28 219.65,0" class="st6"/></g><g id="shape86-120" transform="translate(23.930785,-261.80142)"><title id="title263">Sheet.86</title><path id="path265" stroke="#000" stroke-linecap="round" stroke-linejoin="round" stroke-width=".25" d="m 0,595.28 810.75,0" class="st16"/></g><g id="shape49-123" transform="translate(476.10237,-260.91642)"><title id="title268">Sheet.49</title><desc id="desc270">4- The service verifies Alice’s token</desc><rect id="rect272" width="196.299" height="14.173" x="0" y="581.102" fill="#fff" stroke="none" class="st1"/><text id="text274" x="10.02" y="595.39" fill="#3f3f3f" class="st17" font-family="Calibri"><tspan style="-inkscape-font-specification:Calibri Bold" id="tspan3870" font-size="11.2" font-weight="bold">4. The service verifies the user&apos;s token</tspan></text></g><g id="shape80-131" transform="translate(62.101884,-177.93942)"><title id="title287">Network.80</title><path id="path289" fill="#595959" stroke="none" d="m 11.12,546.04 0,20.06 29.64,0 0,-20.06 -29.64,0 z m -1.86,21.88 0,-23.7 33.35,0 0,23.7 -33.35,0 z m 38.91,21.89 0,-3.65 -12.97,0 0,3.65 12.97,0 z m -16.68,1.82 0,-7.3 -11.11,0 0,7.3 11.11,0 z m -3.7,-16.41 -3.71,0 0,5.47 3.71,0 0,-5.47 z m -22.23,-3.65 40.76,0 0,-31 -40.76,0 0,31 z m 11.11,18.24 0,-3.65 -12.96,0 0,3.65 12.96,0 z m 33.04,-7.3 c 1.2,0 2.16,0.95 2.16,2.13 l 0,6.68 c 0,1.18 -0.96,2.13 -2.16,2.13 l -14.57,0 c -0.16,1.03 -1.02,1.83 -2.1,1.83 l -14.2,0 c -1.09,0 -1.95,-0.8 -2.1,-1.83 l -14.58,0 C 0.97,593.45 0,592.5 0,591.32 l 0,-6.68 c 0,-1.18 0.97,-2.13 2.16,-2.13 l 14.58,0 c 0.15,-1.02 1.01,-1.82 2.1,-1.82 l 1.54,0 0,-5.47 -16.36,0 c -1.2,0 -2.17,-0.95 -2.17,-2.13 l 0,-34.04 c 0,-1.17 0.97,-2.13 2.17,-2.13 l 43.84,0 c 1.19,0 2.16,0.96 2.16,2.13 l 0,34.04 c 0,1.18 -0.97,2.13 -2.16,2.13 l -16.37,0 0,5.47 1.55,0 c 1.08,0 1.94,0.79 2.1,1.82 l 14.57,0 z" class="st15"/></g><g id="shape53-133" transform="translate(22.558585,-96.506418)"><title id="title292">Sheet.53</title><path id="path294" stroke="#000" stroke-linecap="round" stroke-linejoin="round" stroke-width=".25" d="m 0,595.28 810.75,0" class="st16"/></g><g id="shape59-136" transform="translate(260.66837,-545.79842)"><title id="title297">Sheet.59</title><desc id="desc299">The Keystone Identity Manager</desc><rect id="rect301" width="351.496" height="14.173" x="0" y="581.102" fill="#fff" stroke="none" class="st1"/><text id="text303" x="22.84" y="595.39" fill="#3f3f3f" class="st17" font-family="Calibri"><tspan style="-inkscape-font-specification:Calibri Bold" id="tspan3902" font-size="11.2" font-weight="bold">The Keystone Identity Manager</tspan></text></g><g id="shape51-139" transform="translate(130.27537,-260.91642)"><title id="title306">Sheet.51</title><desc id="desc308">5- Keystone provides extra info along with the token</desc><rect id="rect310" width="253.701" height="14.173" x="0" y="581.102" fill="#fff" stroke="none" class="st1"/><text id="text312" x="5.97" y="595.39" fill="#3f3f3f" class="st17" font-family="Calibri"><tspan style="-inkscape-font-specification:Calibri Bold" id="tspan3868" font-size="11.2" font-weight="bold">5. Keystone provides extra information and the token</tspan></text></g><g id="shape16-145" transform="translate(402.91537,-14.301918)"><title id="title321">Configure</title><path id="path323" fill="#595959" stroke="none" d="m 52,574.16 c -1.1,-0.46 -4.61,-1.95 -4.61,-1.95 l 0.22,-2.93 0.19,-2.45 -0.31,-4.69 2.31,-1.34 c 0,0 1.18,-0.48 2.27,-0.93 -0.79,-1.92 -1.11,-2.71 -1.9,-4.63 -1.11,0.45 -4.74,1.95 -4.74,1.95 l -1.8,-2.25 c -0.87,-1.09 -1.94,-2.12 -3.29,-3.17 l -2.13,-1.65 0.86,-2.61 c 0,0 0.5,-1.23 0.99,-2.4 -1.92,-0.79 -2.71,-1.11 -4.63,-1.9 -0.5,1.22 -2.02,4.92 -2.02,4.92 l -2.82,-0.27 c -1.44,-0.15 -2.93,-0.12 -4.42,0.08 l -2.69,0.36 -1.25,-2.46 c 0,0 -0.55,-1.31 -1.08,-2.57 -1.91,0.8 -2.7,1.14 -4.61,1.94 0.57,1.35 2.17,5.15 2.17,5.15 l -2.18,1.81 c -1.03,0.85 -1.99,1.87 -2.94,3.1 l -1.63,2.13 -2.62,-0.84 c 0,0 -1.42,-0.57 -2.83,-1.13 -0.77,1.92 -1.09,2.72 -1.86,4.65 1.43,0.57 5.22,2.09 5.22,2.09 0,0 -0.23,4.31 -0.25,4.65 0.02,0.31 0.08,1.27 0.08,1.29 0,0 0.22,2.28 0.22,2.28 l -1.36,1.24 c -0.42,0.42 -0.57,0.53 -3.97,1.87 0.75,1.93 1.06,2.73 1.81,4.67 1.42,-0.55 5.39,-2.1 5.39,-2.1 l 2.06,2.8 c 0.62,0.78 1.5,1.67 2.58,2.58 l 2.01,1.69 -0.89,2.53 c 0,0 -0.61,1.41 -1.22,2.81 1.91,0.83 2.69,1.17 4.59,1.99 0.56,-1.3 2.21,-5.11 2.21,-5.11 l 2.88,0.39 c 1.36,0.2 2.83,0.23 4.35,0.1 l 2.62,-0.23 1.17,2.42 c 0,0 0.54,1.33 1.05,2.63 1.93,-0.77 2.72,-1.09 4.65,-1.86 -0.48,-1.2 -2.01,-5.01 -2.01,-5.01 l 2.88,-2.08 c 0.82,-0.66 1.75,-1.6 2.72,-2.78 l 1.68,-2.04 2.57,0.88 c 0,0 1.21,0.51 2.37,1 0.8,-1.92 1.14,-2.71 1.94,-4.62 z m -0.87,-4.42 c 0,0 -0.01,0.1 -0.03,0.19 0.49,0.21 5.54,2.34 5.54,2.34 l -4.7,11.15 c 0,0 -5.16,-2.18 -5.64,-2.38 -0.06,0.07 -0.12,0.15 -0.12,0.15 -1.12,1.36 -2.23,2.48 -3.39,3.41 0,0 -0.37,0.27 -0.63,0.45 0.2,0.52 2.29,5.73 2.29,5.73 l -11.22,4.5 c 0,0 -2.17,-5.43 -2.37,-5.92 -0.09,0.01 -0.19,0.02 -0.19,0.02 -1.8,0.15 -3.54,0.11 -5.16,-0.12 0,0 -0.1,-0.01 -0.19,-0.03 -0.22,0.5 -2.55,5.9 -2.55,5.9 l -11.09,-4.8 c 0,0 2.4,-5.56 2.61,-6.05 -0.07,-0.06 -0.15,-0.13 -0.15,-0.13 -1.26,-1.06 -2.29,-2.1 -3.16,-3.19 0,0 -0.26,-0.36 -0.44,-0.6 -0.51,0.2 -6.15,2.4 -6.15,2.4 L 0,571.49 c 0,0 6.05,-2.36 6.05,-2.37 0,0 0.1,-0.03 0.18,-0.06 -0.03,-0.3 -0.06,-0.71 -0.06,-0.71 l -0.1,-1.51 c 0,0 0.1,-1.88 0.12,-2.33 -0.47,-0.19 -6.14,-2.46 -6.14,-2.46 l 4.49,-11.23 c 0,0 5.62,2.25 6.12,2.45 0.06,-0.08 0.12,-0.16 0.12,-0.16 1.11,-1.44 2.25,-2.64 3.49,-3.67 0,0 0.08,-0.07 0.15,-0.13 -0.2,-0.48 -2.52,-5.98 -2.52,-5.98 l 11.14,-4.71 c 0,0 2.25,5.34 2.46,5.83 0.09,-0.01 0.19,-0.02 0.19,-0.02 1.78,-0.24 3.54,-0.27 5.25,-0.1 0,0 0.1,0.01 0.19,0.02 0.2,-0.49 2.36,-5.77 2.36,-5.77 l 11.18,4.6 c 0,0 -2.12,5.18 -2.32,5.67 0.07,0.06 0.16,0.12 0.16,0.12 1.57,1.22 2.84,2.44 3.87,3.74 0,0 0.08,0.1 0.16,0.19 0.48,-0.2 5.56,-2.29 5.56,-2.29 l 4.59,11.19 c 0,0 -5.05,2.08 -5.54,2.28 0.01,0.1 0.02,0.2 0.02,0.2 0.12,0.98 0.17,1.79 0.17,2.55 0,0.87 -0.07,1.79 -0.21,2.91 z m -17.67,3.07 c 3.28,-2.63 3.81,-7.42 1.19,-10.71 -2.63,-3.28 -7.42,-3.81 -10.7,-1.19 -3.28,2.63 -3.81,7.42 -1.19,10.71 2.62,3.29 7.41,3.82 10.7,1.19 z m -3.53,-17.04 c 2.97,0.33 5.62,1.79 7.49,4.12 3.83,4.81 3.05,11.84 -1.75,15.69 -2.33,1.86 -5.24,2.7 -8.2,2.37 -2.96,-0.33 -5.62,-1.79 -7.48,-4.12 -1.64,-2.05 -2.43,-4.51 -2.43,-6.96 0,-3.28 1.43,-6.52 4.18,-8.72 2.32,-1.86 5.23,-2.71 8.19,-2.38 z" class="st15"/></g><g id="shape95-147" transform="translate(709.26337,-10.541018)"><title id="title326">User.95</title><path id="path328" fill="#595959" stroke="none" d="m 29.61,560.79 a 15.037,14.8002 0 0 1 -2.31,1.25 l -6.06,11.74 -6.06,-11.74 a 14.8596,14.6256 0 0 1 -2.32,-1.25 22.3471,21.9952 -180 0 0 -12.81,21.33 16.9272,16.6607 -180 0 0 21.19,12.52 16.9272,16.6607 -180 0 0 21.19,-12.52 22.3471,21.9952 -180 0 0 -12.82,-21.33 z m -8.37,29.68 a 14.8173,14.584 0 0 1 -16.96,-8.35 18.6389,18.3454 0 0 1 8.15,-16.19 l 8.81,17.06 8.8,-17.06 a 18.6357,18.3422 0 0 1 8.15,16.19 14.8173,14.584 0 0 1 -16.95,8.35 z m 0,-54.23 A 12.7159,12.5157 -180 0 0 8.52,548.75 12.7159,12.5157 -180 0 0 21.24,561.27 12.7159,12.5157 -180 0 0 33.95,548.75 12.7159,12.5157 -180 0 0 21.24,536.24 z m 0,20.86 a 8.48454,8.35092 0 0 1 -8.48,-8.35 8.48454,8.35092 0 0 1 8.48,-8.34 8.48454,8.35092 0 0 1 8.47,8.34 8.48454,8.35092 0 0 1 -8.47,8.35 z" class="st15"/></g><g id="group11-149" transform="translate(184.21124,-429.12639)"><title id="title331">Sheet.11</title><g id="group68-150"><title id="title334">Sheet.68</title><g id="shape69-151" transform="translate(18.153,-2.83465)"><title id="title337">Sheet.69</title><desc id="desc339">A Temporary Token is created</desc><rect id="rect341" width="110.623" height="11.842" x="0" y="583.433" fill="#fff" stroke="#595959" stroke-linecap="round" stroke-linejoin="round" stroke-width=".25" class="st8"/><text id="text343" x="4" y="591.75" fill="#3f3f3f" class="st9" font-family="Calibri"><tspan id="tspan3866" font-size="8">A Temporary Token is created</tspan></text></g></g><g id="group60-154" transform="translate(120.981,-3.65857)"><title id="title346">Key</title><g id="shape61-155"><title id="title349">Sheet.61</title><path id="path351" fill="#f0f" fill-opacity="0" d="m 2.32,595.09 0.03,0.01 a 0.0297876,0.0293596 90 0 1 -0.029706,-0.0178 z m 0.03,0.01 a 1.28122,1.2999 -180 0 0 1.38,-0.07 4.47192,4.53711 -180 0 0 1.12,-1.06 11.3412,11.5066 -180 0 0 1.22,-3.15 l 2.9,-1.68 1.08,-2.27 3.27,-1.91 0.85,-1.73 0,-1.53 -1.04,-0.6 -7.3,4.31 A 1.636,1.65985 -180 0 0 5.6,584.98 1.40699,1.4275 -180 0 0 4.97,584.41 1.40699,1.4275 -180 0 0 3.93,584.36 1.37726,1.35747 90 0 1 4.97,584.4 L 4.42,584.06 A 1.79068,1.76495 -90 0 0 2.7,583.85 5.08375,5.01071 -90 0 0 1.02,586.1 12.4348,12.2561 -90 0 0 0,590.76 a 6.66072,6.56502 -90 0 0 1.04,3.59 l 1.3,0.76 0.01,-0.01 z m -1.31,-3.75 a 12.5985,12.4175 90 0 1 0.76,-4.05 13.9024,14.105 -180 0 0 -0.76,4.05 6.599,6.6952 -180 0 0 0.42,2.37 5.2261,5.15101 90 0 1 -0.42,-2.37 z" class="st10"/><path id="path353" stroke="#595959" stroke-linecap="round" stroke-linejoin="round" stroke-opacity="0" stroke-width=".72" d="m 2.32,595.09 0.03,0.01 A 0.0297876,0.0293596 90 0 1 2.320294,595.0822 M 2.35,595.1 a 1.28122,1.2999 -180 0 0 1.38,-0.07 4.47192,4.53711 -180 0 0 1.12,-1.06 11.3412,11.5066 -180 0 0 1.22,-3.15 l 2.9,-1.68 1.08,-2.27 3.27,-1.91 0.85,-1.73 0,-1.53 -1.04,-0.6 -7.3,4.31 A 1.636,1.65985 -180 0 0 5.6,584.98 1.40699,1.4275 -180 0 0 4.97,584.41 1.40699,1.4275 -180 0 0 3.93,584.36 1.37726,1.35747 90 0 1 4.97,584.4 L 4.42,584.06 A 1.79068,1.76495 -90 0 0 2.7,583.85 5.08375,5.01071 -90 0 0 1.02,586.1 12.4348,12.2561 -90 0 0 0,590.76 a 6.66072,6.56502 -90 0 0 1.04,3.59 l 1.3,0.76 m -1.3,-3.76 a 12.5985,12.4175 90 0 1 0.76,-4.05 13.9024,14.105 -180 0 0 -0.76,4.05 6.599,6.6952 -180 0 0 0.42,2.37 5.2261,5.15101 90 0 1 -0.42,-2.37" class="st11"/></g><g id="shape62-158" transform="translate(1.04314,0)"><title id="title356">Sheet.62</title><path id="path358" fill="url(#grad32-73)" stroke="#595959" stroke-linecap="round" stroke-linejoin="round" stroke-width=".72" d="m 13.13,581.7 0,1.53 -0.85,1.73 -3.28,1.91 -1.07,2.27 -2.91,1.68 a 11.3412,11.5066 0 0 1 -1.22,3.15 4.47192,4.53711 0 0 1 -1.11,1.06 1.28122,1.2999 0 0 1 -1.88,-0.45 6.599,6.6952 0 0 1 -0.81,-3.23 13.9024,14.105 0 0 1 0.8,-4.16 5.88781,5.97364 0 0 1 1.89,-2.74 1.40699,1.4275 0 0 1 1.87,0.53 3.74301,3.79758 0 0 1 0.59,1.4 l 7.98,-4.68 z" class="st12"/></g><g id="shape63-161" transform="matrix(0.98480775,0.17364818,-0.17364818,0.98480775,105.047,5.45962)"><title id="title361">Sheet.63</title><ellipse id="ellipse363" cx=".79" cy="593.718" fill="url(#grad32-73)" d="m 1.5809079,593.71802 c 0,0.86048 -0.3538983,1.55804 -0.79045393,1.55804 C 0.3538983,595.27606 0,594.5785 0,593.71802 c 0,-0.86048 0.3538983,-1.55804 0.79045397,-1.55804 0.43655563,0 0.79045393,0.69756 0.79045393,1.55804 z" class="st13" rx=".79" ry="1.558" visibility="hidden"/><ellipse id="ellipse365" cx=".79" cy="593.718" stroke="#595959" stroke-linecap="round" stroke-linejoin="round" stroke-width=".72" d="m 1.5809079,593.71802 c 0,0.86048 -0.3538983,1.55804 -0.79045393,1.55804 C 0.3538983,595.27606 0,594.5785 0,593.71802 c 0,-0.86048 0.3538983,-1.55804 0.79045397,-1.55804 0.43655563,0 0.79045393,0.69756 0.79045393,1.55804 z" class="st14" rx=".79" ry="1.558"/></g><g id="shape64-165" transform="translate(5.83241,-8.89318)"><title id="title368">Sheet.64</title><path id="path370" fill="url(#grad32-73)" stroke="#595959" stroke-linecap="round" stroke-linejoin="round" stroke-width=".72" d="m 0,594.31 0.36,0.97 7.98,-4.69 L 7.3,590 0,594.31 z" class="st12"/></g><g id="shape65-168" transform="translate(0,-0.162045)"><title id="title373">Sheet.65</title><path id="path375" fill="url(#grad32-73)" stroke="#595959" stroke-linecap="round" stroke-linejoin="round" stroke-width=".72" d="m 2.34,595.28 a 5.15101,5.2261 0 0 1 -1.3,-3.77 12.4175,12.5985 0 0 1 0.81,-4.16 6.59861,6.6948 0 0 1 1.89,-2.73 1.35747,1.37726 0 0 1 1.23,-0.05 l -0.55,-0.35 a 1.76495,1.79068 -180 0 0 -1.72,-0.21 5.01071,5.08375 -180 0 0 -1.68,2.25 12.2561,12.4348 -180 0 0 -1.02,4.66 6.56502,6.66072 -180 0 0 1.04,3.59 l 1.3,0.77 z" class="st12"/></g><g id="shape66-171" transform="translate(2.05835,-3.44709)"><title id="title378">Sheet.66</title><path id="path380" fill="url(#grad32-73)" stroke="#595959" stroke-linecap="round" stroke-linejoin="round" stroke-width=".72" d="M 0.61,593.05 A 2.84025,2.88165 0 0 1 0,594.9 0.505371,0.512738 -180 0 0 0.762967,595.19427 1.49432,1.51611 -180 0 0 1.31,594.39 2.93625,2.97905 -180 0 0 1.44,592.83 0.715957,0.726394 -180 0 0 0.921271,592.20092 0.754058,0.76505 -180 0 0 0.441341,592.39763 2.64996,2.68859 0 0 1 0.61,593.05 z" class="st12"/></g></g></g><g id="shape50-174" transform="translate(162.87337,-377.56542)"><title id="title383">Sheet.50</title><desc id="desc385">2- Alice requests all the tenants she has</desc><rect id="rect387" width="229.606" height="14.173" x="0" y="581.102" fill="#fff" stroke="none" class="st1"/><text id="text389" x="15.41" y="595.39" fill="#3f3f3f" class="st17" font-family="Calibri"><tspan style="-inkscape-font-specification:Calibri Bold" id="tspan3862" font-size="11.2" font-weight="bold">2. User requests all the tenants</tspan></text></g><g id="shape102-180" transform="translate(390.21237,-324.34142)"><title id="title398">Contact.102</title><path id="path400" fill="#595959" stroke="none" d="m 30.6,563.01 -1.44,0.77 -3.78,7.13 -3.77,-7.13 -1.44,-0.77 a 13.9194,13.3626 -180 0 0 -7.99,12.97 10.5472,10.1253 -180 0 0 13.2,7.6 10.5472,10.1253 -180 0 0 13.21,-7.6 13.923,13.3661 -180 0 0 -7.99,-12.97 z m 2.71,-7.31 a 7.925,7.607998 -180 1 0 -15.85,0 7.925,7.607998 -180 1 0 15.85,0 z m 10.54,18.53 21.92,0 0,-2.34 -21.92,0 0,2.34 z m 0,-9.36 21.92,0 0,-2.33 -21.92,0 0,2.33 z m 0,-9.35 21.92,0 0,-2.34 -21.92,0 0,2.34 z M 0,536.81 l 0,58.47 77.95,0 0,-58.47 -77.95,0 z m 73.08,53.6 -68.21,0 0,-49 68.21,0 0,49 z" class="st15"/></g><g id="shape105-182" transform="translate(704.72737,-405.48342)"><title id="title403">User.105</title><path id="path405" fill="#595959" stroke="none" d="m 29.61,560.79 a 15.037,14.8002 0 0 1 -2.31,1.25 l -6.06,11.74 -6.06,-11.74 a 14.8596,14.6256 0 0 1 -2.32,-1.25 22.3471,21.9952 -180 0 0 -12.81,21.33 16.9272,16.6607 -180 0 0 21.19,12.52 16.9272,16.6607 -180 0 0 21.19,-12.52 22.3471,21.9952 -180 0 0 -12.82,-21.33 z m -8.37,29.68 a 14.8173,14.584 0 0 1 -16.96,-8.35 18.6389,18.3454 0 0 1 8.15,-16.19 l 8.81,17.06 8.8,-17.06 a 18.6357,18.3422 0 0 1 8.15,16.19 14.8173,14.584 0 0 1 -16.95,8.35 z m 0,-54.23 A 12.7159,12.5157 -180 0 0 8.52,548.75 12.7159,12.5157 -180 0 0 21.24,561.27 12.7159,12.5157 -180 0 0 33.95,548.75 12.7159,12.5157 -180 0 0 21.24,536.24 z m 0,20.86 a 8.48454,8.35092 0 0 1 -8.48,-8.35 8.48454,8.35092 0 0 1 8.48,-8.34 8.48454,8.35092 0 0 1 8.47,8.34 8.48454,8.35092 0 0 1 -8.47,8.35 z" class="st15"/></g><g id="shape6-184" transform="translate(91.719584,-424.98942)"><title id="title408">Sheet.6</title><path id="path410" stroke="#595959" stroke-linecap="round" stroke-linejoin="round" stroke-width="1.5" marker-end="url(#mrkr13-51)" d="m 0,595.28 66.9,-39 217.55,0" class="st6"/></g><g id="shape43-189" transform="translate(280.51137,-459.44442)"><title id="title413">Sheet.43</title><desc id="desc415">Credentials are sent</desc><rect id="rect417" width="73.701" height="11.842" x="0" y="583.433" fill="#fff" stroke="#595959" stroke-linecap="round" stroke-linejoin="round" stroke-width=".25" class="st8"/><text id="text419" x="4" y="591.75" fill="#3f3f3f" class="st9" font-family="Calibri"><tspan id="tspan3876" font-size="8">Credentials are sent</tspan></text></g><g id="shape94-192" transform="matrix(-1,0,0,1,365.55037,-417.81442)"><title id="title422">Sheet.94</title><path id="path424" stroke="#595959" stroke-linecap="round" stroke-linejoin="round" stroke-width="1.5" marker-end="url(#mrkr13-51)" d="m 0,574.6 36.85,20.68 196.57,0" class="st6"/></g><g id="shape2-197" transform="translate(149.40937,-489.10542)"><title id="title427">Sheet.2</title><desc id="desc429">1- Alice wants to launch an instance</desc><rect id="rect431" width="199.134" height="14.173" x="0" y="581.102" fill="#fff" stroke="none" class="st1"/><text id="text433" x="17.59" y="595.39" fill="#3f3f3f" class="st17" font-family="Calibri"><tspan style="-inkscape-font-specification:Calibri Bold" id="tspan3878" font-size="11.2" font-weight="bold">1. User wants to launch an instance</tspan></text></g><g id="shape106-203" transform="translate(390.21237,-174.99042)"><title id="title442">Contact.106</title><path id="path444" fill="#595959" stroke="none" d="m 30.6,563.01 -1.44,0.77 -3.78,7.13 -3.77,-7.13 -1.44,-0.77 a 13.9194,13.3626 -180 0 0 -7.99,12.97 10.5472,10.1253 -180 0 0 13.2,7.6 10.5472,10.1253 -180 0 0 13.21,-7.6 13.923,13.3661 -180 0 0 -7.99,-12.97 z m 2.71,-7.31 a 7.925,7.607998 -180 1 0 -15.85,0 7.925,7.607998 -180 1 0 15.85,0 z m 10.54,18.53 21.92,0 0,-2.34 -21.92,0 0,2.34 z m 0,-9.36 21.92,0 0,-2.33 -21.92,0 0,2.33 z m 0,-9.35 21.92,0 0,-2.34 -21.92,0 0,2.34 z M 0,536.81 l 0,58.47 77.95,0 0,-58.47 -77.95,0 z m 73.08,53.6 -68.21,0 0,-49 68.21,0 0,49 z" class="st15"/></g><g id="shape109-205" transform="matrix(-1,0,0,1,694.36937,-193.68142)"><title id="title447">Sheet.109</title><path id="path449" stroke="#595959" stroke-linecap="round" stroke-linejoin="round" stroke-width="1.5" marker-end="url(#mrkr13-51)" d="m 0,571.03 19.84,23.83 190.9,0.39" class="st6"/></g><g id="group32-210" transform="translate(517.53837,-211.10742)"><title id="title452">Sheet.32</title><g id="shape41-211" transform="translate(38.2677,0)"><title id="title455">Sheet.41</title><desc id="desc457">Is the Token correct ?</desc><rect id="rect459" width="79.036" height="11.842" x="0" y="583.433" fill="#fff" stroke="#595959" stroke-linecap="round" stroke-linejoin="round" stroke-width=".25" class="st8"/><text id="text461" x="4" y="591.75" fill="#3f3f3f" class="st9" font-family="Calibri"><tspan id="tspan3872" font-size="8">Is the Token correct ?</tspan></text></g><g id="group25-214" transform="translate(109.417,-0.269695)"><title id="title464">Sheet.25</title><g id="shape42-215"><title id="title467">Search.33</title><path id="path469" fill="#595959" stroke="none" d="m 10.35,579.75 a 5.42174,5.33636 -180 0 0 -5.42,5.34 5.39302,5.30809 -180 0 0 1.16,3.29 1.37235,1.35074 -180 0 0 -0.44,0.24 l -5.31,4.44 a 0.919541,0.90506 -180 0 0 -0.0818178,1.32776 L 0.84,594.99 a 0.86559,0.851959 -180 0 0 1.315,-0.0311 L 6.75,589.71 a 1.35253,1.33123 -180 0 0 0.25,-0.43 5.3935,5.30856 -180 0 0 3.35,1.14 5.42174,5.33636 -180 0 0 5.42,-5.33 5.42174,5.33636 -180 0 0 -5.42,-5.34 z m 0,9.7 a 4.44132,4.37138 0 0 1 -4.44,-4.36 4.44132,4.37138 0 0 1 4.44,-4.37 4.44132,4.37138 0 0 1 4.44,4.37 4.44132,4.37138 0 0 1 -4.44,4.36 z" class="st15"/></g><g id="shape31-217" transform="translate(5.7699,-5.60234)"><title id="title472">Sheet.31</title><ellipse id="ellipse474" cx="4.642" cy="590.555" fill="#fff" stroke="#595959" stroke-linecap="round" stroke-linejoin="round" stroke-width=".75" d="m 9.2834597,590.55499 c 0,2.60701 -2.0781733,4.72041 -4.6417299,4.72041 C 2.0781732,595.2754 0,593.162 0,590.55499 c 0,-2.60701 2.0781732,-4.72041 4.6417298,-4.72041 2.5635566,0 4.6417299,2.1134 4.6417299,4.72041 z" class="st19" rx="4.642" ry="4.72"/></g></g></g><g id="shape76-219" transform="matrix(-1.0281602,0,0,-1,390.21237,964.53358)"><title id="title477">Sheet.76</title><path id="path479" stroke="#595959" stroke-linecap="round" stroke-linejoin="round" stroke-width="1.5" marker-end="url(#mrkr13-51)" d="m 0,595.28 254.61,0" class="st6"/></g><g id="group35-224" transform="translate(501.61337,-187.53842)"><title id="title482">Sheet.35</title><g id="shape24-225"><title id="title485">Sheet.24</title><desc id="desc487">Does it allow that service usage ?</desc><rect id="rect489" width="128.409" height="11.842" x="0" y="583.433" fill="#fff" stroke="#595959" stroke-linecap="round" stroke-linejoin="round" stroke-width=".25" class="st8"/><text id="text491" x="4" y="591.75" fill="#3f3f3f" class="st9" font-family="Calibri"><tspan id="tspan3874" font-size="8">Does it allow that service usage ?</tspan></text></g><g id="group23-228" transform="translate(121.89,0.322876)"><title id="title494">Sheet.23</title><g id="shape28-229"><title id="title497">Search.33</title><path id="path499" fill="#595959" stroke="none" d="m 10.35,579.75 a 5.42174,5.33636 -180 0 0 -5.42,5.34 5.39302,5.30809 -180 0 0 1.16,3.29 1.37235,1.35074 -180 0 0 -0.44,0.24 l -5.31,4.44 a 0.919541,0.90506 -180 0 0 -0.0818178,1.32776 L 0.84,594.99 a 0.86559,0.851959 -180 0 0 1.315,-0.0311 L 6.75,589.71 a 1.35253,1.33123 -180 0 0 0.25,-0.43 5.3935,5.30856 -180 0 0 3.35,1.14 5.42174,5.33636 -180 0 0 5.42,-5.33 5.42174,5.33636 -180 0 0 -5.42,-5.34 z m 0,9.7 a 4.44132,4.37138 0 0 1 -4.44,-4.36 4.44132,4.37138 0 0 1 4.44,-4.37 4.44132,4.37138 0 0 1 4.44,4.37 4.44132,4.37138 0 0 1 -4.44,4.36 z" class="st15"/></g><g id="shape33-231" transform="translate(5.7699,-5.60234)"><title id="title502">Sheet.33</title><ellipse id="ellipse504" cx="4.642" cy="590.555" fill="#fff" stroke="#595959" stroke-linecap="round" stroke-linejoin="round" stroke-width=".75" d="m 9.2834597,590.55499 c 0,2.60701 -2.0781733,4.72041 -4.6417299,4.72041 C 2.0781732,595.2754 0,593.162 0,590.55499 c 0,-2.60701 2.0781732,-4.72041 4.6417298,-4.72041 2.5635566,0 4.6417299,2.1134 4.6417299,4.72041 z" class="st19" rx="4.642" ry="4.72"/></g></g></g><g id="shape20-233" transform="translate(167.12537,-95.372418)"><title id="title507">Sheet.20</title><desc id="desc509">6- The service executes the request</desc><rect id="rect511" width="193.465" height="14.173" x="0" y="581.102" fill="#fff" stroke="none" class="st1"/><text id="text513" x="7.46" y="595.39" fill="#3f3f3f" class="st17" font-family="Calibri"><tspan style="-inkscape-font-specification:Calibri Bold" id="tspan3894" font-size="11.2" font-weight="bold">6. The service executes the request</tspan></text></g><g id="shape29-239" transform="translate(461.92837,-95.089418)"><title id="title522">Sheet.29</title><desc id="desc524">7- The service reports the status back to Alice</desc><rect id="rect526" width="233.858" height="14.173" x="0" y="581.102" fill="#fff" stroke="none" class="st1"/><text id="text528" x="4.94" y="595.39" fill="#3f3f3f" class="st17" font-family="Calibri"><tspan style="-inkscape-font-specification:Calibri Bold" id="tspan3892" font-size="11.2" font-weight="bold">7. The service reports the status back to the user</tspan></text></g><g id="shape30-245" transform="translate(471.46037,-24.211717)"><title id="title537">Sheet.30</title><path id="path539" stroke="#595959" stroke-linecap="round" stroke-linejoin="round" stroke-width="1.5" marker-end="url(#mrkr13-51)" d="m 0,576.87 46.94,18.41 172.41,0" class="st6"/></g><g id="shape44-250" transform="translate(558.21237,-18.301917)"><title id="title542">Sheet.44</title><desc id="desc544">The instance is reachable here</desc><rect id="rect546" width="109.228" height="11.842" x="0" y="583.433" fill="#fff" stroke="#595959" stroke-linecap="round" stroke-linejoin="round" stroke-width=".25" class="st8"/><text id="text548" x="4" y="591.75" fill="#3f3f3f" class="st9" font-family="Calibri"><tspan id="tspan3900" font-size="8">The instance is reachable here</tspan></text></g><g id="shape112-253" transform="matrix(0,1.0255192,1,0,147.28337,220.97358)"><title id="title551">Sheet.112</title><path id="path553" stroke="#595959" stroke-linecap="round" stroke-linejoin="round" stroke-width="1.5" marker-end="url(#mrkr13-51)" d="m 0,580.95 7.7,14.08 66.7,0.21" class="st6"/></g><g id="group12-258" transform="translate(608.48837,-332.28742)"><title id="title556">Sheet.12</title><g id="shape55-259" transform="translate(0,-0.59969)"><title id="title559">Sheet.55</title><desc id="desc561">Alice determines the correct endpoint to launch an instance</desc><rect id="rect563" width="192.125" height="11.842" x="0" y="583.433" fill="#fff" stroke="#595959" stroke-linecap="round" stroke-linejoin="round" stroke-width=".25" class="st8"/><text id="text565" x="4" y="591.75" fill="#3f3f3f" class="st9" font-family="Calibri"><tspan id="tspan3888" font-size="8">Alice determines the correct endpoint to launch an instance</tspan></text></g><g id="shape15-262" transform="matrix(0.70710678,0.70710678,-0.70710678,0.70710678,602.5,159.441)"><title id="title568">Link</title><path id="path570" fill="#595959" stroke="none" d="m 14.37,591.36 a 0.917695,0.886859 0 0 1 -0.917361,0.88654 L 6.12,592.25 A 0.917695,0.886859 0 0 1 5.202639,591.36346 0.917695,0.886859 0 0 1 6.12,590.47693 l 7.33,-0.007 a 0.917695,0.886859 0 0 1 0.917361,0.88654 z m -1.97,1.55 a 1.21916,1.1782 -180 0 0 1.05,0.59 l 3.06,0 a 1.22438,1.18324 -180 0 0 1.23,-1.18 l 0,-1.77 a 1.22399,1.18286 -180 0 0 -1.23,-1.18 l -3.06,0 a 1.21916,1.1782 -180 0 0 -1.05,0.59 l -1.94,0 a 3.05876,2.95598 0 0 1 2.99,-2.37 l 3.06,0 a 3.05781,2.95506 0 0 1 3.06,2.96 l 0,1.77 a 3.05781,2.95506 0 0 1 -3.06,2.96 l -3.06,0 a 3.05825,2.95549 0 0 1 -2.99,-2.37 l 1.94,0 z m -5.23,0 a 1.21916,1.1782 0 0 1 -1.05,0.59 l -3.06,0 a 1.22438,1.18324 0 0 1 -1.23,-1.18 l 0,-1.77 a 1.22399,1.18286 0 0 1 1.23,-1.18 l 3.06,0 a 1.21916,1.1782 0 0 1 1.05,0.59 l 1.94,0 a 3.05943,2.95662 -180 0 0 -2.99,-2.37 l -3.06,0 A 3.05781,2.95506 -180 0 0 0,590.55 l 0,1.77 a 3.05781,2.95506 -180 0 0 3.06,2.96 l 3.06,0 a 3.05825,2.95549 -180 0 0 2.99,-2.37 l -1.94,0 z" class="st15"/></g></g><g id="shape118-264" transform="matrix(-1.0314705,0,0,1,364.41637,-207.89742)"><title id="title573">Sheet.118</title><path id="path575" stroke="#595959" stroke-linecap="round" stroke-linejoin="round" stroke-width="1.5" marker-end="url(#mrkr13-51)" d="m 0,577.16 17.86,17.56 209.89,0.53" class="st6"/></g><g id="shape120-269" transform="translate(183.07037,-218.74642)"><title id="title578">Sheet.120</title><desc id="desc580">Alice’s tenant is authorized to access the service</desc><rect id="rect582" width="165.472" height="11.842" x="0" y="583.433" fill="#fff" stroke="#595959" stroke-linecap="round" stroke-linejoin="round" stroke-width=".25" class="st8"/><text id="text584" x="4" y="591.75" fill="#3f3f3f" class="st9" font-family="Calibri"><tspan id="tspan3850" font-size="8">Alice’s tenant is authorized to access the service</tspan></text></g><g id="shape117-272" transform="translate(164.29137,-202.80942)"><title id="title587">Sheet.117</title><desc id="desc589">The token matches with the request</desc><rect id="rect591" width="131.457" height="11.842" x="0" y="583.433" fill="#fff" stroke="#595959" stroke-linecap="round" stroke-linejoin="round" stroke-width=".25" class="st8"/><text id="text593" x="4" y="591.75" fill="#3f3f3f" class="st9" font-family="Calibri"><tspan id="tspan3852" font-size="8">The token matches with the request</tspan></text></g><g id="group81-275" transform="translate(154.68837,-410.72842)"><title id="title596">Sheet.81</title><g id="shape99-276"><title id="title599">Sheet.99</title><desc id="desc601">A generic catalog is sent</desc><rect id="rect603" width="110.623" height="11.842" x="0" y="583.433" fill="#fff" stroke="#595959" stroke-linecap="round" stroke-linejoin="round" stroke-width=".25" class="st8"/><text id="text605" x="16.16" y="591.75" fill="#3f3f3f" class="st9" font-family="Calibri"><tspan id="tspan3864" font-size="8">A generic catalog is sent</tspan></text></g><g id="group78-279" transform="translate(102.012,-3.01779)"><title id="title608">Sheet.78</title><g id="shape52-280" transform="translate(0.460236,-0.657919)"><title id="title611">Sheet.52</title><rect id="rect613" width="10.205" height="9.638" x="0" y="585.638" fill="#fff" stroke="none" class="st1"/></g><g id="shape108-282"><title id="title616">Document</title><path id="path618" fill="#595959" stroke="none" d="m 2.15,592.31 0,-0.43 6.89,0 0,0.43 -6.89,0 z m 0,-1.7 0,-0.42 6.89,0 0,0.42 -6.89,0 z m 0,-1.69 0,-0.43 6.89,0 0,0.43 -6.89,0 z m 0,-1.7 0,-0.42 6.89,0 0,0.42 -6.89,0 z m 0,-1.69 0,-0.43 4.33,0 0,0.43 -4.33,0 z m 8.19,8.9 0,-9.33 -2.59,0 0,-2.54 -6.89,0 0,11.87 9.48,0 z m -0.11,-9.75 -2.05,-2.01 0,2.01 2.05,0 z m -1.72,-2.97 2.69,2.65 0,10.92 -11.2,0 0,-13.57 8.51,0 z" class="st15"/></g></g></g><g id="group37-284" transform="translate(345.70837,-463.30942)"><title id="title621">Sheet.37</title><g id="shape82-285" transform="translate(0.623622,-8.55608)"><title id="title624">Sheet.82</title><rect id="rect626" width="9.921" height="6.86" x="0" y="588.416" fill="#fff" stroke="none" class="st1"/></g><g id="shape9-287" transform="translate(5.10236,-3.51041)"><title id="title629">Sheet.9</title><path id="path631" fill="#fff" stroke="none" d="m 0,595.28 9.64,-0.18 0.28,-6.34 -9.92,0 0,6.52 z" class="st1"/></g><g id="shape45-289"><title id="title634">Discussion.45</title><path id="path636" fill="#595959" stroke="none" d="m 13.89,584.53 -2.28,0 0,0.81 -0.02,0.2 2.3,0 a 0.993335,1.00923 0 0 1 0.992622,1.0085 L 14.88,590.58 a 0.993335,1.00923 0 0 1 -0.992622,1.0085 L 11.83,591.59 l -2.45,1.69 0.45,-1.69 -3.09,0 A 0.993335,1.00923 0 0 1 5.747378,590.5815 L 5.75,589.36 a 509.473,517.624 -180 0 0 -0.99,-0.69 l 0,1.91 a 1.98455,2.0163 -180 0 0 1.98,2.02 l 1.79,0 -0.64,2.41 0.36,0.27 3.89,-2.68 1.75,0 a 1.98455,2.0163 -180 0 0 1.98,-2.02 l 0,-4.03 a 1.98487,2.01663 -180 0 0 -1.98,-2.02 z m -4.76,-5.24 -7.15,0 A 1.98455,2.0163 -180 0 0 0,581.31 l 0,4.03 a 1.98455,2.0163 -180 0 0 1.98,2.02 l 1.76,0 3.88,2.68 0.36,-0.27 -0.64,-2.41 1.79,0 a 1.98455,2.0163 -180 0 0 1.98,-2.02 l 0,-4.03 a 1.98529,2.01706 -180 0 0 -1.98,-2.02 z m 0.99,6.05 a 0.993335,1.00923 0 0 1 -0.992622,1.0085 L 6.05,586.35 l 0.45,1.69 -2.46,-1.69 -2.06,0 A 0.993654,1.00955 0 0 1 0.987378,585.3415 L 0.99,581.31 a 0.993335,1.00923 0 0 1 0.992622,-1.0085 L 9.13,580.3 a 0.993335,1.00923 0 0 1 0.992622,1.0085 L 10.12,585.34 z" class="st15"/></g></g><g id="group27-291" transform="translate(688.70037,-313.91642)"><title id="title639">Sheet.27</title><g id="shape56-292"><title id="title642">Sheet.56</title><desc id="desc644">The token is provided along the request</desc><rect id="rect646" width="144.232" height="11.842" x="0" y="583.433" fill="#fff" stroke="#595959" stroke-linecap="round" stroke-linejoin="round" stroke-width=".25" class="st8"/><text id="text648" x="4" y="591.75" fill="#3f3f3f" class="st9" font-family="Calibri"><tspan id="tspan3890" font-size="8">The token is provided along the request</tspan></text></g><g id="group48-295" transform="translate(140.017,-4.38587)"><title id="title651">Sheet.48</title><g id="shape83-296" transform="translate(0.663306,-0.712452)"><title id="title654">Sheet.83</title><rect id="rect656" width="8.872" height="6.955" x="0" y="588.321" fill="#fff" stroke="none" class="st1"/></g><g id="shape84-298"><title id="title659">Lock</title><path id="path661" fill="#595959" stroke="none" d="m 5.84,590.12 c 0,0.38 -0.21,0.71 -0.52,0.86 l 0.23,1.98 -1.15,0 0.23,-1.98 c -0.31,-0.15 -0.52,-0.48 -0.52,-0.86 0,-0.53 0.39,-0.95 0.86,-0.95 0.48,0 0.87,0.42 0.87,0.95 z m 3.34,3.89 0,-5.9 c 0,-0.23 -0.17,-0.42 -0.38,-0.42 l -7.65,0 c -0.21,0 -0.38,0.19 -0.38,0.42 l 0,5.9 c 0,0.23 0.17,0.42 0.38,0.42 l 7.65,0 c 0.21,0 0.38,-0.19 0.38,-0.42 z m -3.06,-8.7 c -0.03,-0.54 -0.54,-0.99 -1.15,-0.99 -0.61,0 -1.11,0.47 -1.14,1.07 l 0,0 0,1.46 2.29,0 0,-1.54 z M 2.3,585.26 c 0,0 0,0.76 0,1.59 l 0.76,0 c 0,-0.83 0,-1.59 0,-1.59 l 0.01,0.09 c 0.04,-1.05 0.88,-1.87 1.9,-1.87 1.03,0 1.87,0.81 1.92,1.78 0,0 0,0.76 0,1.59 l 0.76,0 c 0,-0.84 0,-1.59 0,-1.59 -0.07,-1.45 -1.24,-2.62 -2.68,-2.62 -1.43,0 -2.6,1.17 -2.67,2.67 l 0,-0.05 z m 6.5,1.59 c 0.64,0 1.15,0.57 1.15,1.26 l 0,5.9 c 0,0.7 -0.51,1.27 -1.15,1.27 l -7.65,0 C 0.51,595.28 0,594.71 0,594.01 l 0,-5.9 c 0,-0.69 0.51,-1.26 1.15,-1.26 l 0.38,0 0,-1.59 0.01,0 c 0.09,-1.93 1.59,-3.46 3.43,-3.46 1.85,0 3.35,1.53 3.44,3.46 l 0.01,0 0,1.59 0.38,0 z" class="st15"/></g></g></g><g id="group40-300" transform="translate(510.02337,-37.892418)"><title id="title664">Sheet.40</title><g id="shape34-301"><title id="title667">Sheet.34</title><desc id="desc669">The instance has been created</desc><rect id="rect671" width="102.142" height="11.842" x="0" y="583.433" fill="#fff" stroke="#595959" stroke-linecap="round" stroke-linejoin="round" stroke-width=".25" class="st8"/><text id="text673" x="1.603" y="592.229" fill="#3f3f3f" class="st9" font-family="Calibri"><tspan id="tspan3898" font-size="8">The instance has been created</tspan></text></g><g id="group39-304" transform="translate(93.6378,-4.33071)"><title id="title676">Sheet.39</title><g id="shape85-305" transform="translate(1.55906,-1.70079)"><title id="title679">Sheet.85</title><path id="path681" fill="#fff" stroke="none" d="m 6.24,595.28 1.13,-2.84 3.12,1.13 -1.14,-3.11 2.84,-1.14 -2.55,-1.41 1.13,-2.84 -3.4,0.85 -1.13,-2.83 -1.14,2.83 -3.12,-0.85 1.14,2.84 -3.12,1.13 3.42,1.06 -2,3.76 3.68,-1.42 1.14,2.84 z" class="st1"/></g><g id="shape114-307"><title id="title684">New</title><path id="path686" fill="#595959" stroke="none" d="m 15.59,587.48 -3.99,-1.57 1.71,-3.94 -3.94,1.71 -1.57,-3.99 -1.58,3.99 -3.94,-1.71 1.71,3.94 -3.99,1.57 3.99,1.57 -1.71,3.94 3.94,-1.71 1.58,4 1.57,-4 3.94,1.71 -1.71,-3.93 3.99,-1.58 z m -6.76,2.51 c 0,0 -0.71,1.8 -1.03,2.63 -0.33,-0.83 -1.04,-2.63 -1.04,-2.63 0,0 -1.78,0.77 -2.6,1.12 0.36,-0.81 1.13,-2.59 1.13,-2.59 0,0 -1.81,-0.71 -2.63,-1.04 0.82,-0.33 2.63,-1.04 2.63,-1.04 0,0 -0.77,-1.78 -1.13,-2.59 0.82,0.35 2.6,1.12 2.6,1.12 0,0 0.71,-1.8 1.04,-2.63 0.32,0.83 1.03,2.63 1.03,2.63 0,0 1.78,-0.77 2.6,-1.12 -0.36,0.81 -1.13,2.59 -1.13,2.59 0,0 1.81,0.71 2.63,1.04 -0.82,0.33 -2.63,1.04 -2.63,1.04 0,0 0.77,1.78 1.13,2.59 -0.82,-0.35 -2.6,-1.12 -2.6,-1.12 z" class="st15"/></g></g></g><g id="shape87-309" transform="matrix(-1.0330433,0,0,1,382.55837,-192.00042)"><title id="title689">Sheet.87</title><path id="path691" stroke="#595959" stroke-linecap="round" stroke-linejoin="round" stroke-width="1.5" marker-end="url(#mrkr13-51)" d="m 0,561.26 32.31,34.02 213.58,-0.56" class="st6"/></g><g id="shape88-314" transform="translate(146.22037,-186.36142)"><title id="title694">Sheet.88</title><desc id="desc696">That token belongs to the user Alice</desc><rect id="rect698" width="131.457" height="11.842" x="0" y="583.433" fill="#fff" stroke="#595959" stroke-linecap="round" stroke-linejoin="round" stroke-width=".25" class="st8"/><text id="text700" x="4" y="591.75" fill="#3f3f3f" class="st9" font-family="Calibri"><tspan id="tspan3854" font-size="8">That token belongs to the user Alice</tspan></text></g><g id="shape100-317" transform="matrix(0,1,-1,0,680.19637,417.33658)"><title id="title703">Sheet.100</title><path id="path705" stroke="#595959" stroke-linecap="round" stroke-linejoin="round" stroke-width="1.5" marker-end="url(#mrkr13-51)" d="m 0,595.28 49.18,0" class="st6"/></g><g id="shape96-322" transform="translate(58.558584,-96.506418)"><title id="title708">Status bar item.96</title><desc id="desc710">Service</desc><rect id="rect712" width="58.5" height="17.008" x="0" y="578.268" fill="url(#linearGradient4932)" class="st3"/><rect id="rect714" width="58.5" height="17.008" x="0" y="578.268" stroke="none" class="st4" visibility="hidden"/><text id="text716" x="12.82" y="589.17" fill="#fff" class="st5" font-family="Calibri">Service</text></g><g id="shape98-327" transform="translate(14.409006,-144.19142)"><title id="title719">Sheet.98</title><desc id="desc721">The service validates the request against its own policy</desc><rect id="rect723" width="186.378" height="11.842" x="0" y="583.433" fill="#fff" stroke="#595959" stroke-linecap="round" stroke-linejoin="round" stroke-width=".25" class="st8"/><text id="text725" x="4" y="591.75" fill="#3f3f3f" class="st9" font-family="Calibri"><tspan id="tspan3856" font-size="8">The service validates the request against its own policy</tspan></text></g><g id="shape101-330" transform="matrix(0.8660254,-0.5,-0.5,-0.8660254,885.66137,752.17758)"><title id="title728">Sheet.101</title><path id="path730" stroke="#595959" stroke-linecap="round" stroke-linejoin="round" stroke-width="1.5" marker-end="url(#mrkr13-51)" d="m 0,581.2 9.82,14.08 87.72,-0.87" class="st6"/></g><g id="group110-335" transform="translate(549.80237,-381.67242)"><title id="title733">Sheet.110</title><g id="shape111-336"><title id="title736">Sheet.111</title><desc id="desc738">Keystone provides a list of services for the tenant</desc><rect id="rect740" width="97.575" height="17.241" x="0" y="578.034" fill="#fff" stroke="#595959" stroke-linecap="round" stroke-linejoin="round" stroke-width=".25" class="st8"/><text id="text742" x="4" y="584.26" fill="#3f3f3f" class="st9" font-family="Calibri"><tspan id="tspan3884" font-size="8">Keystone sends a list of</tspan></text><text id="text742-3" x="4.056" y="593.003" fill="#3f3f3f" class="st9" font-family="Calibri" font-size="12"><tspan id="tspan3884-9" font-size="8">available services</tspan></text></g><g id="group128-340" transform="translate(93.9233,-8.25382)"><title id="title747">Sheet.128</title><g id="shape124-341" transform="translate(0.366902,-0.176748)"><title id="title750">Sheet.124</title><rect id="rect752" width="5.504" height="10.958" x="0" y="584.317" fill="#fff" stroke="none" class="st1"/></g><g id="shape127-343"><title id="title755">Document</title><path id="path757" fill="#595959" stroke="none" d="m 1.16,592.18 0,-0.44 3.73,0 0,0.44 -3.73,0 z m 0,-1.76 0,-0.45 3.73,0 0,0.45 -3.73,0 z m 0,-1.77 0,-0.44 3.73,0 0,0.44 -3.73,0 z m 0,-1.77 0,-0.44 3.73,0 0,0.44 -3.73,0 z m 0,-1.77 0,-0.44 2.34,0 0,0.44 -2.34,0 z m 4.43,9.28 0,-9.72 -1.4,0 0,-2.65 -3.72,0 0,12.37 5.12,0 z m -0.06,-10.16 -1.1,-2.1 0,2.1 1.1,0 z m -0.93,-3.09 1.46,2.76 0,11.38 -6.06,0 0,-14.14 4.6,0 z" class="st15"/></g></g></g><g id="group90-345" transform="translate(580.56637,-361.54642)"><title id="title760">Sheet.90</title><g id="shape92-346"><title id="title763">Sheet.92</title><desc id="desc765">The tenant token is provided</desc><rect id="rect767" width="108.251" height="11.842" x="0" y="583.433" fill="#fff" stroke="#595959" stroke-linecap="round" stroke-linejoin="round" stroke-width=".25" class="st8"/><text id="text769" x="4" y="591.75" fill="#3f3f3f" class="st9" font-family="Calibri"><tspan id="tspan3886" font-size="8">The tenant token is provided</tspan></text></g><g id="group122-349" transform="translate(100.913,-6.97688)"><title id="title772">Sheet.122</title><g id="shape121-350" transform="translate(0.660345,-0.634197)"><title id="title775">Sheet.121</title><rect id="rect777" width="8.832" height="6.191" x="0" y="589.085" fill="#fff" stroke="none" class="st1"/></g><g id="shape115-352"><title id="title780">Lock</title><path id="path782" fill="#595959" stroke="none" d="m 5.81,590.68 c 0,0.35 -0.21,0.64 -0.51,0.77 l 0.22,1.76 -1.14,0 0.22,-1.76 c -0.3,-0.13 -0.5,-0.42 -0.5,-0.77 0,-0.46 0.38,-0.84 0.85,-0.84 0.48,0 0.86,0.38 0.86,0.84 z m 3.33,3.47 0,-5.25 c 0,-0.21 -0.17,-0.37 -0.38,-0.37 l -7.62,0 c -0.21,0 -0.38,0.16 -0.38,0.37 l 0,5.25 c 0,0.21 0.17,0.38 0.38,0.38 l 7.62,0 c 0.21,0 0.38,-0.17 0.38,-0.38 z M 6.1,586.4 c -0.04,-0.48 -0.55,-0.87 -1.15,-0.87 -0.61,0 -1.11,0.41 -1.13,0.95 l -0.01,0 0,1.3 2.29,0 0,-1.38 z m -3.81,-0.04 c 0,0 0,0.67 0,1.42 l 0.76,0 c 0,-0.74 0,-1.42 0,-1.42 l 0,0.08 c 0.05,-0.93 0.88,-1.66 1.9,-1.66 1.02,0 1.86,0.71 1.91,1.58 0,0 0,0.68 0,1.42 l 0.76,0 c 0,-0.75 0,-1.42 0,-1.42 -0.07,-1.29 -1.24,-2.33 -2.67,-2.33 -1.42,0 -2.59,1.04 -2.66,2.37 l 0,-0.04 z m 6.47,1.42 c 0.63,0 1.15,0.5 1.15,1.12 l 0,5.25 c 0,0.62 -0.52,1.13 -1.15,1.13 l -7.62,0 C 0.51,595.28 0,594.77 0,594.15 l 0,-5.25 c 0,-0.62 0.51,-1.12 1.14,-1.12 l 0.38,0 0,-1.42 0.01,0 c 0.09,-1.71 1.58,-3.08 3.42,-3.08 1.84,0 3.34,1.37 3.42,3.08 l 0.01,0 0,1.42 0.38,0 z" class="st15"/></g></g></g><g id="shape123-354" transform="translate(62.810584,-12.643818)"><title id="title785">Network.123</title><path id="path787" fill="#595959" stroke="none" d="m 11.12,546.04 0,20.06 29.64,0 0,-20.06 -29.64,0 z m -1.86,21.88 0,-23.7 33.35,0 0,23.7 -33.35,0 z m 38.91,21.89 0,-3.65 -12.97,0 0,3.65 12.97,0 z m -16.68,1.82 0,-7.3 -11.11,0 0,7.3 11.11,0 z m -3.7,-16.41 -3.71,0 0,5.47 3.71,0 0,-5.47 z m -22.23,-3.65 40.76,0 0,-31 -40.76,0 0,31 z m 11.11,18.24 0,-3.65 -12.96,0 0,3.65 12.96,0 z m 33.04,-7.3 c 1.2,0 2.16,0.95 2.16,2.13 l 0,6.68 c 0,1.18 -0.96,2.13 -2.16,2.13 l -14.57,0 c -0.16,1.03 -1.02,1.83 -2.1,1.83 l -14.2,0 c -1.09,0 -1.95,-0.8 -2.1,-1.83 l -14.58,0 C 0.97,593.45 0,592.5 0,591.32 l 0,-6.68 c 0,-1.18 0.97,-2.13 2.16,-2.13 l 14.58,0 c 0.15,-1.02 1.01,-1.82 2.1,-1.82 l 1.54,0 0,-5.47 -16.36,0 c -1.2,0 -2.17,-0.95 -2.17,-2.13 l 0,-34.04 c 0,-1.17 0.97,-2.13 2.17,-2.13 l 43.84,0 c 1.19,0 2.16,0.96 2.16,2.13 l 0,34.04 c 0,1.18 -0.97,2.13 -2.16,2.13 l -16.37,0 0,5.47 1.55,0 c 1.08,0 1.94,0.79 2.1,1.82 l 14.57,0 z" class="st15"/></g><g id="shape4-356" transform="matrix(1.0419773,0,0,1,112.83237,-42.648318)"><title id="title790">Sheet.4</title><path id="path792" stroke="#595959" stroke-linecap="round" stroke-linejoin="round" stroke-width="1.5" marker-end="url(#mrkr13-51)" d="m 0,595.28 261.92,0" class="st6"/></g><g id="shape93-361" transform="translate(185.55037,-35.898018)"><title id="title795">Sheet.93</title><desc id="desc797">The service creates a new instance</desc><rect id="rect799" width="115.512" height="11.842" x="0" y="583.433" fill="#fff" stroke="#595959" stroke-linecap="round" stroke-linejoin="round" stroke-width=".25" class="st8"/><text id="text801" x="1.603" y="592.229" fill="#3f3f3f" class="st9" font-family="Calibri"><tspan id="tspan3896" font-size="8">The service creates a new instance</tspan></text></g><g id="shape129-364" transform="matrix(-0.99599165,0,0,-1,390.49392,845.29658)"><title id="title804">Sheet.129</title><path id="path806" stroke="#595959" stroke-linecap="round" stroke-linejoin="round" stroke-width="1.5" d="m 0,595.28 238.46,0" class="st21"/></g><g id="shape130-367" transform="translate(161.38437,-337.45142)"><title id="title809">Sheet.130</title><desc id="desc811">A list of tenants is sent</desc><rect id="rect813" width="110.623" height="11.842" x="0" y="583.433" fill="#fff" stroke="#595959" stroke-linecap="round" stroke-linejoin="round" stroke-width=".25" class="st8"/><text id="text815" x="18.57" y="591.75" fill="#3f3f3f" class="st9" font-family="Calibri"><tspan id="tspan3858" font-size="8">A list of tenants is sent</tspan></text></g><g id="group131-370" transform="translate(263.50337,-340.00942)"><title id="title818">Sheet.131</title><g id="shape132-371" transform="translate(0.460236,-0.657919)"><title id="title821">Sheet.132</title><rect id="rect823" width="10.205" height="9.638" x="0" y="585.638" fill="#fff" stroke="none" class="st1"/></g><g id="shape133-373"><title id="title826">Document</title><path id="path828" fill="#595959" stroke="none" d="m 2.15,592.31 0,-0.43 6.89,0 0,0.43 -6.89,0 z m 0,-1.7 0,-0.42 6.89,0 0,0.42 -6.89,0 z m 0,-1.69 0,-0.43 6.89,0 0,0.43 -6.89,0 z m 0,-1.7 0,-0.42 6.89,0 0,0.42 -6.89,0 z m 0,-1.69 0,-0.43 4.33,0 0,0.43 -4.33,0 z m 8.19,8.9 0,-9.33 -2.59,0 0,-2.54 -6.89,0 0,11.87 9.48,0 z m -0.11,-9.75 -2.05,-2.01 0,2.01 2.05,0 z m -1.72,-2.97 2.69,2.65 0,10.92 -11.2,0 0,-13.57 8.51,0 z" class="st15"/></g></g><g id="shape134-375" transform="matrix(-1.0536096,-0.61180903,0.58534821,-1.1012383,-195.60549,905.36956)"><title id="title831">Sheet.134</title><path id="path833" stroke="#595959" stroke-linecap="round" stroke-linejoin="round" stroke-width="1.5" marker-end="url(#mrkr13-51)" d="m 0,595.28 46.31,0" class="st6"/></g><g id="shape135-380" transform="translate(470.00637,-377.13642)"><title id="title836">Sheet.135</title><path id="path838" stroke="#595959" stroke-linecap="round" stroke-linejoin="round" stroke-width="1.5" marker-start="url(#mrkr13-385)" d="m 9.1,587.92 0.27,-0.23 43.17,-34.93 180.33,0" class="st22"/></g><g id="shape136-386" transform="translate(612.16537,-417.71542)"><title id="title841">Sheet.136</title><desc id="desc843">Credentials are sent with the desired tenant</desc><rect id="rect845" width="73.701" height="21.783" x="0" y="573.493" fill="#fff" stroke="#595959" stroke-linecap="round" stroke-linejoin="round" stroke-width=".25" class="st8"/><text id="text847" x="4" y="581.98" fill="#3f3f3f" class="st9" font-family="Calibri"><tspan id="tspan3882" font-size="8">Credentials are sent</tspan></text><text id="text847-0" x="4.332" y="589.584" fill="#3f3f3f" class="st9" font-family="Calibri" font-size="12"><tspan id="tspan3882-9" font-size="8">with desired tenant</tspan></text></g><g id="group137-391" transform="translate(684.16537,-423.00342)"><title id="title854">Sheet.137</title><g id="shape138-392" transform="translate(0.623622,-8.55608)"><title id="title857">Sheet.138</title><rect id="rect859" width="9.921" height="6.86" x="0" y="588.416" fill="#fff" stroke="none" class="st1"/></g><g id="shape139-394" transform="translate(5.10236,-3.51041)"><title id="title862">Sheet.139</title><path id="path864" fill="#fff" stroke="none" d="m 0,595.28 9.64,-0.18 0.28,-6.34 -9.92,0 0,6.52 z" class="st1"/></g><g id="shape140-396"><title id="title867">Discussion.45</title><path id="path869" fill="#595959" stroke="none" d="m 13.89,584.53 -2.28,0 0,0.81 -0.02,0.2 2.3,0 a 0.993335,1.00923 0 0 1 0.992622,1.0085 L 14.88,590.58 a 0.993335,1.00923 0 0 1 -0.992622,1.0085 L 11.83,591.59 l -2.45,1.69 0.45,-1.69 -3.09,0 A 0.993335,1.00923 0 0 1 5.747378,590.5815 L 5.75,589.36 a 509.473,517.624 -180 0 0 -0.99,-0.69 l 0,1.91 a 1.98455,2.0163 -180 0 0 1.98,2.02 l 1.79,0 -0.64,2.41 0.36,0.27 3.89,-2.68 1.75,0 a 1.98455,2.0163 -180 0 0 1.98,-2.02 l 0,-4.03 a 1.98487,2.01663 -180 0 0 -1.98,-2.02 z m -4.76,-5.24 -7.15,0 A 1.98455,2.0163 -180 0 0 0,581.31 l 0,4.03 a 1.98455,2.0163 -180 0 0 1.98,2.02 l 1.76,0 3.88,2.68 0.36,-0.27 -0.64,-2.41 1.79,0 a 1.98455,2.0163 -180 0 0 1.98,-2.02 l 0,-4.03 a 1.98529,2.01706 -180 0 0 -1.98,-2.02 z m 0.99,6.05 a 0.993335,1.00923 0 0 1 -0.992622,1.0085 L 6.05,586.35 l 0.45,1.69 -2.46,-1.69 -2.06,0 A 0.993654,1.00955 0 0 1 0.987378,585.3415 L 0.99,581.31 a 0.993335,1.00923 0 0 1 0.992622,-1.0085 L 9.13,580.3 a 0.993335,1.00923 0 0 1 0.992622,1.0085 L 10.12,585.34 z" class="st15"/></g></g><path id="path5411" fill="#595959" fill-opacity="1" stroke="#595959" stroke-opacity="1" d="m 36.228812,184.34909 -6.038135,3.48612 -6.038135,3.48612 0,-6.97224 0,-6.97224 6.038135,3.48612 z" transform="matrix(-0.85366268,-0.67091439,0.45320549,-0.57665272,42.330013,344.81259)"/><path id="path5411-6" fill="#595959" fill-opacity="1" stroke="#595959" stroke-opacity="1" d="m 36.228812,184.34909 -6.038135,3.48612 -6.038135,3.48612 0,-6.97224 0,-6.97224 6.038135,3.48612 z" transform="matrix(0.8992387,-0.60847009,0.4110241,0.60743951,576.40835,91.119725)"/><path id="path5411-69" fill="#595959" fill-opacity="1" stroke="#595959" stroke-opacity="1" d="m 36.228812,184.34909 -6.038135,3.48612 -6.038135,3.48612 0,-6.97224 0,-6.97224 6.038135,3.48612 z" transform="matrix(-0.88832067,0.62430159,-0.42171834,-0.60006434,581.23069,304.45832)"/><path id="path5411-1" fill="#595959" fill-opacity="1" stroke="#595959" stroke-opacity="1" d="m 36.228812,184.34909 -6.038135,3.48612 -6.038135,3.48612 0,-6.97224 0,-6.97224 6.038135,3.48612 z" transform="matrix(1.085756,0,0,-0.73343273,347.33519,291.98557)"/><path id="path5411-0" fill="#595959" fill-opacity="1" stroke="#595959" stroke-opacity="1" d="m 36.228812,184.34909 -6.038135,3.48612 -6.038135,3.48612 0,-6.97224 0,-6.97224 6.038135,3.48612 z" transform="matrix(-0.0047723,1.0857455,-0.73342565,-0.00322371,877.17684,272.73931)"/><path id="path5411-5" fill="#595959" fill-opacity="1" stroke="#595959" stroke-opacity="1" d="m 36.228812,184.34909 -6.038135,3.48612 -6.038135,3.48612 0,-6.97224 0,-6.97224 6.038135,3.48612 z" transform="matrix(1.085756,0,0,0.73343273,347.13662,-3.8535012)"/><path id="path5411-0-3" fill="#595959" fill-opacity="1" stroke="#595959" stroke-opacity="1" d="m 36.228812,184.34909 -6.038135,3.48612 -6.038135,3.48612 0,-6.97224 0,-6.97224 6.038135,3.48612 z" transform="matrix(-0.0047723,1.0857455,-0.73342565,-0.00322371,863.39126,272.58905)"/><path id="path5411-69-0" fill="#595959" fill-opacity="1" stroke="#595959" stroke-opacity="1" d="m 36.228812,184.34909 -6.038135,3.48612 -6.038135,3.48612 0,-6.97224 0,-6.97224 6.038135,3.48612 z" transform="matrix(-1.085756,0,0,-0.73343273,155.93187,537.76718)"/><path id="path5411-69-5" fill="#595959" fill-opacity="1" stroke="#595959" stroke-opacity="1" d="m 36.228812,184.34909 -6.038135,3.48612 -6.038135,3.48612 0,-6.97224 0,-6.97224 6.038135,3.48612 z" transform="matrix(-1.085756,0,0,-0.73343273,509.72547,512.83863)"/><path id="path5411-69-5-7" fill="#595959" fill-opacity="1" stroke="#595959" stroke-opacity="1" d="m 36.228812,184.34909 -6.038135,3.48612 -6.038135,3.48612 0,-6.97224 0,-6.97224 6.038135,3.48612 z" transform="matrix(-1.085756,0,0,-0.73343273,510.12571,536.80839)"/><path id="path5411-09" fill="#595959" fill-opacity="1" stroke="#595959" stroke-opacity="1" d="m 36.228812,184.34909 -6.038135,3.48612 -6.038135,3.48612 0,-6.97224 0,-6.97224 6.038135,3.48612 z" transform="matrix(-0.85366269,-0.67091439,0.45320549,-0.57665272,52.691626,325.28465)"/><path id="path5411-69-0-6" fill="#595959" fill-opacity="1" stroke="#595959" stroke-opacity="1" d="m 36.228812,184.34909 -6.038135,3.48612 -6.038135,3.48612 0,-6.97224 0,-6.97224 6.038135,3.48612 z" transform="matrix(-1.085756,0,0,-0.73343273,154.89391,504.20953)"/><path id="path5411-69-0-6-7" fill="#595959" fill-opacity="1" stroke="#595959" stroke-opacity="1" d="m 36.228812,184.34909 -6.038135,3.48612 -6.038135,3.48612 0,-6.97224 0,-6.97224 6.038135,3.48612 z" transform="matrix(-1.085756,0,0,-0.73343273,154.89391,521.94712)"/><path id="path5411-6-5" fill="#595959" fill-opacity="1" stroke="#595959" stroke-opacity="1" d="m 36.228812,184.34909 -6.038135,3.48612 -6.038135,3.48612 0,-6.97224 0,-6.97224 6.038135,3.48612 z" transform="matrix(0.89923867,-0.60847009,0.4110241,0.60743951,582.47763,103.0882)"/><path id="path5411-1-1" fill="#595959" fill-opacity="1" stroke="#595959" stroke-opacity="1" d="m 36.228812,184.34909 -6.038135,3.48612 -6.038135,3.48612 0,-6.97224 0,-6.97224 6.038135,3.48612 z" transform="matrix(1.085756,0,0,-0.73343273,360.67214,687.81786)"/><path id="path5411-1-1-1" fill="#595959" fill-opacity="1" stroke="#595959" stroke-opacity="1" d="m 36.228812,184.34909 -6.038135,3.48612 -6.038135,3.48612 0,-6.97224 0,-6.97224 6.038135,3.48612 z" transform="matrix(1.085756,0,0,-0.73343273,665.08805,687.33846)"/><path id="path5411-1-1-7" fill="#595959" fill-opacity="1" stroke="#595959" stroke-opacity="1" d="m 36.228812,184.34909 -6.038135,3.48612 -6.038135,3.48612 0,-6.97224 0,-6.97224 6.038135,3.48612 z" transform="matrix(1.085756,0,0,-0.73343273,665.08805,705.55547)"/><path id="path5411-0-3-8" fill="#595959" fill-opacity="1" stroke="#595959" stroke-opacity="1" d="m 36.228812,184.34909 -6.038135,3.48612 -6.038135,3.48612 0,-6.97224 0,-6.97224 6.038135,3.48612 z" transform="matrix(-0.0047723,1.0857455,-0.73342565,-0.00322371,219.56359,438.45977)"/></svg>