<svg xmlns="http://www.w3.org/2000/svg" xmlns:svg="http://www.w3.org/2000/svg" xmlns:xlink="http://www.w3.org/1999/xlink" id="svg2" width="530" height="400" version="1.1"><defs id="defs4"><linearGradient id="linearGradient3843"><stop id="stop3845" offset="0" stop-color="#f8f9d3" stop-opacity="1"/><stop id="stop3847" offset="1" stop-color="#fefef6" stop-opacity="1"/></linearGradient><linearGradient id="linearGradient3787"><stop id="stop3789" offset="0" stop-color="#f9d5d3" stop-opacity="1"/><stop id="stop3791" offset="1" stop-color="#fef7f6" stop-opacity="1"/></linearGradient><linearGradient id="linearGradient3773"><stop id="stop3775" offset="0" stop-color="#f5b5b1" stop-opacity="1"/><stop id="stop3777" offset="1" stop-color="#f9d5d3" stop-opacity="1"/></linearGradient><linearGradient id="linearGradient3757"><stop id="stop3759" offset="0" stop-color="#fafafa" stop-opacity="1"/><stop id="stop3761" offset="1" stop-color="#e6e8e4" stop-opacity="1"/></linearGradient><linearGradient id="linearGradient3763" x1="140" x2="140" y1="722.362" y2="952.362" gradientTransform="matrix(0.99893094,0,0,1.179627,-39.850331,-109.67024)" gradientUnits="userSpaceOnUse" xlink:href="#linearGradient3757"/><linearGradient id="linearGradient3793" x1="90" x2="90" y1="140" y2="120" gradientTransform="translate(-50,652.3622)" gradientUnits="userSpaceOnUse" xlink:href="#linearGradient3787"/><linearGradient id="linearGradient3801" x1="90" x2="90" y1="140" y2="120" gradientTransform="translate(-50,672.3622)" gradientUnits="userSpaceOnUse" xlink:href="#linearGradient3787"/><linearGradient id="linearGradient3817" x1="90" x2="90" y1="140" y2="120" gradientTransform="translate(-50,692.36228)" gradientUnits="userSpaceOnUse" xlink:href="#linearGradient3787"/><linearGradient id="linearGradient3825" x1="90" x2="90" y1="140" y2="120" gradientTransform="translate(-50,732.36232)" gradientUnits="userSpaceOnUse" xlink:href="#linearGradient3787"/><linearGradient id="linearGradient3833" x1="90" x2="90" y1="140" y2="120" gradientTransform="translate(-50,752.36234)" gradientUnits="userSpaceOnUse" xlink:href="#linearGradient3787"/><linearGradient id="linearGradient3841" x1="90" x2="90" y1="140" y2="120" gradientTransform="translate(-50,832.36248)" gradientUnits="userSpaceOnUse" xlink:href="#linearGradient3843"/><linearGradient id="linearGradient3855" x1="90" x2="90" y1="140" y2="120" gradientTransform="translate(-50,854.237)" gradientUnits="userSpaceOnUse" xlink:href="#linearGradient3843"/><radialGradient id="radialGradient15032" cx="97.482" cy="265.862" r="3" fx="97.482" fy="265.862" gradientTransform="matrix(3.4620994,1.6838767,-1.3244276,2.7230693,24.214335,-863.95328)" gradientUnits="userSpaceOnUse" xlink:href="#linearGradient2202-2-1-25"/><linearGradient id="linearGradient2202-2-1-25"><stop id="stop2204-6-0-41" offset="0" stop-color="#797979" stop-opacity="1"/><stop id="stop2206-6-0-8" offset="1" stop-color="#CBCBCB" stop-opacity="1"/></linearGradient><linearGradient id="linearGradient2202-1-5-4-2"><stop id="stop2204-5-8-4-5" offset="0" stop-color="#797979" stop-opacity="1"/><stop id="stop2206-5-5-2-1" offset="1" stop-color="#CBCBCB" stop-opacity="1"/></linearGradient><linearGradient id="linearGradient4903"><stop id="stop4905" offset="0" stop-color="#797979" stop-opacity="1"/><stop id="stop4907" offset="1" stop-color="#CBCBCB" stop-opacity="1"/></linearGradient><linearGradient id="linearGradient2202-1-8-3-0"><stop id="stop2204-5-1-4-2" offset="0" stop-color="#797979" stop-opacity="1"/><stop id="stop2206-5-2-7-6" offset="1" stop-color="#CBCBCB" stop-opacity="1"/></linearGradient><linearGradient id="linearGradient4914"><stop id="stop4916" offset="0" stop-color="#797979" stop-opacity="1"/><stop id="stop4918" offset="1" stop-color="#CBCBCB" stop-opacity="1"/></linearGradient><linearGradient id="linearGradient2202-1-9-8-0"><stop id="stop2204-5-4-0-0" offset="0" stop-color="#797979" stop-opacity="1"/><stop id="stop2206-5-8-1-3" offset="1" stop-color="#CBCBCB" stop-opacity="1"/></linearGradient><linearGradient id="linearGradient4925"><stop id="stop4927" offset="0" stop-color="#797979" stop-opacity="1"/><stop id="stop4929" offset="1" stop-color="#CBCBCB" stop-opacity="1"/></linearGradient><linearGradient id="linearGradient2202-1-93-3-2"><stop id="stop2204-5-6-1-0" offset="0" stop-color="#797979" stop-opacity="1"/><stop id="stop2206-5-21-0-1" offset="1" stop-color="#CBCBCB" stop-opacity="1"/></linearGradient><linearGradient id="linearGradient4936"><stop id="stop4938" offset="0" stop-color="#797979" stop-opacity="1"/><stop id="stop4940" offset="1" stop-color="#CBCBCB" stop-opacity="1"/></linearGradient><linearGradient id="linearGradient4943"><stop id="stop4945" offset="0" stop-color="#797979" stop-opacity="1"/><stop id="stop4947" offset="1" stop-color="#CBCBCB" stop-opacity="1"/></linearGradient><linearGradient id="linearGradient4749" x1="90" x2="90" y1="140" y2="120" gradientTransform="translate(-50,772.36242)" gradientUnits="userSpaceOnUse" xlink:href="#linearGradient3787"/><radialGradient id="radialGradient4880" cx="97.482" cy="265.862" r="3" fx="97.482" fy="265.862" gradientTransform="matrix(3.4620994,1.6838767,-1.3244276,2.7230693,24.214335,-863.95328)" gradientUnits="userSpaceOnUse" xlink:href="#linearGradient2202-2-1-25"/><linearGradient id="linearGradient4937" x1="140" x2="140" y1="722.362" y2="952.362" gradientTransform="translate(280,20.000034)" gradientUnits="userSpaceOnUse" xlink:href="#linearGradient3757"/><linearGradient id="linearGradient4939" x1="90" x2="90" y1="140" y2="120" gradientTransform="translate(270,652.36222)" gradientUnits="userSpaceOnUse" xlink:href="#linearGradient3787"/><linearGradient id="linearGradient4950" x1="90" x2="90" y1="140" y2="120" gradientTransform="translate(270,708.3625)" gradientUnits="userSpaceOnUse" xlink:href="#linearGradient3843"/><linearGradient id="linearGradient4958" x1="140" x2="140" y1="722.362" y2="952.362" gradientTransform="translate(284,24.000034)" gradientUnits="userSpaceOnUse" xlink:href="#linearGradient3757"/><linearGradient id="linearGradient4962" x1="140" x2="140" y1="722.362" y2="952.362" gradientTransform="translate(288,28.000034)" gradientUnits="userSpaceOnUse" xlink:href="#linearGradient3757"/><linearGradient id="linearGradient4974" x1="90" x2="90" y1="140" y2="120" gradientTransform="translate(280,712.36258)" gradientUnits="userSpaceOnUse" xlink:href="#linearGradient3843"/><linearGradient id="linearGradient4989" x1="90" x2="90" y1="140" y2="120" gradientTransform="translate(280,712.36258)" gradientUnits="userSpaceOnUse" xlink:href="#linearGradient3843"/><linearGradient id="linearGradient4999" x1="90" x2="90" y1="140" y2="120" gradientTransform="translate(280,712.36258)" gradientUnits="userSpaceOnUse" xlink:href="#linearGradient3843"/><linearGradient id="linearGradient3153" x1="90" x2="90" y1="140" y2="120" gradientTransform="translate(-50,712.3624)" gradientUnits="userSpaceOnUse" xlink:href="#linearGradient3787"/><linearGradient id="linearGradient4749-7" x1="90" x2="90" y1="140" y2="120" gradientTransform="translate(-50,772.36242)" gradientUnits="userSpaceOnUse" xlink:href="#linearGradient3787-1"/><linearGradient id="linearGradient3787-1"><stop id="stop3789-5" offset="0" stop-color="#f9d5d3" stop-opacity="1"/><stop id="stop3791-3" offset="1" stop-color="#fef7f6" stop-opacity="1"/></linearGradient><linearGradient id="linearGradient3166" x1="90" x2="90" y1="140" y2="120" gradientTransform="translate(-49.564661,792.09355)" gradientUnits="userSpaceOnUse" xlink:href="#linearGradient3787-1"/><linearGradient id="linearGradient4939-2" x1="90" x2="90" y1="140" y2="120" gradientTransform="translate(270,652.36222)" gradientUnits="userSpaceOnUse" xlink:href="#linearGradient3787-3"/><linearGradient id="linearGradient3787-3"><stop id="stop3789-8" offset="0" stop-color="#f9d5d3" stop-opacity="1"/><stop id="stop3791-33" offset="1" stop-color="#fef7f6" stop-opacity="1"/></linearGradient><linearGradient id="linearGradient4027" x1="90" x2="90" y1="140" y2="120" gradientTransform="translate(270,672.36224)" gradientUnits="userSpaceOnUse" xlink:href="#linearGradient3787-3"/></defs><metadata id="metadata7"/><g id="layer1" transform="translate(0,-652.3622)"><path id="path3923" fill="none" stroke="#888a85" stroke-dasharray="none" stroke-linecap="butt" stroke-linejoin="miter" stroke-miterlimit="4" stroke-opacity="1" stroke-width="2" d="m 410,230 0,130 -120,0" transform="translate(0,652.3622)"/><rect id="rect4960" width="160" height="140" x="348" y="750.362" fill="url(#linearGradient4962)" fill-opacity="1" stroke="#888a85" stroke-dasharray="none" stroke-miterlimit="4" stroke-opacity="1" stroke-width="2" rx="0" ry="0"/><rect id="rect4956" width="160" height="140" x="344" y="746.362" fill="url(#linearGradient4958)" fill-opacity="1" stroke="#888a85" stroke-dasharray="none" stroke-miterlimit="4" stroke-opacity="1" stroke-width="2" rx="0" ry="0"/><path id="path3147" fill="none" stroke="#888a85" stroke-dasharray="none" stroke-linecap="butt" stroke-linejoin="miter" stroke-miterlimit="4" stroke-opacity="1" stroke-width="2" d="m 90,90 160,0 0,-30" transform="translate(0,652.3622)"/><rect id="rect2987" width="159.829" height="271.314" x="20.086" y="742.448" fill="url(#linearGradient3763)" fill-opacity="1" stroke="#888a85" stroke-dasharray="none" stroke-miterlimit="4" stroke-opacity="1" stroke-width="2.171" rx="0" ry="0"/><text id="text3767" x="38" y="762.362" fill="#555753" fill-opacity="1" stroke="none" font-family="Cantarell" font-size="16" font-stretch="normal" font-style="normal" font-variant="normal" font-weight="bold" letter-spacing="0" word-spacing="0" xml:space="preserve" style="line-height:125%;-inkscape-font-specification:Cantarell Bold"><tspan id="tspan3769" x="38" y="762.362">Controller</tspan></text><rect id="rect3785" width="140" height="20" x="30" y="772.362" fill="url(#linearGradient3793)" fill-opacity="1" stroke="#888a85" stroke-dasharray="none" stroke-linejoin="miter" stroke-miterlimit="4" stroke-opacity="1" stroke-width="2" rx="0" ry="0"/><text id="text3781" x="40" y="786.362" fill="#555753" fill-opacity="1" stroke="none" font-family="Cantarell" font-size="12" font-stretch="normal" font-style="normal" font-variant="normal" font-weight="bold" letter-spacing="0" word-spacing="0" xml:space="preserve" style="line-height:125%;-inkscape-font-specification:Cantarell Bold"><tspan id="tspan3783" x="40" y="786.362">keystone</tspan></text><rect id="rect3795" width="140" height="20" x="30" y="792.362" fill="url(#linearGradient3801)" fill-opacity="1" stroke="#888a85" stroke-dasharray="none" stroke-linejoin="miter" stroke-miterlimit="4" stroke-opacity="1" stroke-width="2" rx="0" ry="0"/><text font-stretch="normal" style="line-height:125%;-inkscape-font-specification:Cantarell Bold" id="text3797" x="40" y="806.362" fill="#555753" fill-opacity="1" stroke="none" font-family="Cantarell" font-size="12" font-style="normal" font-variant="normal" font-weight="bold" letter-spacing="0" word-spacing="0" xml:space="preserve"><tspan id="tspan3799" x="40" y="806.362">glance-api</tspan></text><rect id="rect3811" width="140" height="20" x="30" y="812.362" fill="url(#linearGradient3817)" fill-opacity="1" stroke="#888a85" stroke-dasharray="none" stroke-linejoin="miter" stroke-miterlimit="4" stroke-opacity="1" stroke-width="2" rx="0" ry="0"/><rect id="rect3147" width="140" height="20" x="30" y="832.362" fill="url(#linearGradient3153)" fill-opacity="1" stroke="#888a85" stroke-dasharray="none" stroke-linejoin="miter" stroke-miterlimit="4" stroke-opacity="1" stroke-width="2" rx="0" ry="0"/><text font-stretch="normal" style="line-height:125%;-inkscape-font-specification:Cantarell Bold" id="text3813" x="40" y="844.362" fill="#555753" fill-opacity="1" stroke="none" font-family="Cantarell" font-size="12" font-style="normal" font-variant="normal" font-weight="bold" letter-spacing="0" word-spacing="0" xml:space="preserve"><tspan id="tspan3815" x="40" y="844.362">nova-api</tspan></text><rect id="rect3819" width="140" height="20" x="30" y="852.362" fill="url(#linearGradient3825)" fill-opacity="1" stroke="#888a85" stroke-dasharray="none" stroke-linejoin="miter" stroke-miterlimit="4" stroke-opacity="1" stroke-width="2" rx="0" ry="0"/><rect id="rect4743" width="140" height="20" x="30" y="892.362" fill="url(#linearGradient4749)" fill-opacity="1" stroke="#888a85" stroke-dasharray="none" stroke-linejoin="miter" stroke-miterlimit="4" stroke-opacity="1" stroke-width="2" rx="0" ry="0"/><text id="text3821" x="40" y="906.362" fill="#555753" fill-opacity="1" stroke="none" font-family="Cantarell" font-size="12" font-stretch="normal" font-style="normal" font-variant="normal" font-weight="bold" letter-spacing="0" word-spacing="0" xml:space="preserve" style="line-height:125%;-inkscape-font-specification:Cantarell Bold"><tspan id="tspan3823" x="40" y="906.362">nova-novncproxy</tspan></text><rect id="rect3827" width="140" height="20" x="30" y="872.362" fill="url(#linearGradient3833)" fill-opacity="1" stroke="#888a85" stroke-dasharray="none" stroke-linejoin="miter" stroke-miterlimit="4" stroke-opacity="1" stroke-width="2" rx="0" ry="0"/><rect id="rect4743-6" width="140" height="20" x="30.435" y="912.093" fill="url(#linearGradient3166)" fill-opacity="1" stroke="#888a85" stroke-dasharray="none" stroke-linejoin="miter" stroke-miterlimit="4" stroke-opacity="1" stroke-width="2" rx="0" ry="0"/><text font-stretch="normal" style="line-height:125%;-inkscape-font-specification:Cantarell Bold" id="text3829" x="40" y="926.362" fill="#555753" fill-opacity="1" stroke="none" font-family="Cantarell" font-size="12" font-style="normal" font-variant="normal" font-weight="bold" letter-spacing="0" word-spacing="0" xml:space="preserve"><tspan id="tspan3831" x="40" y="926.362">nova-scheduler</tspan></text><rect id="rect3835" width="140" height="20" x="30" y="952.362" fill="url(#linearGradient3841)" fill-opacity="1" stroke="#888a85" stroke-dasharray="none" stroke-linejoin="miter" stroke-miterlimit="4" stroke-opacity="1" stroke-width="2" rx="0" ry="0"/><text id="text3837" x="40" y="966.362" fill="#555753" fill-opacity="1" stroke="none" font-family="Cantarell" font-size="12" font-stretch="normal" font-style="normal" font-variant="normal" font-weight="bold" letter-spacing="0" word-spacing="0" xml:space="preserve" style="line-height:125%;-inkscape-font-specification:Cantarell Bold"><tspan id="tspan3839" x="40" y="966.362">MySQL</tspan></text><rect id="rect3849" width="140" height="20" x="30" y="974.237" fill="url(#linearGradient3855)" fill-opacity="1" stroke="#888a85" stroke-dasharray="none" stroke-linejoin="miter" stroke-miterlimit="4" stroke-opacity="1" stroke-width="2" rx="0" ry="0"/><text font-stretch="normal" style="line-height:125%;-inkscape-font-specification:Cantarell Bold" id="text3851" x="40" y="986.362" fill="#555753" fill-opacity="1" stroke="none" font-family="Cantarell" font-size="12" font-style="normal" font-variant="normal" font-weight="bold" letter-spacing="0" word-spacing="0" xml:space="preserve"><tspan id="tspan3853" x="40" y="986.362">QPid/RabbitMQ</tspan></text><path id="path3919" fill="none" stroke="#888a85" stroke-dasharray="none" stroke-linecap="butt" stroke-linejoin="miter" stroke-miterlimit="4" stroke-opacity="1" stroke-width="2" d="m 410,90 0,-30 -120,0" transform="translate(0,652.3622)"/><g id="g14454" transform="matrix(0.37276803,0,0,0.37276803,235.25077,484.68406)"><g id="g14456" transform="matrix(6.5383417,0,0,6.5383417,488.78696,875.42775)"><path id="path14458" fill="#888" fill-opacity="1" stroke="none"/><path id="path14460" fill="#888" fill-opacity="1" stroke="none"/><path id="path14462" fill="#888" fill-opacity="1" stroke="none"/><g id="g14464" transform="translate(-68.205597,-63.743549)"><path id="path14466" fill="#000" fill-opacity="1" fill-rule="evenodd" stroke="none" d="m 7.6108945,14.642423 -0.3365653,0.168282 -8.07756781,4.038784 -0.33656529,0.168283 0,0.420707 0,4.038784 0,0.420706 0.33656529,0.168283 8.07756781,4.038784 0.3365653,0.168282 0.2944947,-0.168282 8.0775678,-4.038784 0.378636,-0.168283 0,-0.420706 0,-4.038784 0,-0.420707 -0.378636,-0.168283 -8.0775678,-4.038784 -0.2944947,-0.168282 z m 0,1.514544 7.4044375,3.702218 0,3.197371 -7.4044375,3.702218 -7.40443714,-3.702218 0,-3.197371 7.40443714,-3.702218 z"/><path id="path14468" fill="#888" fill-opacity="1" fill-rule="evenodd" stroke="none" d="M -0.48215529,19.441925 7.5954125,15.403141 15.67298,19.441925 7.5954125,23.480709 -0.48215529,19.441925 z"/><path id="path14470" fill="#888" fill-opacity="1" fill-rule="evenodd" stroke="none" d="m -0.48215529,19.441925 0,4.038784 8.07756779,4.038784 0,-4.038784 -8.07756779,-4.038784 z"/><path id="path14472" fill="url(#radialGradient15032)" fill-opacity="1" fill-rule="evenodd" stroke="none" d="m 15.67298,19.441925 0,4.038784 -8.0775675,4.038784 0,-4.038784 8.0775675,-4.038784 z"/></g></g><g id="g14474" transform="matrix(0.6363961,-0.3181981,-0.6363961,-0.3181981,-338.72869,1082.8342)"><path id="path14476" fill="#0ff" fill-opacity="1" stroke="#0ff" stroke-linecap="butt" stroke-linejoin="miter" stroke-width="1.099" d="m 1081.1367,402.39569 0,78.90625 78.9062,0 0,-78.90625 -78.9062,0 z m 39.4687,2.46875 c 20.4177,0 37,16.5823 37,37 0,20.4177 -16.5823,36.96875 -37,36.96875 -20.4177,0 -37,-16.55105 -37,-36.96875 0,-20.41771 16.5823,-37 37,-37 z"/><g id="g14478" fill="#0ff" stroke="#fff" transform="translate(456.4439,-26.889185)"><path id="path14480" fill="#0ff" fill-opacity="1" fill-rule="evenodd" stroke="#fff" stroke-linecap="butt" stroke-linejoin="miter" stroke-opacity="1" stroke-width=".616" d="m 660.00267,458.32498 11.28987,6.22099 0,-1.97176 18.4037,0 0,-8.49847 -18.4037,0 0,-1.95647 -11.28987,6.20571 z"/><path id="path14482" fill="#0ff" fill-opacity="1" fill-rule="evenodd" stroke="#fff" stroke-linecap="butt" stroke-linejoin="miter" stroke-opacity="1" stroke-width=".616" d="m 668.28911,465.32717 -11.28987,6.22099 0,-1.97176 -18.4037,0 0,-8.49847 18.4037,0 0,-1.95647 11.28987,6.20571 z"/><path id="path14484" fill="#0ff" fill-opacity="1" fill-rule="evenodd" stroke="#fff" stroke-linecap="butt" stroke-linejoin="miter" stroke-opacity="1" stroke-width=".616" d="m 660.00267,472.20199 11.28987,6.22099 0,-1.97176 18.4037,0 0,-8.49847 -18.4037,0 0,-1.95647 -11.28987,6.20571 z"/><path id="path14486" fill="#0ff" fill-opacity="1" fill-rule="evenodd" stroke="#fff" stroke-linecap="butt" stroke-linejoin="miter" stroke-opacity="1" stroke-width=".616" d="m 668.28911,479.13574 -11.28987,6.22099 0,-1.97176 -18.4037,0 0,-8.49847 18.4037,0 0,-1.95647 11.28987,6.20571 z"/></g></g></g><text font-stretch="normal" style="line-height:125%;-inkscape-font-specification:Cantarell Bold" id="text4751" x="220" y="684.362" fill="#555753" fill-opacity="1" stroke="none" font-family="Cantarell" font-size="12" font-style="normal" font-variant="normal" font-weight="bold" letter-spacing="0" word-spacing="0" xml:space="preserve"><tspan id="tspan4753" x="220" y="684.362">Internal Network</tspan></text><path id="path4794" fill="none" stroke="#888a85" stroke-dasharray="none" stroke-linecap="butt" stroke-linejoin="miter" stroke-miterlimit="4" stroke-opacity="1" stroke-width="2" d="m 210,4666.5354 90,0 0,90"/><g id="g4842" transform="matrix(0.37276803,0,0,0.37276803,235.25077,788.68406)"><g id="g4844" transform="matrix(6.5383417,0,0,6.5383417,488.78696,875.42775)"><path id="path4846" fill="#888" fill-opacity="1" stroke="none"/><path id="path4848" fill="#888" fill-opacity="1" stroke="none"/><path id="path4850" fill="#888" fill-opacity="1" stroke="none"/><g id="g4852" transform="translate(-68.205597,-63.743549)"><path id="path4854" fill="#000" fill-opacity="1" fill-rule="evenodd" stroke="none" d="m 7.6108945,14.642423 -0.3365653,0.168282 -8.07756781,4.038784 -0.33656529,0.168283 0,0.420707 0,4.038784 0,0.420706 0.33656529,0.168283 8.07756781,4.038784 0.3365653,0.168282 0.2944947,-0.168282 8.0775678,-4.038784 0.378636,-0.168283 0,-0.420706 0,-4.038784 0,-0.420707 -0.378636,-0.168283 -8.0775678,-4.038784 -0.2944947,-0.168282 z m 0,1.514544 7.4044375,3.702218 0,3.197371 -7.4044375,3.702218 -7.40443714,-3.702218 0,-3.197371 7.40443714,-3.702218 z"/><path id="path4856" fill="#888" fill-opacity="1" fill-rule="evenodd" stroke="none" d="M -0.48215529,19.441925 7.5954125,15.403141 15.67298,19.441925 7.5954125,23.480709 -0.48215529,19.441925 z"/><path id="path4858" fill="#888" fill-opacity="1" fill-rule="evenodd" stroke="none" d="m -0.48215529,19.441925 0,4.038784 8.07756779,4.038784 0,-4.038784 -8.07756779,-4.038784 z"/><path id="path4860" fill="url(#radialGradient4880)" fill-opacity="1" fill-rule="evenodd" stroke="none" d="m 15.67298,19.441925 0,4.038784 -8.0775675,4.038784 0,-4.038784 8.0775675,-4.038784 z"/></g></g><g id="g4862" transform="matrix(0.6363961,-0.3181981,-0.6363961,-0.3181981,-338.72869,1082.8342)"><path id="path4864" fill="#0ff" fill-opacity="1" stroke="#0ff" stroke-linecap="butt" stroke-linejoin="miter" stroke-width="1.099" d="m 1081.1367,402.39569 0,78.90625 78.9062,0 0,-78.90625 -78.9062,0 z m 39.4687,2.46875 c 20.4177,0 37,16.5823 37,37 0,20.4177 -16.5823,36.96875 -37,36.96875 -20.4177,0 -37,-16.55105 -37,-36.96875 0,-20.41771 16.5823,-37 37,-37 z"/><g id="g4866" fill="#0ff" stroke="#fff" transform="translate(456.4439,-26.889185)"><path id="path4868" fill="#0ff" fill-opacity="1" fill-rule="evenodd" stroke="#fff" stroke-linecap="butt" stroke-linejoin="miter" stroke-opacity="1" stroke-width=".616" d="m 660.00267,458.32498 11.28987,6.22099 0,-1.97176 18.4037,0 0,-8.49847 -18.4037,0 0,-1.95647 -11.28987,6.20571 z"/><path id="path4870" fill="#0ff" fill-opacity="1" fill-rule="evenodd" stroke="#fff" stroke-linecap="butt" stroke-linejoin="miter" stroke-opacity="1" stroke-width=".616" d="m 668.28911,465.32717 -11.28987,6.22099 0,-1.97176 -18.4037,0 0,-8.49847 18.4037,0 0,-1.95647 11.28987,6.20571 z"/><path id="path4872" fill="#0ff" fill-opacity="1" fill-rule="evenodd" stroke="#fff" stroke-linecap="butt" stroke-linejoin="miter" stroke-opacity="1" stroke-width=".616" d="m 660.00267,472.20199 11.28987,6.22099 0,-1.97176 18.4037,0 0,-8.49847 -18.4037,0 0,-1.95647 -11.28987,6.20571 z"/><path id="path4874" fill="#0ff" fill-opacity="1" fill-rule="evenodd" stroke="#fff" stroke-linecap="butt" stroke-linejoin="miter" stroke-opacity="1" stroke-width=".616" d="m 668.28911,479.13574 -11.28987,6.22099 0,-1.97176 -18.4037,0 0,-8.49847 18.4037,0 0,-1.95647 11.28987,6.20571 z"/></g></g></g><text id="text4876" x="220" y="988.362" fill="#555753" fill-opacity="1" stroke="none" font-family="Cantarell" font-size="12" font-stretch="normal" font-style="normal" font-variant="normal" font-weight="bold" letter-spacing="0" word-spacing="0" xml:space="preserve" style="line-height:125%;-inkscape-font-specification:Cantarell Bold"><tspan id="tspan4878" x="220" y="988.362">External Network</tspan></text><rect id="rect4882" width="160" height="140" x="340" y="742.362" fill="url(#linearGradient4937)" fill-opacity="1" stroke="#888a85" stroke-dasharray="none" stroke-miterlimit="4" stroke-opacity="1" stroke-width="2" rx="0" ry="0"/><rect id="rect4888-1" width="140" height="20" x="350" y="792.362" fill="url(#linearGradient4027)" fill-opacity="1" stroke="#888a85" stroke-dasharray="none" stroke-linejoin="miter" stroke-miterlimit="4" stroke-opacity="1" stroke-width="2" rx="0" ry="0"/><text font-stretch="normal" style="line-height:125%;-inkscape-font-specification:Cantarell Bold" id="text4884" x="358" y="762.362" fill="#555753" fill-opacity="1" stroke="none" font-family="Cantarell" font-size="16" font-style="normal" font-variant="normal" font-weight="bold" letter-spacing="0" word-spacing="0" xml:space="preserve"><tspan id="tspan4886" x="358" y="762.362">Cloud Nodes</tspan></text><rect id="rect4888" width="140" height="20" x="350" y="772.362" fill="url(#linearGradient4939)" fill-opacity="1" stroke="#888a85" stroke-dasharray="none" stroke-linejoin="miter" stroke-miterlimit="4" stroke-opacity="1" stroke-width="2" rx="0" ry="0"/><text font-stretch="normal" style="line-height:125%;-inkscape-font-specification:Cantarell Bold" id="text4890" x="360" y="786.362" fill="#555753" fill-opacity="1" stroke="none" font-family="Cantarell" font-size="12" font-style="normal" font-variant="normal" font-weight="bold" letter-spacing="0" word-spacing="0" xml:space="preserve"><tspan id="tspan4892" x="360" y="786.362">nova-compute</tspan></text><rect id="rect4918" width="140" height="20" x="350" y="828.362" fill="url(#linearGradient4950)" fill-opacity="1" stroke="#888a85" stroke-dasharray="none" stroke-linejoin="miter" stroke-miterlimit="4" stroke-opacity="1" stroke-width="2" rx="0" ry="0"/><text font-stretch="normal" style="line-height:125%;-inkscape-font-specification:Cantarell Bold" id="text4920" x="360" y="842.362" fill="#555753" fill-opacity="1" stroke="none" font-family="Cantarell" font-size="12" font-style="normal" font-variant="normal" font-weight="bold" letter-spacing="0" word-spacing="0" xml:space="preserve"><tspan id="tspan4922" x="360" y="842.362">kvm</tspan></text><g id="g4976" transform="translate(-6,26)"><rect id="rect4968" width="36" height="20" x="360" y="832.362" fill="url(#linearGradient4974)" fill-opacity="1" stroke="#888a85" stroke-dasharray="none" stroke-linejoin="miter" stroke-miterlimit="4" stroke-opacity="1" stroke-width="2" rx="0" ry="0"/><text font-stretch="normal" style="line-height:125%;-inkscape-font-specification:Cantarell Bold" id="text4970" x="370" y="846.362" fill="#555753" fill-opacity="1" stroke="none" font-family="Cantarell" font-size="12" font-style="normal" font-variant="normal" font-weight="bold" letter-spacing="0" word-spacing="0" xml:space="preserve"><tspan id="tspan4972" x="370" y="846.362">vm</tspan></text></g><g id="g4981" transform="translate(40,26.000017)"><rect id="rect4983" width="36" height="20" x="360" y="832.362" fill="url(#linearGradient4989)" fill-opacity="1" stroke="#888a85" stroke-dasharray="none" stroke-linejoin="miter" stroke-miterlimit="4" stroke-opacity="1" stroke-width="2" rx="0" ry="0"/><text id="text4985" x="370" y="846.362" fill="#555753" fill-opacity="1" stroke="none" font-family="Cantarell" font-size="12" font-stretch="normal" font-style="normal" font-variant="normal" font-weight="bold" letter-spacing="0" word-spacing="0" xml:space="preserve" style="line-height:125%;-inkscape-font-specification:Cantarell Bold"><tspan id="tspan4987" x="370" y="846.362">vm</tspan></text></g><g id="g4991" transform="translate(86,26.000017)"><rect id="rect4993" width="37" height="20" x="360" y="832.362" fill="url(#linearGradient4999)" fill-opacity="1" stroke="#888a85" stroke-dasharray="none" stroke-linejoin="miter" stroke-miterlimit="4" stroke-opacity="1" stroke-width="2" rx="0" ry="0"/><text font-stretch="normal" style="line-height:125%;-inkscape-font-specification:Cantarell Bold" id="text4995" x="370" y="846.362" fill="#555753" fill-opacity="1" stroke="none" font-family="Cantarell" font-size="12" font-style="normal" font-variant="normal" font-weight="bold" letter-spacing="0" word-spacing="0" xml:space="preserve"><tspan id="tspan4997" x="370" y="846.362">vm</tspan></text></g><path id="path5005" fill="none" stroke="#888a85" stroke-dasharray="none" stroke-linecap="butt" stroke-linejoin="miter" stroke-miterlimit="4" stroke-opacity="1" stroke-width="2" d="m 371,858.3622 0,-10"/><path id="path5007" fill="none" stroke="#888a85" stroke-dasharray="none" stroke-linecap="butt" stroke-linejoin="miter" stroke-miterlimit="4" stroke-opacity="1" stroke-width="2" d="m 417,858.3622 0,-10"/><path id="path5009" fill="none" stroke="#888a85" stroke-dasharray="none" stroke-linecap="butt" stroke-linejoin="miter" stroke-miterlimit="4" stroke-opacity="1" stroke-width="2" d="m 457,858.3622 0,-10"/><text font-stretch="normal" style="line-height:125%;-inkscape-font-specification:Cantarell Bold" id="text3149" x="40" y="866.362" fill="#555753" fill-opacity="1" stroke="none" font-family="Cantarell" font-size="12" font-style="normal" font-variant="normal" font-weight="bold" letter-spacing="0" word-spacing="0" xml:space="preserve"><tspan id="tspan3151" x="40" y="866.362">nova-cert</tspan></text><text font-stretch="normal" style="line-height:125%;-inkscape-font-specification:Cantarell Bold" id="text3797-5" x="40" y="824.362" fill="#555753" fill-opacity="1" stroke="none" font-family="Cantarell" font-size="12" font-style="normal" font-variant="normal" font-weight="bold" letter-spacing="0" word-spacing="0" xml:space="preserve"><tspan id="tspan3799-6" x="40" y="824.362">glance-registry</tspan></text><text font-stretch="normal" style="line-height:125%;-inkscape-font-specification:Cantarell Bold" id="text3813-5" x="40" y="884.362" fill="#555753" fill-opacity="1" stroke="none" font-family="Cantarell" font-size="12" font-style="normal" font-variant="normal" font-weight="bold" letter-spacing="0" word-spacing="0" xml:space="preserve"><tspan id="tspan3815-3" x="40" y="884.362">nova-consoleauth</tspan></text><path id="path4008" fill="none" stroke="#0ff000" stroke-linecap="butt" stroke-linejoin="miter" stroke-opacity="0" stroke-width="1" d="m 250,360 -70,0" transform="translate(0,652.3622)"/><path id="path4010" fill="none" stroke="#8a8586" stroke-dasharray="none" stroke-linecap="butt" stroke-linejoin="miter" stroke-miterlimit="4" stroke-opacity="1" stroke-width="1.936" d="m 179.97591,1012.3622 68.26368,0"/><text font-stretch="normal" style="line-height:125%;-inkscape-font-specification:Cantarell Bold" id="text4890-9" x="360" y="804.362" fill="#555753" fill-opacity="1" stroke="none" font-family="Cantarell" font-size="12" font-style="normal" font-variant="normal" font-weight="bold" letter-spacing="0" word-spacing="0" xml:space="preserve"><tspan id="tspan4892-9" x="360" y="804.362">nova-network</tspan></text></g></svg>